<svg xmlns="http://www.w3.org/2000/svg" width="100pt" height="100pt" viewBox="0 0 100 100"><g fill-rule="evenodd"><path d="M28.668 5.5C39.32-.473 59.68-.473 70.332 5.5c.496.45 1.246.645 1.836 1 1.168.55 2.133 1.313 3.332 1.832.473.582 1.246.863 1.832 1.336 1.977 1.3 3.629 2.926 5.5 4.332 1.191 1.2 2.207 2.574 3.5 3.668.715 1.23 1.738 2.152 2.5 3.332.691.922 1.2 2.023 2 2.832.313.969.922 1.637 1.336 2.5.46.816.773 1.781 1.332 2.5 2.11 4.945 3.836 10.277 4.332 16.836.106.504-.21 1.434.168 1.664v3.836c-.379.23-.063 1.16-.168 1.664-.496 6.559-2.223 11.89-4.332 16.836-.559.719-.871 1.687-1.332 2.5-.414.863-1.023 1.531-1.336 2.5-.8.809-1.309 1.91-2 2.832-.762 1.18-1.785 2.102-2.5 3.332-1.293 1.094-2.309 2.469-3.5 3.668-1.871 1.406-3.523 3.031-5.5 4.332-.586.473-1.36.754-1.832 1.336-1.2.52-2.164 1.281-3.332 1.832-.59.355-1.34.55-1.836 1-10.652 5.973-31.012 5.973-41.664 0-.496-.45-1.246-.645-1.836-1-1.168-.55-2.133-1.313-3.332-1.832-.473-.582-1.246-.863-1.832-1.336-1.977-1.3-3.629-2.926-5.5-4.332-1.191-1.2-2.207-2.574-3.5-3.668-.715-1.23-1.738-2.152-2.5-3.332-.691-.922-1.2-2.023-2-2.832-.313-.969-.922-1.637-1.336-2.5-.465-.813-.773-1.781-1.332-2.5-2.11-4.945-3.836-10.277-4.332-16.836-.105-.504.21-1.434-.168-1.664v-3.836c.379-.23.063-1.16.168-1.664.496-6.559 2.223-11.89 4.332-16.836.559-.719.867-1.684 1.332-2.5.414-.863 1.023-1.531 1.336-2.5.8-.809 1.309-1.91 2-2.832.762-1.18 1.785-2.102 2.5-3.332 1.293-1.094 2.309-2.469 3.5-3.668 1.871-1.406 3.523-3.031 5.5-4.332.586-.473 1.36-.754 1.832-1.336 1.2-.52 2.164-1.281 3.332-1.832.59-.355 1.34-.55 1.836-1zm18-3.168c-9.398.547-16.352 3.543-22.5 7.336-.652.402-1.406.707-1.836 1.332-1.133.477-1.89 1.332-2.832 2-.863.75-1.824 1.395-2.5 2.332-2.195 1.754-3.93 3.961-5.5 6.336-.852.758-1.371 1.852-2 2.832-.465.813-1.063 1.496-1.332 2.5-.645.637-.969 1.59-1.336 2.5C4.605 34.328 2.859 39.637 2.5 46.332c-.379.234-.063 1.16-.168 1.668v2.5c.106.508-.21 1.438.168 1.668C2.86 58.863 4.605 64.172 6.832 69c.367.914.691 1.863 1.336 2.5.27 1.004.867 1.688 1.332 2.5.629.98 1.148 2.074 2 2.832 1.57 2.375 3.305 4.582 5.5 6.336.676.937 1.637 1.586 2.5 2.332.941.672 1.7 1.523 2.832 2 .43.625 1.184.93 1.836 1.332 6.148 3.797 13.102 6.79 22.5 7.336 1.5.277 4.164.277 5.664 0 9.398-.547 16.352-3.54 22.5-7.336.652-.402 1.402-.707 1.836-1.332 1.133-.477 1.89-1.328 2.832-2 .863-.746 1.824-1.395 2.5-2.332 2.191-1.754 3.93-3.961 5.5-6.336.852-.758 1.367-1.852 2-2.832.465-.813 1.059-1.496 1.332-2.5.645-.637.969-1.586 1.336-2.5 2.227-4.828 3.973-10.137 4.332-16.832.379-.23.063-1.16.168-1.668V48c-.106-.508.21-1.434-.168-1.668-.36-6.695-2.105-12.004-4.332-16.832-.367-.91-.691-1.863-1.336-2.5-.273-1.004-.867-1.688-1.332-2.5-.633-.98-1.148-2.074-2-2.832-1.57-2.375-3.309-4.582-5.5-6.336-.676-.934-1.637-1.582-2.5-2.332-.941-.668-1.7-1.523-2.832-2-.434-.625-1.184-.926-1.836-1.332-6.148-3.793-13.102-6.79-22.5-7.336-1.5-.277-4.164-.277-5.664 0zm0 0" fill="#577fa2"/><path d="M39 39.668c-2.348-3.535-4.816-6.637-4.832-12.336C34.137 16.246 39.278 5.051 50 3.5c.23.379 1.16.063 1.668.168 9.25.691 16.207 3.68 22.5 7.332.473.582 1.246.863 1.832 1.332.473.254.71.734 1.332.836 2.168 1.89 4.34 3.773 6.336 5.832.71 1.23 1.734 2.152 2.5 3.332.687.922 1.195 2.027 2 2.836.309.965.918 1.633 1.332 2.5.465.812.777 1.777 1.332 2.5 5.582 10.07 5.582 28.094 0 38.164-.555.723-.867 1.688-1.332 2.5-.414.867-1.023 1.535-1.332 2.5-.805.809-1.313 1.914-2 2.836-.766 1.18-1.79 2.102-2.5 3.332-1.996 2.059-4.168 3.941-6.336 5.832-.621.102-.86.586-1.332.836-.586.469-1.36.75-1.832 1.332-5.824 3.398-12.266 6.18-20.5 7.168 7.785-3.438 11.945-10.496 13.5-20.168.383-.34.059-1.383.164-2 .211-7.32-1.582-12.637-5-16.332A15.986 15.986 0 0 0 60.168 54C54.492 49.172 46.98 46.187 41 41.668a13.263 13.263 0 0 0-2-2zm28.168-17.5c-3.266-2.629-6.215-5.566-12-5.668-1.66-2.023-8.363-4.664-8.668-.5-.184 2.484 2.594 4.082 3.5 6 1.547 3.277 1.828 6.848 3.832 8.332-2.203 3.316-1.445 14.426 2.836 14 1.996-.195 1.312-2.855 2.164-4.5.91 2.648 2.59 4.523 4.668 6 .59.691 1.555 1.887 2.332 1.836-.71-.457-1.121-1.211-1.832-1.668-2.203-2.906-3.867-6.355-5.5-9.832-1.535 1.406-1.832 4.055-2.332 6.5-1.45-.941-1.887-2.89-2.168-5V35c-.227-1.895 1.563-3.273 1.168-5.168-.145-.676-1.156-1.441-1.5-2-1.098-1.77-1.45-4.215-2.5-6.332-1.094-2.2-3.137-3.61-3.168-5.832 2.473-.781 4.781 1.27 6.332 2.5 4.797-.09 7.484 1.86 10 3.832 4.277 3.352 6.074 6.953 8.5 12.168.984 2.11 2.05 5.691 3.668 6.832 1.559 1.098 3.57 1.207 5.168 2.168 1.562.937 3.043 1.61 4.332 3.164-2.871-.148-5.121.324-6.832 1.336.715 2.25 2.629 3.566 4.664 4.664 2.027 1.094 4.07 2.273 5.668 3.336-1.633-3.367-5.414-4.59-7.668-7.336 2.078-.367 4.156-.73 6.168-1.164-2.188-3.758-6.023-5.867-10.332-7.5-3.082-5.14-4.637-11.813-8.836-15.836a9.32 9.32 0 0 0-1.664-1.664zm-12-1.168c.36 1.031 1.277 1.5 1.5 2.668 1.672-.578.527-3.285-1.5-2.668zm0 0" fill="#ffa230"/><path d="M50 3.5c.508.105 1.438-.215 1.668.168-.508-.106-1.438.21-1.668-.168zm0 0" fill="#ffce92"/><path d="M30 8.168c4.023-1.7 8.18-3.266 13.168-4 .137.484-1.059.797-1.836 1.332-5.078 3.5-8.566 9.969-9.332 18-.387.613-.059 1.941-.168 2.832.102 17.957 15.723 20.39 25.836 28.336a13.446 13.446 0 0 0 2 2c2.273 3.148 4.953 6.883 5.164 12.5.254 6.746-1.727 14.629-5.164 18.332A9.364 9.364 0 0 0 58 89.168c-2.586 2.734-5.61 4.969-10 5.5-6.238.754-13.219-2.684-18-4.336-.496-.445-1.242-.644-1.832-1-1.172-.55-2.133-1.309-3.336-1.832-.473-.582-1.246-.863-1.832-1.332-1.977-1.305-3.629-2.93-5.5-4.336-.668-.832-1.293-1.703-2.168-2.332-.71-1.23-1.734-2.152-2.5-3.332-.687-.922-1.195-2.027-2-2.836-.309-.965-.918-1.633-1.332-2.5-.465-.812-.777-1.777-1.332-2.5C6.055 63.387 4.332 58.059 3.832 51.5c-.102-.508.215-1.434-.164-1.668v-1.164c.379-.23.062-1.16.164-1.668.5-6.559 2.223-11.887 4.336-16.832.555-.723.867-1.688 1.332-2.5.414-.867 1.023-1.535 1.332-2.5.805-.809 1.313-1.914 2-2.836.766-1.18 1.79-2.102 2.5-3.332.875-.629 1.5-1.5 2.168-2.332 1.871-1.406 3.523-3.031 5.5-4.336.586-.469 1.36-.75 1.832-1.332 1.203-.523 2.164-1.281 3.336-1.832.59-.355 1.336-.555 1.832-1zm15.668 55c.227 1.89-1.563 3.273-1.168 5.164.145.688 1.152 1.438 1.5 2 1.098 1.773 1.45 4.215 2.5 6.336 1.094 2.2 3.152 3.602 3.168 5.832-2.473.781-4.781-1.27-6.336-2.5-4.793.098-7.504-1.879-10-3.832-4.27-3.348-6.137-6.98-8.5-12.168-.965-2.121-2.066-5.707-3.664-6.832-1.602-1.129-3.762-1.031-5.336-2-1.613-.996-2.773-1.957-4.164-3.336 2.879.16 5.086-.355 6.832-1.332-.926-3.504-4.754-4.328-7.5-6-1.086-.664-1.707-1.797-2.832-2 1.652 3.348 5.414 4.582 7.664 7.332-2.043.402-4.176.715-6.164 1.168 2.2 3.746 6.031 5.855 10.332 7.5 3.09 5.133 4.633 11.813 8.832 15.832A9.494 9.494 0 0 0 32.5 76c3.262 2.625 6.215 5.563 12 5.668 1.676 2.02 8.348 4.648 8.668.5.187-2.461-2.602-4.098-3.5-6-1.547-3.277-1.844-6.848-3.836-8.336 2.195-3.277 1.434-14.46-2.832-14-1.988.215-1.297 2.871-2.168 4.5-.89-2.55-2.457-4.43-4.5-5.832-.652-.738-1.645-2.02-2.5-2 .766.512 1.234 1.32 2 1.832 1.875 2.961 3.906 5.766 5 9.5 2.148-.852 1.996-4.004 2.668-6.332 1.465.867 1.813 2.855 2.168 4.832v2.836zm-1.168 14c-.336-1.055-1.313-1.465-1.5-2.668-1.633.617-.55 3.262 1.5 2.668zm0 0" fill="#577fa2"/><path d="M32 23.5c-.11.89.219 2.219-.168 2.832.11-.89-.219-2.219.168-2.832zm0 0" fill="#adc0d1"/><path d="M54 35v2.668c-.277-.508-.277-2.164 0-2.668zm0 0" fill="#ffce92"/><path d="M1 47.332c.105-.504-.215-1.434.168-1.664-.105.504.21 1.434-.168 1.664zm96.832-1.664c.383.23.063 1.16.168 1.664-.379-.23-.063-1.16-.168-1.664zM2.5 46.332V48h-.168c.106-.508-.21-1.438.168-1.668zm94 0c.379.234.063 1.16.168 1.668H96.5v-1.668zM3.668 48.668c.102-.508-.215-1.438.164-1.668-.102.508.215 1.438-.164 1.668zm0 0" fill="#adc0d1"/><path d="M2.332 48H2.5v2.5h-.168V48zM96.5 48h.168v2.5H96.5V48zm0 0" fill="#fefefe"/><path d="M3.668 49.832c.379.234.062 1.16.164 1.668-.379-.23-.062-1.16-.164-1.668zm-1.336.668H2.5v1.668c-.379-.23-.063-1.16-.168-1.668zm94.168 0h.168c-.106.508.21 1.438-.168 1.668V50.5zM1 51.168c.379.23.063 1.16.168 1.664-.383-.23-.063-1.16-.168-1.664zm97 0c-.105.504.215 1.434-.168 1.664.106-.504-.21-1.434.168-1.664zm-52.332 9.164c.277.563.277 2.273 0 2.836v-2.836zm0 0" fill="#adc0d1"/><path d="M67.168 74.5c.105-.617-.219-1.66.164-2-.105.617.219 1.66-.164 2zm0 0" fill="#ffce92"/><path d="M26.832 6.5c.418-.527 1.14-.75 1.836-1-.496.45-1.246.645-1.836 1zm-5.164 3.168c.43-.625 1.184-.93 1.832-1.336-.473.582-1.246.863-1.832 1.336zm-9 8c1.145-1.246 2.172-2.605 3.5-3.668-1.191 1.2-2.207 2.574-3.5 3.668zm-4.5 6.164c.629-.98 1.148-2.074 2-2.832-.691.922-1.2 2.023-2 2.832zm-2.668 5c.367-.91.691-1.863 1.332-2.5-.465.816-.773 1.781-1.332 2.5zm0 40.836c.559.719.867 1.684 1.332 2.5-.64-.637-.965-1.59-1.332-2.5zm4.668 7.832c-.852-.758-1.371-1.852-2-2.832.8.809 1.309 1.91 2 2.832zm6 7c-1.328-1.063-2.355-2.422-3.5-3.668 1.293 1.094 2.309 2.469 3.5 3.668zm7.332 5.668c-.648-.406-1.402-.711-1.832-1.336.586.473 1.36.754 1.832 1.336zM28.668 93c-.695-.25-1.418-.473-1.836-1 .59.355 1.34.55 1.836 1zm41.664 0c.496-.45 1.246-.645 1.836-1-.418.527-1.14.75-1.836 1zm5.168-2.832c.473-.582 1.246-.863 1.832-1.336-.43.625-1.184.93-1.832 1.336zm7.332-5.668c1.191-1.2 2.207-2.574 3.5-3.668-1.144 1.246-2.172 2.606-3.5 3.668zm8-9.832c-.629.98-1.148 2.074-2 2.832.691-.922 1.2-2.023 2-2.832zm2.668-5c-.367.91-.691 1.863-1.332 2.5.465-.816.773-1.781 1.332-2.5zm-1.332-43.336c.64.637.965 1.59 1.332 2.5-.559-.719-.867-1.684-1.332-2.5zM88.832 21c.852.758 1.371 1.852 2 2.832-.8-.809-1.309-1.91-2-2.832zm-6-7c1.328 1.063 2.356 2.422 3.5 3.668-1.293-1.094-2.309-2.469-3.5-3.668zM75.5 8.332c.648.406 1.402.711 1.832 1.336-.586-.473-1.36-.754-1.832-1.336zM70.332 5.5c.695.25 1.418.473 1.836 1-.59-.355-1.34-.55-1.836-1zm-48 5.5c.434-.625 1.184-.93 1.836-1.332-.473.582-1.25.863-1.836 1.332zM17 15.332c.676-.937 1.637-1.582 2.5-2.332-.707.906-1.691 1.531-2.5 2.332zM9.5 24.5c.629-.98 1.148-2.074 2-2.832-.691.918-1.2 2.023-2 2.832zm-2.668 5c.367-.914.691-1.863 1.336-2.5-.465.813-.777 1.781-1.336 2.5zm0 39.5c.559.719.871 1.688 1.336 2.5-.645-.637-.969-1.586-1.336-2.5zM9.5 74c.8.809 1.309 1.914 2 2.832-.852-.758-1.371-1.852-2-2.832zm7.5 9.168c.809.8 1.793 1.426 2.5 2.332-.863-.75-1.824-1.395-2.5-2.332zm5.332 4.332c.586.469 1.363.75 1.836 1.332-.652-.402-1.406-.707-1.836-1.332zm52.5 1.332c.473-.582 1.25-.863 1.836-1.332-.43.625-1.184.93-1.836 1.332zM79.5 85.5c.707-.906 1.691-1.531 2.5-2.332-.676.937-1.637 1.582-2.5 2.332zm8-8.668c.691-.918 1.2-2.023 2-2.832-.629.98-1.148 2.074-2 2.832zm3.332-5.332c.465-.813.777-1.781 1.336-2.5-.367.914-.691 1.863-1.336 2.5zm1.336-42c-.559-.719-.871-1.688-1.336-2.5.645.637.969 1.586 1.336 2.5zm-2.668-5c-.8-.809-1.309-1.914-2-2.832.852.758 1.371 1.852 2 2.832zM79.5 13c.863.75 1.824 1.395 2.5 2.332-.809-.8-1.793-1.426-2.5-2.332zm-2.832-2c-.586-.469-1.363-.75-1.836-1.332.652.402 1.406.707 1.836 1.332zm0 0" fill="#adc0d1"/><path d="M39 39.668a13.263 13.263 0 0 1 2 2 13.634 13.634 0 0 1-2-2zM60.168 54a15.948 15.948 0 0 1 2.164 2.168A15.986 15.986 0 0 1 60.168 54zm14 33.5c.473-.582 1.246-.863 1.832-1.332-.43.625-1.184.926-1.832 1.332zm3.164-2.168c2.168-1.89 4.34-3.773 6.336-5.832-1.856 2.203-4.016 4.098-6.336 5.832zm10.836-12c-.633.98-1.148 2.074-2 2.836.687-.922 1.195-2.027 2-2.836zm2.664-5c-.363.914-.687 1.867-1.332 2.5.465-.812.777-1.777 1.332-2.5zM89.5 27.668c.645.633.969 1.586 1.332 2.5-.555-.723-.867-1.688-1.332-2.5zm-3.332-5.336c.852.762 1.367 1.855 2 2.836-.805-.809-1.313-1.914-2-2.836zm-8.836-9.164c2.32 1.734 4.48 3.629 6.336 5.832-1.996-2.059-4.168-3.941-6.336-5.832zM74.168 11c.648.406 1.402.707 1.832 1.332-.586-.469-1.36-.75-1.832-1.332zm0 0" fill="#ffce92"/><path d="M28.168 9.168c.418-.527 1.137-.75 1.832-1-.496.445-1.242.645-1.832 1zM23 12.332c.43-.625 1.184-.926 1.832-1.332-.473.582-1.246.863-1.832 1.332zM15.332 19c.742-.758 1.34-1.66 2.168-2.332-.668.832-1.293 1.703-2.168 2.332zm-4.5 6.168c.633-.98 1.148-2.074 2-2.836-.687.922-1.195 2.027-2 2.836zm-2.664 5c.363-.914.687-1.867 1.332-2.5-.465.812-.777 1.777-1.332 2.5zm0 38.164c.555.723.867 1.688 1.332 2.5-.645-.633-.969-1.586-1.332-2.5zm4.664 7.836c-.852-.762-1.367-1.856-2-2.836.805.809 1.313 1.914 2 2.836zm4.668 5.664c-.828-.672-1.426-1.574-2.168-2.332.875.629 1.5 1.5 2.168 2.332zm7.332 5.668c-.648-.406-1.402-.707-1.832-1.332.586.469 1.36.75 1.832 1.332zM30 90.332c-.695-.25-1.414-.473-1.832-1 .59.356 1.336.555 1.832 1zm28-1.164a9.364 9.364 0 0 1 1.668-1.668A9.629 9.629 0 0 1 58 89.168zm-.332-34.5a13.446 13.446 0 0 1 2 2 13.446 13.446 0 0 1-2-2zm0 0" fill="#adc0d1"/><path d="M64 46c.71.457 1.121 1.21 1.832 1.668-.777.05-1.742-1.145-2.332-1.836.238-.086.406.652.5.168zm0 0" fill="#ffce92"/><path d="M68.832 23.832c4.2 4.023 5.754 10.695 8.836 15.836 4.309 1.633 8.144 3.742 10.332 7.5-2.012.434-4.09.797-6.168 1.164 2.254 2.746 6.035 3.969 7.668 7.336-1.598-1.063-3.64-2.242-5.668-3.336-2.035-1.098-3.95-2.41-4.664-4.664 1.71-1.012 3.96-1.484 6.832-1.336-1.29-1.555-2.77-2.227-4.332-3.164-1.598-.961-3.61-1.07-5.168-2.168-1.617-1.14-2.684-4.719-3.668-6.832-2.426-5.215-4.223-8.816-8.5-12.168-2.516-1.973-5.203-3.922-10-3.832-1.55-1.23-3.86-3.281-6.332-2.5.031 2.223 2.074 3.633 3.168 5.832 1.05 2.117 1.402 4.563 2.5 6.332.344.559 1.355 1.324 1.5 2C55.563 31.727 53.773 33.105 54 35c-.277.508-.277 2.16 0 2.668.281 2.11.719 4.059 2.168 5 .5-2.445.797-5.094 2.332-6.5 1.633 3.477 3.297 6.926 5.5 9.832-.094.484-.262-.254-.5-.168-2.078-1.477-3.758-3.352-4.668-6-.852 1.645-.168 4.305-2.164 4.5-4.281.426-5.04-10.684-2.836-14C51.828 28.848 51.547 25.277 50 22c-.906-1.918-3.684-3.516-3.5-6 .305-4.164 7.008-1.523 8.668.5 5.785.102 8.734 3.043 12 5.668a9.32 9.32 0 0 0 1.664 1.664zm0 0" fill="#fefefe"/><path d="M67.168 22.168a9.32 9.32 0 0 1 1.664 1.664 9.32 9.32 0 0 1-1.664-1.664zm0 0" fill="#ffce92"/><path d="M56.668 23.668c-.223-1.168-1.14-1.637-1.5-2.668 2.027-.617 3.172 2.09 1.5 2.668zm0 0" fill="#fefefe"/><path d="M30.832 74.332A9.494 9.494 0 0 1 32.5 76a9.494 9.494 0 0 1-1.668-1.668zm5-22c-.766-.512-1.234-1.32-2-1.832.855-.02 1.848 1.262 2.5 2-.238.09-.406-.648-.5-.168zm0 0" fill="#adc0d1"/><path d="M30.832 74.332c-4.2-4.02-5.742-10.7-8.832-15.832-4.3-1.645-8.133-3.754-10.332-7.5 1.988-.453 4.121-.766 6.164-1.168-2.25-2.75-6.012-3.984-7.664-7.332 1.125.203 1.746 1.336 2.832 2 2.746 1.672 6.574 2.496 7.5 6-1.746.977-3.953 1.492-6.832 1.332 1.39 1.379 2.55 2.34 4.164 3.336 1.574.969 3.734.871 5.336 2 1.598 1.125 2.7 4.71 3.664 6.832 2.363 5.188 4.23 8.82 8.5 12.168 2.496 1.953 5.207 3.93 10 3.832 1.555 1.23 3.863 3.281 6.336 2.5-.016-2.23-2.074-3.633-3.168-5.832-1.05-2.121-1.402-4.563-2.5-6.336-.348-.562-1.355-1.312-1.5-2-.395-1.89 1.395-3.273 1.168-5.164.277-.563.277-2.273 0-2.836-.355-1.977-.703-3.965-2.168-4.832-.672 2.328-.52 5.48-2.668 6.332-1.094-3.734-3.125-6.539-5-9.5.094-.48.262.258.5.168 2.043 1.402 3.61 3.281 4.5 5.832.871-1.629.18-4.285 2.168-4.5 4.266-.46 5.027 10.723 2.832 14 1.992 1.488 2.29 5.059 3.836 8.336.898 1.902 3.687 3.539 3.5 6-.32 4.148-6.992 1.52-8.668-.5-5.785-.106-8.738-3.043-12-5.668a9.494 9.494 0 0 0-1.668-1.668zm0 0" fill="#fefefe"/><path d="M43 74.5c.188 1.203 1.164 1.613 1.5 2.668-2.05.594-3.133-2.05-1.5-2.668zm0 0" fill="#fefefe"/><path d="M46.668 2.332c1.5-.277 4.164-.277 5.664 0h-5.664zm0 93.836h5.664c-1.5.277-4.164.277-5.664 0zm0 0" fill="#adc0d1"/></g></svg>