<svg height="511pt" viewBox="-16 0 511 511.999" width="511pt" xmlns="http://www.w3.org/2000/svg"><g fill-rule="evenodd"><path d="M257.578 117.996l27.852-16.082c9.23-5.328 12.394-17.133 7.066-26.363s-17.133-12.39-26.363-7.063c-5.328-9.23-17.133-12.394-26.363-7.062-9.23 5.328-12.395 17.129-7.063 26.36l16.082 27.855c1.77 3.066 5.723 4.125 8.79 2.355zm0 0" fill="#ff6977"/><path d="M285.434 101.914l-27.856 16.082c-3.066 1.77-7.02.711-8.789-2.355l-16.082-27.856c-5.328-9.23-2.168-21.031 7.066-26.36 9.227-5.331 21.032-2.167 26.36 7.063 9.23-5.328 21.035-2.168 26.363 7.063s2.164 21.035-7.062 26.363zm184.375-5.41c2.847-10.625-3.516-21.649-14.141-24.492l-228.86-61.325c-10.624-2.847-21.648 3.516-24.495 14.141l-17.485 65.258-70.898 264.598c-2.848 10.625 3.515 21.648 14.14 24.496l225.852 60.515 3.008.809c10.625 2.844 21.648-3.516 24.496-14.145zm-167.141 88.793c16.648-9.61 37.937-3.906 47.547 12.742 9.613 16.649 3.91 37.938-12.738 47.547l-50.243 29.008c-5.527 3.191-12.656 1.281-15.847-4.246l-29.008-50.243c-9.61-16.648-3.906-37.933 12.742-47.546 16.649-9.614 37.934-3.91 47.547 12.738zm26.91 152.723c9.23-5.329 21.035-2.168 26.363 7.062s2.168 21.035-7.062 26.363l-27.856 16.082c-3.066 1.77-7.02.707-8.789-2.355l-16.082-27.856c-5.328-9.23-2.168-21.03 7.063-26.363 9.234-5.328 21.035-2.164 26.363 7.067zm0 0" fill="#f8f8f8"/><path d="M302.668 185.297c-9.613-16.649-30.898-22.352-47.547-12.738-16.648 9.609-22.355 30.898-12.742 47.546l29.004 50.243c3.191 5.527 10.324 7.437 15.851 4.246l50.243-29.008c16.648-9.61 22.351-30.898 12.738-47.547-9.61-16.648-30.899-22.351-47.547-12.742zm26.91 152.723c-5.328-9.23-17.129-12.395-26.36-7.067-9.23 5.332-12.394 17.133-7.066 26.363l16.086 27.856c1.766 3.062 5.723 4.125 8.785 2.355l27.856-16.082c9.23-5.328 12.394-17.132 7.062-26.363-5.328-9.23-17.132-12.39-26.363-7.062zm0 0" fill="#ff6977"/><path d="M113.93 354.684l70.898-264.598-159.504 42.738c-10.625 2.848-16.988 13.867-14.14 24.496l88.382 329.856c2.848 10.62 13.871 16.988 24.496 14.14l228.864-61.324c.336-.09.668-.191.996-.297L128.07 379.18c-10.625-2.848-16.988-13.871-14.14-24.496zm-9.25-118.891l-39.328-30.871 18.625-46.402 39.328 30.87zm0 0" fill="#f8f8f8"/><path d="M104.68 235.793l18.625-46.402-39.332-30.871-18.621 46.402zm0 0" fill="#ff6977"/></g><path d="M59.176 212.785l39.328 30.871a10.002 10.002 0 0 0 6.176 2.137 9.94 9.94 0 0 0 2.59-.344 9.992 9.992 0 0 0 6.69-5.933l18.626-46.399a10.003 10.003 0 0 0-3.11-11.59l-39.328-30.875a10.012 10.012 0 0 0-8.761-1.793 10.01 10.01 0 0 0-6.692 5.934L56.07 201.195a9.996 9.996 0 0 0 3.106 11.59zm29.113-38.168l22.941 18.008-10.863 27.066-22.941-18.007zm0 0"/><path d="M458.258 62.352L229.395 1.032c-7.72-2.071-15.797-1-22.75 3.015s-11.922 10.476-13.993 18.195l-15.988 59.68-153.926 41.242C6.762 127.445-2.754 143.93 1.523 159.906L30.008 266.2c1.195 4.469 5.234 7.414 9.652 7.414.856 0 1.727-.113 2.594-.343 5.332-1.43 8.5-6.915 7.07-12.247L20.844 154.73c-1.426-5.324 1.746-10.82 7.07-12.246l142.774-38.257-66.418 247.87c-4.282 15.977 5.234 32.458 21.21 36.739l189.86 50.875-193.863 51.945c-5.329 1.426-10.82-1.746-12.25-7.07l-39.2-146.293c-1.425-5.332-6.91-8.5-12.246-7.07-5.332 1.43-8.5 6.914-7.07 12.246l39.2 146.293C93.495 503.148 105.647 512 118.89 512c2.566 0 5.168-.332 7.757-1.027l227.329-60.91.367.097a30.015 30.015 0 0 0 7.77 1.031c5.202 0 10.343-1.37 14.98-4.046 6.953-4.016 11.922-10.477 13.988-18.196L450.3 207.941c1.43-5.336-1.735-10.816-7.07-12.25-5.336-1.43-10.817 1.739-12.247 7.075l-59.218 221.007c-.688 2.559-2.348 4.707-4.672 6.051-2.328 1.344-5.02 1.703-7.574 1.02l-2.844-.762c-.008-.004-.016-.004-.024-.004L130.656 369.52c-5.328-1.426-8.5-6.918-7.07-12.247l88.383-329.855c.687-2.559 2.343-4.707 4.672-6.05 2.324-1.345 5.015-1.704 7.574-1.02l228.863 61.324c5.324 1.426 8.496 6.918 7.07 12.246l-8.46 31.578c-1.43 5.332 1.734 10.817 7.07 12.246a9.998 9.998 0 0 0 12.246-7.07l8.46-31.578c4.286-15.98-5.23-32.461-21.206-36.742zm0 0"/><path d="M262.727 275.348c2.878 4.984 7.539 8.554 13.117 10.05 1.87.5 3.765.75 5.648.75 3.738 0 7.426-.98 10.742-2.894l50.239-29.008c10.367-5.984 17.78-15.644 20.879-27.207 3.097-11.559 1.507-23.637-4.477-34-10.797-18.703-33.14-26.68-52.875-20.144-5.762-6.497-13.3-11.176-21.879-13.473-11.562-3.098-23.637-1.508-34.004 4.476-10.363 5.985-17.777 15.645-20.875 27.207-3.097 11.56-1.508 23.637 4.477 34zm-14.168-79.067c1.714-6.402 5.82-11.75 11.562-15.062a24.65 24.65 0 0 1 12.363-3.336c2.153 0 4.325.285 6.461.855a24.648 24.648 0 0 1 15.063 11.559c2.762 4.785 8.879 6.422 13.66 3.66 11.848-6.836 27.047-2.766 33.887 9.082 3.316 5.738 4.195 12.426 2.48 18.824-1.715 6.403-5.82 11.75-11.558 15.063l-50.243 29.008a1.56 1.56 0 0 1-1.21.144 1.556 1.556 0 0 1-.977-.73l-29.008-50.243c-3.312-5.738-4.195-12.421-2.48-18.824zm1.551-67.991a16.33 16.33 0 0 0 12.469-1.633l27.85-16.083c6.778-3.914 11.63-10.23 13.653-17.793 2.023-7.558.984-15.453-2.93-22.23-6.562-11.371-19.656-16.676-31.84-13.93-9.175-8.473-23.167-10.426-34.542-3.855-13.989 8.078-18.801 26.03-10.723 40.02l16.082 27.855c2.191 3.796 5.738 6.511 9.98 7.648zm-5.337-58.204a9.3 9.3 0 0 1 12.7 3.402c2.761 4.782 8.879 6.422 13.66 3.66 4.437-2.566 10.137-1.039 12.703 3.403a9.244 9.244 0 0 1 .93 7.054 9.26 9.26 0 0 1-4.332 5.649l-24.766 14.297-14.3-24.766c-2.563-4.437-1.036-10.137 3.405-12.7zm58.801 320.086a16.324 16.324 0 0 0 9.98 7.648 16.33 16.33 0 0 0 12.469-1.633l27.856-16.082c13.988-8.078 18.8-26.03 10.723-40.023-3.914-6.777-10.23-11.625-17.793-13.648a29.2 29.2 0 0 0-14.047-.293c-3.45-3.196-7.645-5.52-12.313-6.774-7.562-2.023-15.453-.984-22.23 2.93-6.778 3.91-11.63 10.23-13.653 17.789-2.023 7.559-.984 15.453 2.926 22.23zm.309-44.91a9.244 9.244 0 0 1 4.336-5.645 9.227 9.227 0 0 1 7.054-.93 9.224 9.224 0 0 1 5.645 4.333 10.013 10.013 0 0 0 6.074 4.66 9.983 9.983 0 0 0 7.586-1 9.234 9.234 0 0 1 7.059-.93 9.252 9.252 0 0 1 5.644 4.332c2.563 4.441 1.035 10.14-3.402 12.703l-24.766 14.3-14.3-24.769a9.242 9.242 0 0 1-.93-7.054zm149.691-188.207c-5.332-1.422-10.816 1.754-12.238 7.09-1.426 5.335 1.746 10.812 7.086 12.238.86.23 1.726.34 2.582.34 4.418 0 8.46-2.953 9.652-7.426l.004-.008c1.422-5.336-1.75-10.812-7.086-12.234zM59.68 299.672v-.008c-1.426-5.332-6.903-8.504-12.239-7.078-5.336 1.422-8.507 6.902-7.086 12.242a10.009 10.009 0 0 0 9.657 7.426 10.004 10.004 0 0 0 9.668-12.582zm0 0"/></svg>