<svg height="512" width="512" xmlns="http://www.w3.org/2000/svg"><path d="M336 368a56.013 56.013 0 0 1 48-55.433c1.794-.256 3.035 4.924 4.879 4.841.843-.037 5.08-.045 5.932-.045 2.714 0 2.573-5.17 5.184-4.8A56.036 56.036 0 0 1 447.433 360c.374 2.614-2.979 5.116-2.979 7.833 0 1.666 3.473 3.485 3.331 5.114A56 56 0 0 1 336 368z" fill="#4298d1"/><path d="M388.542 312.117c-.464.028-.924.066-1.385.1a58.137 58.137 0 0 0-3.148.355H384v32.898A23.943 23.943 0 1 0 414.53 376h32.834a3.3 3.3 0 0 1 .115-.444 55.359 55.359 0 0 0-.057-15.556H414.53A23.908 23.908 0 0 0 400 345.47v-32.892h-.009a58.137 58.137 0 0 0-4.533-.455q-.486-.031-.976-.054c-.824-.036-1.649-.063-2.482-.063s-1.658.027-2.482.063q-.49.016-.976.048z" fill="#f2f2f2"/><rect fill="#ebebeb" height="256" rx="16" transform="rotate(-46.45 170.988 246.71)" width="176" x="82.797" y="118.67"/><rect fill="#f2f2f2" height="256" rx="16" transform="rotate(-46.45 170.988 246.71)" width="176" x="82.797" y="118.67"/><path d="M150.165 105.736a15.873 15.873 0 0 0-8.958-4.219l-15.707 6.965-40 42.126 88.225 199.019a16 16 0 0 0 21.111 8.143l81.126-35.963 37.238-39.221a16 16 0 0 0-.587-22.619z" fill="#ebebeb"/><path d="M51.296 221.58l11.026-11.603L73.921 221l-11.027 11.603z" fill="#de4c3b"/><rect fill="#f2f2f2" height="256" rx="16" transform="rotate(-23.9 215.376 196.54)" width="176" x="127.216" y="68.427"/><path d="M114.502 127.305l14.622-6.479 6.479 14.622-14.622 6.48z" fill="#3e8cc7"/><path d="M341.055 263.154L250.276 58.373a15.9 15.9 0 0 0-10.664-8.946 15.9 15.9 0 0 0-2.447.8l-10.594 1.15L184 70.251V280a16 16 0 0 0 16 16h106.44l26.472-11.735a16 16 0 0 0 8.143-21.111z" fill="#ebebeb"/><rect fill="#f2f2f2" height="256" rx="16" width="176" x="192" y="32"/><path d="M275.2 142.685l-13.486-10.114a22.857 22.857 0 0 0-27.428 0 22.858 22.858 0 0 0-4.572 32 87.522 87.522 0 0 0 24.986 22.535l25.3 15.18 24.827-14.9a90.594 90.594 0 0 0 25.806-23.249 22.281 22.281 0 0 0-4.442-31.212l-.392-.294a22.9 22.9 0 0 0-27.529-.058c-4.814 3.614-9.909 7.437-13.492 10.125a7.965 7.965 0 0 1-9.578-.013zM216 56h16v16h-16zm112 192h16v16h-16zm-24.921 197.675c-2.188-1.484-8.093-2.5-8.158-2.563a56.036 56.036 0 0 1-12.613-65.822c1.159-2.379 4.96-3.4 6.488-5.655s.721-5.65 2.494-7.6a56 56 0 1 1 16.964 88.117c-2.389-1.163-2.911-4.942-5.175-6.477z" fill="#de4c3b"/><g fill="#f2f2f2"><circle cx="332.689" cy="401.755" r="24"/><path d="M286.337 370.331a56.607 56.607 0 0 0-4.02 6.964l32.383 21.932 8.985-13.25-32.385-21.936a56.49 56.49 0 0 0-4.963 6.29zm64.327 33.981l-8.922 13.282 32.378 21.749a50.573 50.573 0 0 0 8.943-13.267zm13.46-48.901l-.021-.014a56.391 56.391 0 0 0-6.93-4l-21.361 31.5 13.235 8.984 21.366-31.5a56.485 56.485 0 0 0-6.289-4.97zm-69.196 87.694a56.33 56.33 0 0 0 6.336 5 56.26 56.26 0 0 0 6.992 4.034l22.077-32.65-13.25-8.984z"/></g><path d="M392 392l.172 40" fill="none" stroke="#000" stroke-linejoin="round" stroke-width="2"/><path d="M380.424 392.6a56.012 56.012 0 0 1 71.106-17.877c2.358 1.193 2.705 4.89 4.933 6.45s6.259.93 8.186 2.736a56.037 56.037 0 0 1 11.671 66c-1.2 2.375-5.61 3.209-7.181 5.452-1.558 2.225-.222 5.787-2.027 7.713a56.037 56.037 0 0 1-65.907 11.726c-2.409-1.211-2.29-6.19-4.563-7.783-2.182-1.527-6.691.4-8.585-1.367a56.012 56.012 0 0 1-7.633-73.05z" fill="#fdb62f"/><circle cx="426.295" cy="424.724" fill="#f2f2f2" r="24"/><path d="M427.086 409.648l13.027 9.29 24.529-35.02a56.468 56.468 0 0 0-6.222-5.063 56.586 56.586 0 0 0-6.89-4.118zm-39.02 55.989a55.681 55.681 0 0 0 13.142 9.153l23.313-33.654L411.388 432zm84.099-8.79a56.386 56.386 0 0 0 4.146-6.943l-36.074-25.18L432 438.487l35.1 24.579a56.417 56.417 0 0 0 5.065-6.219zM380.424 392.6a56.128 56.128 0 0 0-4.067 6.916l31.858 22.311 10.5-12.18-33.18-23.236a55.952 55.952 0 0 0-5.111 6.189z" fill="#f2f2f2"/></svg>