<svg xmlns="http://www.w3.org/2000/svg" width="250pt" height="250pt" viewBox="0 0 250 250"><g stroke-width=".028"><path d="M61.902 64.887c.895-1.524 2.059-2.985 3.73-3.7.684-.117 1.372-.058 2.055-.058h33.754c-.98.836-1.937 1.7-2.593 2.832-1.727 2.832-2.891 5.992-3.965 9.156-3.043 9.54-5.16 19.352-7.215 29.16a707.947 707.947 0 0 0-2.656 13.36c-2.563 14.55-5.219 29.074-8.528 43.476-1.578 6.649-3.191 13.297-5.636 19.711-1.133 2.653-2.235 5.485-4.41 7.453-.508.45-1.016 1.016-1.731.926h-29.82c-2.028-.062-4.024.117-6.051-.09 1.34-1.043 2.535-2.297 3.309-3.789 2.238-4.262 3.636-8.887 4.98-13.476 2.086-7.395 3.758-14.88 5.336-22.364.984-4.922 2.148-9.812 2.863-14.761.805-5.516 2.028-10.973 3.012-16.461 1.55-8.078 3.191-16.16 5.008-24.18 1.465-6.266 2.953-12.496 4.953-18.61.984-2.952 2.055-5.874 3.605-8.585zm0 0" fill="#eb7077" stroke="#eb7077"/><path d="M101.441 61.129c.868 0 1.73-.031 2.598 0 1.906 1.012 3.516 2.625 4.41 4.621 1.196 2.266 2.18 4.652 3.074 7.098 2.98 9.214 5.008 18.695 7.036 28.148 1.73 8.469 3.37 16.965 4.921 25.496.118.445-.03 1.07.567 1.192-2.149 11.21-4.266 22.453-6.95 33.574-1.46 5.996-3.011 11.96-5.218 17.742-1.192 2.895-2.414 6.055-4.95 8.113-1.609.356-2.773-.867-3.757-1.968-1.7-2.176-2.742-4.743-3.758-7.305-3.367-9.184-5.426-18.758-7.512-28.3-1.582-7.423-2.984-14.907-4.445-22.364-.656-3.785-1.55-7.512-2.055-11.301-.09-.059-.3-.18-.39-.238a706.91 706.91 0 0 1 2.656-13.36c2.055-9.808 4.172-19.62 7.215-29.16 1.074-3.164 2.238-6.324 3.965-9.156.656-1.133 1.613-1.996 2.593-2.832zm0 0" fill="#f6a2ad" stroke="#f6a2ad"/><path d="M138.746 66.285c1.074-2.055 2.387-4.351 4.711-5.129 11.84-.058 23.676-.027 35.516-.027-1.106 1.101-2.266 2.207-3.012 3.61-2.297 4.113-3.637 8.675-5.012 13.179-3.515 12.402-5.992 25.074-8.347 37.75-2.176 12.492-4.504 24.988-7.157 37.422-1.37 6.262-2.804 12.492-4.62 18.664-1.165 3.82-2.388 7.664-4.298 11.215-.922 1.61-1.996 3.367-3.754 4.203-11.304.09-22.632 0-33.933.031-.63 0-1.285 0-1.91-.09 2.535-2.058 3.757-5.218 4.949-8.113 2.207-5.781 3.758-11.746 5.219-17.742 2.683-11.121 4.8-22.363 6.949-33.574 2.594-14.461 5.308-28.926 8.765-43.207 1.61-6.172 3.16-12.434 5.934-18.192zm0 0" fill="#eb7077" stroke="#eb7077"/><path d="M178.973 61.129c.953 0 1.937-.031 2.89 0 1.551.805 2.657 2.176 3.64 3.578 1.61 2.563 2.622 5.457 3.665 8.29 2.477 7.605 4.324 15.417 6.023 23.23 2.27 10.523 4.235 21.109 6.176 31.695.477 2.535.953 5.098 1.25 7.664.121.117.36.36.45.445-1.075 1.492-1.493 3.281-2.09 4.98-1.88 6.055-3.102 12.317-4.145 18.548-.805 4.89-1.906 9.753-3.43 14.464-1.132 3.489-2.504 6.946-4.77 9.868-1.073 1.402-2.534 2.476-4.144 3.191-2.476.27-3.937-2.117-5.129-3.875-2.476-4.324-3.816-9.156-5.246-13.867-4.715-17.445-7.785-35.305-11.093-53.047a.782.782 0 0 0-.418-.625c2.355-12.676 4.832-25.348 8.347-37.75 1.375-4.504 2.715-9.066 5.012-13.18.746-1.402 1.906-2.508 3.012-3.61zM.926 128.965c.773-.059 1.55-.18 2.355-.18h32.5c1.371.18 2.805.063 4.117.656a11.765 11.765 0 0 1 4.86 3.73c.148-.089.418-.327.566-.448-.715 4.949-1.879 9.84-2.863 14.761-1.578 7.485-3.25 14.97-5.336 22.364-1.344 4.59-2.742 9.214-4.98 13.476-.774 1.492-1.97 2.746-3.31 3.79-.507.09-.894-.27-1.312-.54-1.402-.894-2.207-2.445-3.07-3.844-4.086-9.304-4.535-19.593-7.07-29.312-1.281-4.86-2.86-9.691-5.188-14.164-1.43-2.684-3.191-5.25-5.484-7.305-1.703-1.375-3.668-2.476-5.785-2.984zm0 0" fill="#f6a2ad" stroke="#f6a2ad"/><path d="M205.687 132.066c1.88-2.117 4.684-3.457 7.516-3.34h24.453c3.399.06 6.828-.117 10.227.09-1.016.688-2.238.954-3.309 1.52-3.73 1.703-6.918 4.535-8.945 8.082-3.25 5.664-4.387 12.168-5.34 18.547-.953 6.262-.922 12.734-2.953 18.816-1.371 4.266-3.457 8.559-7.066 11.36-11.211.12-22.422.03-33.606.062-.746 0-1.46.027-2.176-.121 1.61-.715 3.07-1.789 4.145-3.191 2.265-2.922 3.637-6.38 4.77-9.868 1.523-4.71 2.624-9.574 3.429-14.464 1.043-6.23 2.266-12.493 4.145-18.547.597-1.7 1.015-3.489 2.09-4.98.894-1.31 1.488-2.833 2.62-3.966zm0 0" fill="#eb7077" stroke="#eb7077"/></g></svg>