<svg xmlns="http://www.w3.org/2000/svg" viewBox="0 0 490 490" width="512" height="512"><g fill="#FFF"><path d="M454.05 150.8l-154-145.6c-3.1-3.1-8.3-5.2-13.5-5.2H50.45c-11.4 0-20.8 9.4-20.8 20.8v448.4c0 11.4 9.4 20.8 20.8 20.8h389.1c11.4 0 20.8-9.4 20.8-21.8V165.4c0-5.2-2.1-10.4-6.3-14.6zm-147.7-82.5l82.7 78.4h-82.7V68.3zm113.4 381.1H70.15V41.6h195.6v124.8c0 11.4 9.4 20.8 20.8 20.8h133.2v262.2z"/><path d="M301.85 302.3c-12.3 0-22.4-10-22.4-22.4s10-22.4 22.4-22.4c6.2 0 12 2.5 16.3 7.1 5.7 6 15.1 6.3 21.1.6 6-5.7 6.3-15.1.6-21.1-9.8-10.5-23.7-16.5-38.1-16.5-28.8 0-52.3 23.5-52.3 52.3s23.5 52.3 52.3 52.3c12.3 0 22.4 10 22.4 22.4s-10 22.4-22.4 22.4c-6.2 0-12-2.5-16.3-7.1-5.7-6-15.1-6.3-21.1-.6-6 5.7-6.3 15.1-.6 21.1 9.8 10.5 23.7 16.5 38.1 16.5 28.8 0 52.3-23.5 52.3-52.3s-23.4-52.3-52.3-52.3zm-88.8-74.7c-8.3 0-15 6.7-15 15v118.2c0 9-7.3 16.2-16.2 16.2-9 0-16.2-7.3-16.2-16.2v-11.3c0-8.3-6.7-15-15-15s-15 6.7-15 15v11.3c0 25.4 20.7 46.1 46.1 46.1s46.1-20.7 46.1-46.1V242.6c.2-8.3-6.5-15-14.8-15z"/></g></svg>