<svg xmlns="http://www.w3.org/2000/svg" width="512" height="512"><g fill="#FFF"><path d="M187.733 281.6v-17.067c0-4.702-3.831-8.533-8.533-8.533h-25.6v34.133h25.6c4.702 0 8.533-3.831 8.533-8.533zM486.4 0H25.6C11.486 0 0 11.486 0 25.6v42.667h512V25.6C512 11.486 500.514 0 486.4 0zM42.667 51.2a8.536 8.536 0 0 1-8.533-8.533 8.536 8.536 0 0 1 8.533-8.533 8.536 8.536 0 0 1 8.533 8.533 8.536 8.536 0 0 1-8.533 8.533zm34.133 0a8.536 8.536 0 0 1-8.533-8.533c0-4.71 3.823-8.533 8.533-8.533s8.533 3.823 8.533 8.533A8.536 8.536 0 0 1 76.8 51.2zm34.133 0a8.536 8.536 0 0 1-8.533-8.533c0-4.71 3.823-8.533 8.533-8.533s8.533 3.823 8.533 8.533c.001 4.71-3.822 8.533-8.533 8.533zM358.4 281.6v-17.067c0-4.702-3.831-8.533-8.533-8.533h-25.6v34.133h25.6c4.702 0 8.533-3.831 8.533-8.533z"/><path d="M0 486.4C0 500.514 11.486 512 25.6 512h460.8c14.114 0 25.6-11.486 25.6-25.6V85.333H0V486.4zm384-290.133c18.859 0 34.202 15.309 34.202 34.133l-.06 30.601 23.091 23.1a8.523 8.523 0 0 1 0 12.066l-23.1 23.1v30.601C418.133 368.691 402.825 384 384 384c-4.71 0-8.533-3.823-8.533-8.533s3.823-8.533 8.533-8.533c9.412 0 17.067-7.654 17.067-17.067v-34.133c0-2.261.896-4.437 2.5-6.033l19.567-19.567-19.567-19.567a8.513 8.513 0 0 1-2.5-6.05l.068-34.133c0-9.395-7.689-17.05-17.135-17.05a8.536 8.536 0 0 1-8.533-8.533c0-4.711 3.823-8.534 8.533-8.534zm-76.8 102.4v-51.2a8.536 8.536 0 0 1 8.533-8.533h34.133c14.114 0 25.6 11.486 25.6 25.6V281.6c0 14.114-11.486 25.6-25.6 25.6h-25.6v42.667c0 4.71-3.823 8.533-8.533 8.533s-8.533-3.823-8.533-8.533v-51.2zm-85.333-51.2c0-4.71 3.823-8.533 8.533-8.533s8.533 3.823 8.533 8.533v42.667h25.6c14.114 0 25.6 11.486 25.6 25.6v34.133c0 4.71-3.823 8.533-8.533 8.533s-8.533-3.823-8.533-8.533v-34.133c0-4.702-3.831-8.533-8.533-8.533h-25.6v42.667c0 4.71-3.823 8.533-8.533 8.533s-8.533-3.823-8.533-8.533V247.467zm-76.8-8.534H179.2c14.114 0 25.6 11.486 25.6 25.6V281.6c0 14.114-11.486 25.6-25.6 25.6h-25.6v42.667a8.536 8.536 0 0 1-8.533 8.533 8.536 8.536 0 0 1-8.533-8.533v-102.4c-.001-4.711 3.822-8.534 8.533-8.534zm-74.3 45.167l23.1-23.1v-30.6c0-18.825 15.309-34.133 34.133-34.133a8.536 8.536 0 0 1 8.533 8.533 8.536 8.536 0 0 1-8.533 8.533c-9.412 0-17.067 7.654-17.067 17.067v34.133a8.564 8.564 0 0 1-2.5 6.033l-19.567 19.567 19.567 19.567a8.546 8.546 0 0 1 2.5 6.033v34.133c0 9.412 7.654 17.067 17.067 17.067 4.71 0 8.533 3.823 8.533 8.533S132.71 384 128 384c-18.825 0-34.133-15.309-34.133-34.133v-30.601l-23.1-23.1a8.523 8.523 0 0 1 0-12.066z"/></g></svg>