<?xml version="1.0" encoding="UTF-8"?>
<svg xmlns="http://www.w3.org/2000/svg" xmlns:xlink="http://www.w3.org/1999/xlink" width="100pt" height="13pt" viewBox="0 0 100 13" version="1.1">
<defs>
<clipPath id="clip1">
  <path d="M 86 0 L 91 0 L 91 4 L 86 4 Z M 86 0 "/>
</clipPath>
<clipPath id="clip2">
  <path d="M 87.597656 3.796875 L 89.546875 3.796875 C 89.898438 3.796875 90.1875 3.527344 90.1875 3.203125 L 90.1875 1.390625 C 90.1875 1.0625 89.898438 0.792969 89.546875 0.792969 L 87.597656 0.792969 C 87.246094 0.792969 86.957031 1.0625 86.957031 1.390625 L 86.957031 3.203125 C 86.957031 3.527344 87.246094 3.796875 87.597656 3.796875 M 87.222656 1.390625 C 87.222656 1.195312 87.390625 1.039062 87.597656 1.039062 L 89.546875 1.039062 C 89.753906 1.039062 89.917969 1.195312 89.917969 1.390625 L 89.917969 3.203125 C 89.917969 3.390625 89.753906 3.550781 89.546875 3.550781 L 87.597656 3.550781 C 87.390625 3.550781 87.222656 3.390625 87.222656 3.203125 Z M 87.222656 1.390625 "/>
</clipPath>
<linearGradient id="linear0" gradientUnits="userSpaceOnUse" x1="0.72532" y1="0.314927" x2="0.338445" y2="0.632721" gradientTransform="matrix(6.394531,0,0,5.953125,85.375,-0.679688)">
<stop offset="0" style="stop-color:rgb(5.098039%,69.411765%,29.411765%);stop-opacity:1;"/>
<stop offset="0.0052" style="stop-color:rgb(5.098039%,69.411765%,29.411765%);stop-opacity:1;"/>
<stop offset="0.3784" style="stop-color:rgb(70.588235%,83.921569%,43.921569%);stop-opacity:1;"/>
<stop offset="0.4463" style="stop-color:rgb(68.235294%,81.960784%,41.960784%);stop-opacity:1;"/>
<stop offset="0.5181" style="stop-color:rgb(63.137255%,78.431373%,36.862745%);stop-opacity:1;"/>
<stop offset="0.5915" style="stop-color:rgb(55.294118%,72.941176%,29.411765%);stop-opacity:1;"/>
<stop offset="0.6495" style="stop-color:rgb(47.45098%,67.843137%,23.137255%);stop-opacity:1;"/>
<stop offset="0.7284" style="stop-color:rgb(46.27451%,66.27451%,23.529412%);stop-opacity:1;"/>
<stop offset="0.818" style="stop-color:rgb(41.960784%,62.745098%,24.705882%);stop-opacity:1;"/>
<stop offset="0.9123" style="stop-color:rgb(34.901961%,57.647059%,26.666667%);stop-opacity:1;"/>
<stop offset="1" style="stop-color:rgb(24.705882%,51.372549%,28.235294%);stop-opacity:1;"/>
</linearGradient>
<clipPath id="clip3">
  <path d="M 87 0 L 99 0 L 99 12 L 87 12 Z M 87 0 "/>
</clipPath>
<clipPath id="clip4">
  <path d="M 96.464844 0.78125 L 92.453125 0.78125 C 92.101562 0.78125 91.816406 1.046875 91.816406 1.378906 L 91.816406 3.253906 C 91.816406 3.496094 91.984375 3.746094 92.453125 3.746094 L 94.9375 3.746094 C 95.160156 3.757812 95.351562 3.9375 95.351562 4.15625 L 95.351562 8.355469 C 95.351562 8.585938 95.152344 8.769531 94.910156 8.769531 L 90.660156 8.769531 C 90.417969 8.769531 90.222656 8.589844 90.21875 8.367188 L 90.21875 5.960938 C 90.21875 5.636719 89.933594 5.371094 89.582031 5.371094 L 87.640625 5.371094 C 87.289062 5.371094 87 5.636719 87 5.960938 L 87 9.804688 C 87 10.707031 87.792969 11.441406 88.761719 11.441406 L 96.464844 11.441406 C 97.433594 11.441406 98.21875 10.707031 98.21875 9.804688 L 98.21875 2.421875 C 98.21875 1.519531 97.433594 0.78125 96.464844 0.78125 M 97.957031 9.804688 C 97.957031 10.570312 97.285156 11.195312 96.464844 11.195312 L 88.761719 11.195312 C 87.941406 11.195312 87.269531 10.570312 87.269531 9.804688 L 87.269531 5.960938 C 87.269531 5.777344 87.433594 5.613281 87.640625 5.613281 L 89.582031 5.613281 C 89.789062 5.613281 89.957031 5.777344 89.957031 5.960938 L 89.957031 8.371094 C 89.960938 8.726562 90.277344 9.015625 90.660156 9.015625 L 94.910156 9.015625 C 95.296875 9.015625 95.613281 8.722656 95.613281 8.355469 L 95.613281 4.15625 C 95.613281 3.804688 95.3125 3.511719 94.9375 3.503906 L 92.453125 3.503906 C 92.25 3.503906 92.082031 3.449219 92.082031 3.253906 L 92.082031 1.378906 C 92.082031 1.183594 92.25 1.03125 92.453125 1.03125 L 96.464844 1.03125 C 97.285156 1.03125 97.957031 1.652344 97.957031 2.421875 Z M 97.957031 9.804688 "/>
</clipPath>
<linearGradient id="linear1" gradientUnits="userSpaceOnUse" x1="0.319575" y1="0.708859" x2="0.656328" y2="0.31929" gradientTransform="matrix(22.554688,0,0,20.984375,81.332031,-4.378906)">
<stop offset="0" style="stop-color:rgb(38.823529%,57.254902%,24.705882%);stop-opacity:1;"/>
<stop offset="0.1634" style="stop-color:rgb(53.72549%,70.196078%,23.529412%);stop-opacity:1;"/>
<stop offset="0.3416" style="stop-color:rgb(22.745098%,50.196078%,25.098039%);stop-opacity:1;"/>
<stop offset="0.5545" style="stop-color:rgb(82.745098%,87.45098%,61.960784%);stop-opacity:1;"/>
<stop offset="0.5742" style="stop-color:rgb(80.392157%,85.490196%,59.215686%);stop-opacity:1;"/>
<stop offset="0.6083" style="stop-color:rgb(73.333333%,80%,50.980392%);stop-opacity:1;"/>
<stop offset="0.6527" style="stop-color:rgb(61.960784%,72.156863%,38.039216%);stop-opacity:1;"/>
<stop offset="0.698" style="stop-color:rgb(49.411765%,64.313725%,25.490196%);stop-opacity:1;"/>
<stop offset="1" style="stop-color:rgb(25.490196%,49.803922%,26.27451%);stop-opacity:1;"/>
</linearGradient>
<clipPath id="clip5">
  <path d="M 87 1 L 90 1 L 90 4 L 87 4 Z M 87 1 "/>
</clipPath>
<clipPath id="clip6">
  <path d="M 87.597656 3.550781 L 89.546875 3.550781 C 89.753906 3.550781 89.917969 3.390625 89.917969 3.203125 L 89.917969 1.390625 C 89.917969 1.195312 89.753906 1.039062 89.546875 1.039062 L 87.597656 1.039062 C 87.390625 1.039062 87.222656 1.195312 87.222656 1.390625 L 87.222656 3.203125 C 87.222656 3.390625 87.390625 3.550781 87.597656 3.550781 M 87.488281 1.390625 C 87.488281 1.332031 87.539062 1.285156 87.597656 1.285156 L 89.546875 1.285156 C 89.609375 1.285156 89.65625 1.332031 89.65625 1.390625 L 89.65625 3.203125 C 89.65625 3.257812 89.609375 3.308594 89.546875 3.308594 L 87.597656 3.308594 C 87.539062 3.308594 87.488281 3.257812 87.488281 3.203125 Z M 87.488281 1.390625 "/>
</clipPath>
<linearGradient id="linear2" gradientUnits="userSpaceOnUse" x1="0.196308" y1="0.238274" x2="2.358685" y2="2.056639" gradientTransform="matrix(5.359375,0,0,4.988281,85.890625,-0.199219)">
<stop offset="0" style="stop-color:rgb(5.098039%,69.411765%,29.411765%);stop-opacity:1;"/>
<stop offset="0.0052" style="stop-color:rgb(5.098039%,69.411765%,29.411765%);stop-opacity:1;"/>
<stop offset="0.3784" style="stop-color:rgb(70.588235%,83.921569%,43.921569%);stop-opacity:1;"/>
<stop offset="0.4463" style="stop-color:rgb(68.235294%,81.960784%,41.960784%);stop-opacity:1;"/>
<stop offset="0.5181" style="stop-color:rgb(63.137255%,78.431373%,36.862745%);stop-opacity:1;"/>
<stop offset="0.5915" style="stop-color:rgb(55.294118%,72.941176%,29.411765%);stop-opacity:1;"/>
<stop offset="0.6495" style="stop-color:rgb(47.45098%,67.843137%,23.137255%);stop-opacity:1;"/>
<stop offset="0.713" style="stop-color:rgb(45.882353%,66.27451%,23.137255%);stop-opacity:1;"/>
<stop offset="0.785" style="stop-color:rgb(41.176471%,62.352941%,24.313725%);stop-opacity:1;"/>
<stop offset="0.8612" style="stop-color:rgb(33.333333%,57.254902%,25.490196%);stop-opacity:1;"/>
<stop offset="0.9398" style="stop-color:rgb(20.392157%,50.588235%,26.666667%);stop-opacity:1;"/>
<stop offset="1" style="stop-color:rgb(0%,45.098039%,27.058824%);stop-opacity:1;"/>
</linearGradient>
<clipPath id="clip7">
  <path d="M 87 1 L 98 1 L 98 11 L 87 11 Z M 87 1 "/>
</clipPath>
<clipPath id="clip8">
  <path d="M 96.464844 1.277344 L 92.453125 1.277344 C 92.390625 1.277344 92.34375 1.320312 92.34375 1.378906 L 92.324219 3.242188 L 92.453125 3.257812 L 94.945312 3.257812 C 95.46875 3.273438 95.878906 3.667969 95.878906 4.15625 L 95.878906 8.355469 C 95.878906 8.855469 95.449219 9.261719 94.910156 9.261719 L 90.660156 9.261719 C 90.136719 9.261719 89.703125 8.863281 89.691406 8.371094 L 89.691406 5.960938 C 89.691406 5.910156 89.640625 5.863281 89.582031 5.863281 L 87.640625 5.863281 C 87.578125 5.863281 87.53125 5.910156 87.53125 5.960938 L 87.53125 9.804688 C 87.53125 10.441406 88.082031 10.953125 88.761719 10.953125 L 96.464844 10.953125 C 97.140625 10.953125 97.695312 10.441406 97.695312 9.804688 L 97.695312 2.421875 C 97.695312 1.785156 97.140625 1.277344 96.464844 1.277344 "/>
</clipPath>
<linearGradient id="linear3" gradientUnits="userSpaceOnUse" x1="0.204484" y1="0.251495" x2="0.773375" y2="0.729789" gradientTransform="matrix(20.410156,0,0,18.992188,82.40625,-3.382812)">
<stop offset="0" style="stop-color:rgb(5.098039%,69.411765%,29.411765%);stop-opacity:1;"/>
<stop offset="0.0052" style="stop-color:rgb(5.098039%,69.411765%,29.411765%);stop-opacity:1;"/>
<stop offset="0.3784" style="stop-color:rgb(70.588235%,83.921569%,43.921569%);stop-opacity:1;"/>
<stop offset="0.4463" style="stop-color:rgb(68.235294%,81.960784%,41.960784%);stop-opacity:1;"/>
<stop offset="0.5181" style="stop-color:rgb(63.137255%,78.431373%,36.862745%);stop-opacity:1;"/>
<stop offset="0.5915" style="stop-color:rgb(55.294118%,72.941176%,29.411765%);stop-opacity:1;"/>
<stop offset="0.6495" style="stop-color:rgb(47.45098%,67.843137%,23.137255%);stop-opacity:1;"/>
<stop offset="0.713" style="stop-color:rgb(45.882353%,66.27451%,23.137255%);stop-opacity:1;"/>
<stop offset="0.785" style="stop-color:rgb(41.176471%,62.352941%,24.313725%);stop-opacity:1;"/>
<stop offset="0.8612" style="stop-color:rgb(33.333333%,57.254902%,25.490196%);stop-opacity:1;"/>
<stop offset="0.9398" style="stop-color:rgb(20.392157%,50.588235%,26.666667%);stop-opacity:1;"/>
<stop offset="1" style="stop-color:rgb(0%,45.098039%,27.058824%);stop-opacity:1;"/>
</linearGradient>
<clipPath id="clip9">
  <path d="M 87 1 L 90 1 L 90 4 L 87 4 Z M 87 1 "/>
</clipPath>
<clipPath id="clip10">
  <path d="M 87.597656 3.308594 L 89.546875 3.308594 C 89.609375 3.308594 89.65625 3.257812 89.65625 3.203125 L 89.65625 1.390625 C 89.65625 1.332031 89.609375 1.285156 89.546875 1.285156 L 87.597656 1.285156 C 87.539062 1.285156 87.488281 1.332031 87.488281 1.390625 L 87.488281 3.203125 C 87.488281 3.257812 87.539062 3.308594 87.597656 3.308594 "/>
</clipPath>
<linearGradient id="linear4" gradientUnits="userSpaceOnUse" x1="0.117502" y1="0.177202" x2="2.807799" y2="2.439342" gradientTransform="matrix(4.3125,0,0,4.015625,86.417969,0.289062)">
<stop offset="0" style="stop-color:rgb(5.098039%,69.411765%,29.411765%);stop-opacity:1;"/>
<stop offset="0.0052" style="stop-color:rgb(5.098039%,69.411765%,29.411765%);stop-opacity:1;"/>
<stop offset="0.3784" style="stop-color:rgb(70.588235%,83.921569%,43.921569%);stop-opacity:1;"/>
<stop offset="0.4463" style="stop-color:rgb(68.235294%,81.960784%,41.960784%);stop-opacity:1;"/>
<stop offset="0.5181" style="stop-color:rgb(63.137255%,78.431373%,36.862745%);stop-opacity:1;"/>
<stop offset="0.5915" style="stop-color:rgb(55.294118%,72.941176%,29.411765%);stop-opacity:1;"/>
<stop offset="0.6495" style="stop-color:rgb(47.45098%,67.843137%,23.137255%);stop-opacity:1;"/>
<stop offset="0.713" style="stop-color:rgb(45.882353%,66.27451%,23.137255%);stop-opacity:1;"/>
<stop offset="0.785" style="stop-color:rgb(41.176471%,62.352941%,24.313725%);stop-opacity:1;"/>
<stop offset="0.8612" style="stop-color:rgb(33.333333%,57.254902%,25.490196%);stop-opacity:1;"/>
<stop offset="0.9398" style="stop-color:rgb(20.392157%,50.588235%,26.666667%);stop-opacity:1;"/>
<stop offset="1" style="stop-color:rgb(0%,45.098039%,27.058824%);stop-opacity:1;"/>
</linearGradient>
</defs>
<g id="surface1">
<path style=" stroke:none;fill-rule:nonzero;fill:rgb(81.960784%,82.745098%,83.137255%);fill-opacity:1;" d="M 88.503906 4.640625 L 90.457031 4.640625 C 90.804688 4.640625 91.09375 4.371094 91.09375 4.042969 L 91.09375 2.230469 C 91.09375 1.902344 90.804688 1.640625 90.457031 1.640625 L 88.503906 1.640625 C 88.152344 1.640625 87.867188 1.902344 87.867188 2.230469 L 87.867188 4.042969 C 87.867188 4.371094 88.152344 4.640625 88.503906 4.640625 M 97.367188 1.625 L 93.359375 1.625 C 93.007812 1.625 92.722656 1.894531 92.722656 2.21875 L 92.722656 4.097656 C 92.722656 4.339844 92.886719 4.59375 93.359375 4.59375 L 95.84375 4.59375 C 96.066406 4.597656 96.257812 4.78125 96.257812 5 L 96.257812 9.203125 C 96.257812 9.429688 96.0625 9.613281 95.820312 9.613281 L 91.566406 9.613281 C 91.332031 9.613281 91.132812 9.429688 91.128906 9.207031 L 91.128906 6.804688 C 91.128906 6.480469 90.839844 6.214844 90.488281 6.214844 L 88.546875 6.214844 C 88.191406 6.214844 87.910156 6.480469 87.910156 6.804688 L 87.910156 10.648438 C 87.910156 11.550781 88.695312 12.285156 89.671875 12.285156 L 97.367188 12.285156 C 98.335938 12.285156 99.128906 11.550781 99.128906 10.648438 L 99.128906 3.265625 C 99.128906 2.363281 98.335938 1.625 97.367188 1.625 "/>
<g clip-path="url(#clip1)" clip-rule="nonzero">
<g clip-path="url(#clip2)" clip-rule="nonzero">
<path style=" stroke:none;fill-rule:nonzero;fill:url(#linear0);" d="M 88.257812 5.273438 L 85.375 2.003906 L 88.886719 -0.679688 L 91.769531 2.589844 Z M 88.257812 5.273438 "/>
</g>
</g>
<g clip-path="url(#clip3)" clip-rule="nonzero">
<g clip-path="url(#clip4)" clip-rule="nonzero">
<path style=" stroke:none;fill-rule:nonzero;fill:url(#linear1);" d="M 91.796875 -4.378906 L 103.886719 5.339844 L 93.421875 16.605469 L 81.332031 6.882812 Z M 91.796875 -4.378906 "/>
</g>
</g>
<g clip-path="url(#clip5)" clip-rule="nonzero">
<g clip-path="url(#clip6)" clip-rule="nonzero">
<path style=" stroke:none;fill-rule:nonzero;fill:url(#linear2);" d="M 91.25 2.078125 L 88.800781 4.789062 L 85.890625 2.511719 L 88.339844 -0.199219 Z M 91.25 2.078125 "/>
</g>
</g>
<g clip-path="url(#clip7)" clip-rule="nonzero">
<g clip-path="url(#clip8)" clip-rule="nonzero">
<path style=" stroke:none;fill-rule:nonzero;fill:url(#linear3);" d="M 102.816406 5.285156 L 93.484375 15.609375 L 82.40625 6.945312 L 91.738281 -3.382812 Z M 102.816406 5.285156 "/>
</g>
</g>
<g clip-path="url(#clip9)" clip-rule="nonzero">
<g clip-path="url(#clip10)" clip-rule="nonzero">
<path style=" stroke:none;fill-rule:nonzero;fill:url(#linear4);" d="M 90.730469 2.125 L 88.757812 4.304688 L 86.417969 2.46875 L 88.386719 0.289062 Z M 90.730469 2.125 "/>
</g>
</g>
<path style=" stroke:none;fill-rule:nonzero;fill:rgb(100%,100%,100%);fill-opacity:1;" d="M 1.761719 3.976562 L 1.761719 6.359375 L 2.921875 6.359375 C 3.351562 6.359375 3.683594 6.257812 3.917969 6.050781 C 4.152344 5.84375 4.269531 5.550781 4.269531 5.167969 C 4.269531 4.789062 4.152344 4.496094 3.917969 4.289062 C 3.683594 4.082031 3.351562 3.976562 2.921875 3.976562 Z M 0.839844 3.273438 L 2.921875 3.273438 C 3.6875 3.273438 4.261719 3.433594 4.652344 3.757812 C 5.042969 4.078125 5.238281 4.546875 5.238281 5.167969 C 5.238281 5.792969 5.042969 6.265625 4.652344 6.585938 C 4.261719 6.90625 3.6875 7.0625 2.921875 7.0625 L 1.761719 7.0625 L 1.761719 9.609375 L 0.839844 9.609375 Z M 0.839844 3.273438 "/>
<path style=" stroke:none;fill-rule:nonzero;fill:rgb(100%,100%,100%);fill-opacity:1;" d="M 10.535156 6.597656 L 10.535156 9.46875 L 9.699219 9.46875 L 9.699219 6.625 C 9.699219 6.171875 9.601562 5.835938 9.414062 5.613281 C 9.226562 5.390625 8.941406 5.277344 8.566406 5.277344 C 8.113281 5.277344 7.753906 5.410156 7.492188 5.679688 C 7.234375 5.949219 7.101562 6.316406 7.101562 6.78125 L 7.101562 9.46875 L 6.257812 9.46875 L 6.257812 2.863281 L 7.101562 2.863281 L 7.101562 5.453125 C 7.300781 5.164062 7.539062 4.953125 7.808594 4.8125 C 8.082031 4.667969 8.398438 4.597656 8.753906 4.597656 C 9.339844 4.597656 9.785156 4.769531 10.085938 5.109375 C 10.386719 5.445312 10.535156 5.941406 10.535156 6.597656 Z M 10.535156 6.597656 "/>
<path style=" stroke:none;fill-rule:nonzero;fill:rgb(100%,100%,100%);fill-opacity:1;" d="M 13.03125 8.753906 L 13.03125 11.273438 L 12.1875 11.273438 L 12.1875 4.714844 L 13.03125 4.714844 L 13.03125 5.433594 C 13.210938 5.152344 13.429688 4.941406 13.699219 4.804688 C 13.96875 4.667969 14.292969 4.597656 14.664062 4.597656 C 15.285156 4.597656 15.789062 4.828125 16.175781 5.285156 C 16.566406 5.746094 16.761719 6.347656 16.761719 7.09375 C 16.761719 7.839844 16.566406 8.445312 16.175781 8.902344 C 15.789062 9.359375 15.285156 9.589844 14.664062 9.589844 C 14.292969 9.589844 13.96875 9.523438 13.699219 9.386719 C 13.429688 9.246094 13.210938 9.035156 13.03125 8.753906 Z M 15.886719 7.09375 C 15.886719 6.519531 15.761719 6.070312 15.503906 5.746094 C 15.253906 5.417969 14.90625 5.253906 14.460938 5.253906 C 14.015625 5.253906 13.667969 5.417969 13.410156 5.746094 C 13.160156 6.070312 13.03125 6.519531 13.03125 7.09375 C 13.03125 7.667969 13.160156 8.121094 13.410156 8.449219 C 13.667969 8.773438 14.015625 8.9375 14.460938 8.9375 C 14.90625 8.9375 15.253906 8.773438 15.503906 8.449219 C 15.761719 8.121094 15.886719 7.667969 15.886719 7.09375 Z M 15.886719 7.09375 "/>
<path style=" stroke:none;fill-rule:nonzero;fill:rgb(100%,100%,100%);fill-opacity:1;" d="M 22.867188 3.328125 L 22.867188 4.671875 C 22.496094 4.515625 22.128906 4.398438 21.773438 4.320312 C 21.417969 4.238281 21.082031 4.199219 20.765625 4.199219 C 20.347656 4.199219 20.035156 4.253906 19.835938 4.359375 C 19.632812 4.46875 19.535156 4.636719 19.535156 4.863281 C 19.535156 5.03125 19.601562 5.164062 19.734375 5.261719 C 19.871094 5.355469 20.117188 5.433594 20.472656 5.503906 L 21.222656 5.644531 C 21.980469 5.785156 22.515625 6 22.835938 6.289062 C 23.15625 6.578125 23.316406 6.988281 23.316406 7.519531 C 23.316406 8.21875 23.09375 8.738281 22.644531 9.082031 C 22.203125 9.421875 21.519531 9.589844 20.605469 9.589844 C 20.175781 9.589844 19.742188 9.550781 19.304688 9.476562 C 18.871094 9.398438 18.4375 9.285156 18 9.136719 L 18 7.757812 C 18.4375 7.972656 18.855469 8.132812 19.261719 8.246094 C 19.667969 8.351562 20.058594 8.40625 20.4375 8.40625 C 20.820312 8.40625 21.113281 8.347656 21.316406 8.226562 C 21.519531 8.109375 21.625 7.9375 21.625 7.71875 C 21.625 7.519531 21.554688 7.367188 21.414062 7.261719 C 21.277344 7.152344 21 7.054688 20.585938 6.972656 L 19.90625 6.832031 C 19.226562 6.695312 18.726562 6.480469 18.410156 6.183594 C 18.097656 5.882812 17.941406 5.484375 17.941406 4.980469 C 17.941406 4.347656 18.160156 3.863281 18.597656 3.523438 C 19.035156 3.183594 19.667969 3.015625 20.488281 3.015625 C 20.863281 3.015625 21.246094 3.042969 21.640625 3.097656 C 22.035156 3.148438 22.445312 3.226562 22.867188 3.328125 Z M 22.867188 3.328125 "/>
<path style=" stroke:none;fill-rule:nonzero;fill:rgb(100%,100%,100%);fill-opacity:1;" d="M 26.421875 8.78125 L 26.421875 11.273438 L 24.789062 11.273438 L 24.789062 4.714844 L 26.421875 4.714844 L 26.421875 5.410156 C 26.648438 5.132812 26.898438 4.929688 27.171875 4.796875 C 27.445312 4.664062 27.757812 4.597656 28.117188 4.597656 C 28.746094 4.597656 29.261719 4.832031 29.667969 5.300781 C 30.070312 5.761719 30.273438 6.363281 30.273438 7.09375 C 30.273438 7.828125 30.070312 8.425781 29.667969 8.894531 C 29.261719 9.359375 28.746094 9.589844 28.117188 9.589844 C 27.757812 9.589844 27.445312 9.523438 27.171875 9.394531 C 26.898438 9.261719 26.648438 9.058594 26.421875 8.78125 Z M 27.507812 5.703125 C 27.160156 5.703125 26.890625 5.824219 26.699219 6.0625 C 26.515625 6.300781 26.421875 6.644531 26.421875 7.09375 C 26.421875 7.542969 26.515625 7.890625 26.699219 8.128906 C 26.890625 8.367188 27.160156 8.488281 27.507812 8.488281 C 27.859375 8.488281 28.125 8.367188 28.308594 8.128906 C 28.492188 7.890625 28.585938 7.546875 28.585938 7.09375 C 28.585938 6.640625 28.492188 6.296875 28.308594 6.058594 C 28.125 5.820312 27.859375 5.703125 27.507812 5.703125 Z M 27.507812 5.703125 "/>
<path style=" stroke:none;fill-rule:nonzero;fill:rgb(100%,100%,100%);fill-opacity:1;" d="M 35.359375 6.078125 C 35.21875 6.015625 35.074219 5.972656 34.929688 5.945312 C 34.792969 5.914062 34.648438 5.898438 34.507812 5.898438 C 34.085938 5.898438 33.761719 6.023438 33.535156 6.273438 C 33.308594 6.523438 33.199219 6.882812 33.199219 7.347656 L 33.199219 9.539062 L 31.5625 9.539062 L 31.5625 4.785156 L 33.199219 4.785156 L 33.199219 5.566406 C 33.40625 5.253906 33.648438 5.027344 33.917969 4.886719 C 34.191406 4.742188 34.519531 4.671875 34.898438 4.671875 C 34.953125 4.671875 35.011719 4.671875 35.078125 4.679688 C 35.140625 4.683594 35.234375 4.691406 35.355469 4.703125 Z M 35.359375 6.078125 "/>
<path style=" stroke:none;fill-rule:nonzero;fill:rgb(100%,100%,100%);fill-opacity:1;" d="M 41.28125 7.148438 L 41.28125 7.582031 L 37.464844 7.582031 C 37.503906 7.9375 37.640625 8.207031 37.878906 8.382812 C 38.117188 8.5625 38.445312 8.652344 38.871094 8.652344 C 39.214844 8.652344 39.566406 8.605469 39.925781 8.511719 C 40.289062 8.414062 40.660156 8.269531 41.039062 8.078125 L 41.039062 9.25 C 40.652344 9.386719 40.265625 9.488281 39.882812 9.554688 C 39.496094 9.625 39.109375 9.660156 38.722656 9.660156 C 37.796875 9.660156 37.078125 9.445312 36.566406 9.007812 C 36.054688 8.570312 35.796875 7.957031 35.796875 7.167969 C 35.796875 6.390625 36.050781 5.78125 36.550781 5.335938 C 37.054688 4.894531 37.75 4.671875 38.632812 4.671875 C 39.433594 4.671875 40.074219 4.894531 40.554688 5.34375 C 41.039062 5.796875 41.28125 6.398438 41.28125 7.148438 Z M 39.601562 6.644531 C 39.601562 6.355469 39.511719 6.125 39.328125 5.949219 C 39.148438 5.769531 38.914062 5.679688 38.621094 5.679688 C 38.304688 5.679688 38.046875 5.765625 37.851562 5.929688 C 37.652344 6.09375 37.53125 6.332031 37.480469 6.644531 Z M 39.601562 6.644531 "/>
<path style=" stroke:none;fill-rule:nonzero;fill:rgb(100%,100%,100%);fill-opacity:1;" d="M 44.804688 7.398438 C 44.464844 7.398438 44.207031 7.453125 44.03125 7.5625 C 43.863281 7.667969 43.777344 7.828125 43.777344 8.035156 C 43.777344 8.230469 43.847656 8.378906 43.984375 8.492188 C 44.121094 8.597656 44.316406 8.652344 44.5625 8.652344 C 44.871094 8.652344 45.128906 8.550781 45.335938 8.347656 C 45.546875 8.140625 45.652344 7.882812 45.652344 7.574219 L 45.652344 7.398438 Z M 47.300781 6.828125 L 47.300781 9.539062 L 45.652344 9.539062 L 45.652344 8.835938 C 45.433594 9.121094 45.1875 9.332031 44.914062 9.46875 C 44.640625 9.597656 44.308594 9.660156 43.914062 9.660156 C 43.386719 9.660156 42.953125 9.519531 42.625 9.234375 C 42.292969 8.945312 42.128906 8.570312 42.128906 8.113281 C 42.128906 7.554688 42.335938 7.144531 42.746094 6.886719 C 43.160156 6.625 43.808594 6.496094 44.691406 6.496094 L 45.652344 6.496094 L 45.652344 6.375 C 45.652344 6.136719 45.550781 5.960938 45.347656 5.851562 C 45.144531 5.738281 44.824219 5.679688 44.394531 5.679688 C 44.042969 5.679688 43.71875 5.714844 43.417969 5.777344 C 43.117188 5.84375 42.835938 5.941406 42.578125 6.070312 L 42.578125 4.914062 C 42.925781 4.832031 43.277344 4.773438 43.632812 4.734375 C 43.984375 4.691406 44.335938 4.671875 44.691406 4.671875 C 45.613281 4.671875 46.277344 4.839844 46.683594 5.179688 C 47.09375 5.515625 47.300781 6.066406 47.300781 6.828125 Z M 47.300781 6.828125 "/>
<path style=" stroke:none;fill-rule:nonzero;fill:rgb(100%,100%,100%);fill-opacity:1;" d="M 52.382812 5.554688 L 52.382812 3.007812 L 54.023438 3.007812 L 54.023438 9.609375 L 52.382812 9.609375 L 52.382812 8.921875 C 52.15625 9.203125 51.910156 9.410156 51.636719 9.539062 C 51.367188 9.667969 51.054688 9.734375 50.699219 9.734375 C 50.070312 9.734375 49.550781 9.503906 49.148438 9.039062 C 48.742188 8.570312 48.539062 7.972656 48.539062 7.238281 C 48.539062 6.503906 48.742188 5.90625 49.148438 5.441406 C 49.550781 4.976562 50.070312 4.742188 50.699219 4.742188 C 51.050781 4.742188 51.363281 4.808594 51.632812 4.941406 C 51.90625 5.070312 52.15625 5.277344 52.382812 5.554688 Z M 51.304688 8.628906 C 51.65625 8.628906 51.921875 8.511719 52.101562 8.273438 C 52.289062 8.035156 52.382812 7.691406 52.382812 7.238281 C 52.382812 6.785156 52.289062 6.441406 52.101562 6.203125 C 51.921875 5.964844 51.65625 5.847656 51.304688 5.847656 C 50.957031 5.847656 50.691406 5.964844 50.507812 6.203125 C 50.324219 6.441406 50.234375 6.785156 50.234375 7.238281 C 50.234375 7.691406 50.324219 8.035156 50.507812 8.273438 C 50.691406 8.511719 50.957031 8.628906 51.304688 8.628906 Z M 51.304688 8.628906 "/>
<path style=" stroke:none;fill-rule:nonzero;fill:rgb(100%,100%,100%);fill-opacity:1;" d="M 59.59375 5.003906 L 59.59375 6.160156 C 59.246094 6.023438 58.90625 5.921875 58.582031 5.855469 C 58.257812 5.785156 57.949219 5.753906 57.660156 5.753906 C 57.351562 5.753906 57.117188 5.789062 56.964844 5.863281 C 56.816406 5.933594 56.742188 6.042969 56.742188 6.195312 C 56.742188 6.316406 56.800781 6.410156 56.910156 6.472656 C 57.027344 6.539062 57.234375 6.585938 57.527344 6.617188 L 57.816406 6.65625 C 58.652344 6.753906 59.214844 6.917969 59.503906 7.144531 C 59.792969 7.371094 59.9375 7.726562 59.9375 8.210938 C 59.9375 8.714844 59.734375 9.097656 59.335938 9.351562 C 58.933594 9.605469 58.332031 9.734375 57.535156 9.734375 C 57.199219 9.734375 56.851562 9.707031 56.488281 9.65625 C 56.128906 9.609375 55.757812 9.535156 55.378906 9.4375 L 55.378906 8.28125 C 55.703125 8.429688 56.039062 8.539062 56.378906 8.613281 C 56.722656 8.6875 57.070312 8.722656 57.421875 8.722656 C 57.742188 8.722656 57.984375 8.683594 58.144531 8.601562 C 58.304688 8.519531 58.386719 8.398438 58.386719 8.234375 C 58.386719 8.101562 58.328125 8 58.214844 7.933594 C 58.105469 7.867188 57.886719 7.8125 57.554688 7.777344 L 57.269531 7.742188 C 56.539062 7.660156 56.03125 7.5 55.738281 7.273438 C 55.449219 7.042969 55.300781 6.695312 55.300781 6.226562 C 55.300781 5.722656 55.488281 5.351562 55.859375 5.109375 C 56.230469 4.863281 56.796875 4.742188 57.5625 4.742188 C 57.867188 4.742188 58.183594 4.761719 58.511719 4.804688 C 58.84375 4.847656 59.207031 4.914062 59.59375 5.003906 Z M 59.59375 5.003906 "/>
<path style=" stroke:none;fill-rule:nonzero;fill:rgb(100%,100%,100%);fill-opacity:1;" d="M 66.304688 6.714844 L 66.304688 9.609375 L 64.664062 9.609375 L 64.664062 7.402344 C 64.664062 6.988281 64.652344 6.703125 64.632812 6.546875 C 64.613281 6.390625 64.578125 6.277344 64.53125 6.203125 C 64.46875 6.101562 64.378906 6.027344 64.269531 5.972656 C 64.160156 5.917969 64.035156 5.886719 63.898438 5.886719 C 63.554688 5.886719 63.289062 6.011719 63.09375 6.257812 C 62.898438 6.5 62.800781 6.839844 62.800781 7.273438 L 62.800781 9.609375 L 61.167969 9.609375 L 61.167969 3.007812 L 62.800781 3.007812 L 62.800781 5.554688 C 63.046875 5.277344 63.308594 5.070312 63.585938 4.941406 C 63.863281 4.808594 64.167969 4.742188 64.503906 4.742188 C 65.09375 4.742188 65.539062 4.910156 65.84375 5.246094 C 66.152344 5.585938 66.304688 6.074219 66.304688 6.714844 Z M 66.304688 6.714844 "/>
<path style=" stroke:none;fill-rule:nonzero;fill:rgb(100%,100%,100%);fill-opacity:1;" d="M 72.929688 7.222656 L 72.929688 7.652344 L 69.113281 7.652344 C 69.152344 8.011719 69.289062 8.277344 69.527344 8.457031 C 69.765625 8.632812 70.09375 8.722656 70.519531 8.722656 C 70.863281 8.722656 71.214844 8.675781 71.574219 8.582031 C 71.9375 8.488281 72.308594 8.34375 72.6875 8.152344 L 72.6875 9.324219 C 72.300781 9.457031 71.914062 9.558594 71.53125 9.628906 C 71.144531 9.699219 70.757812 9.734375 70.371094 9.734375 C 69.445312 9.734375 68.726562 9.515625 68.210938 9.082031 C 67.703125 8.640625 67.445312 8.027344 67.445312 7.238281 C 67.445312 6.460938 67.695312 5.851562 68.199219 5.410156 C 68.703125 4.964844 69.398438 4.742188 70.28125 4.742188 C 71.082031 4.742188 71.722656 4.96875 72.203125 5.417969 C 72.6875 5.867188 72.929688 6.46875 72.929688 7.222656 Z M 71.25 6.714844 C 71.25 6.425781 71.160156 6.195312 70.976562 6.019531 C 70.796875 5.839844 70.5625 5.753906 70.269531 5.753906 C 69.953125 5.753906 69.695312 5.835938 69.5 6.003906 C 69.300781 6.167969 69.179688 6.40625 69.128906 6.714844 Z M 71.25 6.714844 "/>
<path style=" stroke:none;fill-rule:nonzero;fill:rgb(100%,100%,100%);fill-opacity:1;" d="M 79.261719 7.222656 L 79.261719 7.652344 L 75.445312 7.652344 C 75.484375 8.011719 75.621094 8.277344 75.859375 8.457031 C 76.097656 8.632812 76.429688 8.722656 76.855469 8.722656 C 77.199219 8.722656 77.546875 8.675781 77.90625 8.582031 C 78.269531 8.488281 78.640625 8.34375 79.019531 8.152344 L 79.019531 9.324219 C 78.632812 9.457031 78.25 9.558594 77.863281 9.628906 C 77.476562 9.699219 77.089844 9.734375 76.703125 9.734375 C 75.777344 9.734375 75.058594 9.515625 74.546875 9.082031 C 74.035156 8.640625 73.777344 8.027344 73.777344 7.238281 C 73.777344 6.460938 74.03125 5.851562 74.53125 5.410156 C 75.035156 4.964844 75.730469 4.742188 76.613281 4.742188 C 77.414062 4.742188 78.054688 4.96875 78.539062 5.417969 C 79.019531 5.867188 79.261719 6.46875 79.261719 7.222656 Z M 77.582031 6.714844 C 77.582031 6.425781 77.492188 6.195312 77.308594 6.019531 C 77.128906 5.839844 76.894531 5.753906 76.601562 5.753906 C 76.285156 5.753906 76.03125 5.835938 75.832031 6.003906 C 75.632812 6.167969 75.511719 6.40625 75.460938 6.714844 Z M 77.582031 6.714844 "/>
<path style=" stroke:none;fill-rule:nonzero;fill:rgb(100%,100%,100%);fill-opacity:1;" d="M 82.277344 3.507812 L 82.277344 4.855469 L 83.960938 4.855469 L 83.960938 5.945312 L 82.277344 5.945312 L 82.277344 7.960938 C 82.277344 8.179688 82.324219 8.332031 82.417969 8.410156 C 82.515625 8.484375 82.699219 8.523438 82.980469 8.523438 L 83.820312 8.523438 L 83.820312 9.609375 L 82.417969 9.609375 C 81.773438 9.609375 81.316406 9.488281 81.046875 9.238281 C 80.777344 8.984375 80.644531 8.558594 80.644531 7.960938 L 80.644531 5.945312 L 79.832031 5.945312 L 79.832031 4.855469 L 80.644531 4.855469 L 80.644531 3.507812 Z M 82.277344 3.507812 "/>
</g>
</svg>
