<svg version="1" xmlns="http://www.w3.org/2000/svg" width="737.333" height="737.333" viewBox="0 0 553.000000 553.000000"><path d="M12 16c-.1.8-.2 1.9-.1 2.3.1.5-.3.6-.9.2-.6-.3-.8-1-.6-1.4.3-.4-.1-.8-.9-.8s-1.2.4-.9.9c.3.4-.4.8-1.5.8-2.8 0-3.6 1.8-1.7 3.9C7 23.6 6.7 25 4.7 25c-.5 0-.6-.7-.3-1.6.3-.8.2-1.2-.4-.9-1.1.7-.8 4.1.5 5.2.4.5.5.3.2-.3s0-1.1.8-1.1c1 0 1.2.4.5 1.2-.5.7-.7 1.5-.3 1.9.4.3.8 1.3.9 2.2.2 1.2-.1 1.3-1.2.3-.7-.6-1.2-1.5-.9-1.8.2-.4-.2-.8-1-.8-1.1 0-.7 1 1.2 3.5 1.5 2 2.1 3.2 1.5 2.8-.7-.4-1.2-.1-1.2.9s.5 1.3 1.2.9c.7-.5.8-.3.4.5-.5.7-1.5 1-2.4.6-1.4-.5-1.4-.4 0 1.2.8 1 1.3 2.4 1 3.2-.2.7.2 1.8.9 2.3 1.1.8 1 .9-.3.4-1-.3-1.9-.2-1.9.2-.6 3.3-.5 5.3.4 5.9.6.3.7.2.4-.4-.3-.5 0-1 .8-1 1 0 1.2.4.5 1.2-.5.7-.7 1.5-.3 1.9.4.3.8 1.3.9 2.2.2 1.2-.1 1.3-1.2.3-.7-.6-1.2-1.5-.9-1.8.2-.4-.2-.8-1-.8-1.1 0-.7 1 1.2 3.5 1.5 2 2.1 3.2 1.5 2.8-.7-.4-1.2-.1-1.2.9s.5 1.3 1.2.9c.7-.5.8-.3.4.5-.5.7-1.5 1-2.4.6-1.4-.5-1.4-.4 0 1.2.8 1 1.3 2.4 1 3.2-.2.7.2 1.8.9 2.3 1.1.8 1 .9-.4.4-.9-.3-1.8-.2-1.8.2-.6 3.3-.5 5.3.4 5.9.6.3.7.2.4-.4-.3-.5 0-1 .8-1 1 0 1.2.4.5 1.2-.5.7-.7 1.5-.3 1.9.4.3.8 1.3.9 2.2.2 1.2-.1 1.3-1.2.3-.7-.6-1.2-1.5-.9-1.8.2-.4-.2-.8-1-.8-1.1 0-.7 1 1.2 3.5 1.5 2 2.1 3.2 1.5 2.8-.7-.4-1.2-.1-1.2.9s.5 1.3 1.2.9c.7-.5.8-.3.4.5-.5.7-1.5 1-2.4.6-1.4-.5-1.4-.4 0 1.2.8 1 1.3 2.4 1 3.2-.2.7.2 1.8.9 2.3 1.1.8 1 .9-.3.4-1-.3-1.9-.2-1.9.2-.6 3.3-.5 5.3.4 5.9.6.3.7.2.4-.4-.3-.5 0-1 .8-1 1 0 1.2.4.5 1.2-.5.7-.7 1.5-.3 1.9.4.3.8 1.3.9 2.2.2 1.2-.1 1.3-1.2.3-.7-.6-1.2-1.5-.9-1.8.2-.4-.2-.8-1-.8-1.1 0-.7 1 1.2 3.5 1.5 2 2.1 3.2 1.5 2.8-.7-.4-1.2-.1-1.2.9s.5 1.3 1.2.9c.7-.5.8-.3.4.5-.5.7-1.5 1-2.4.6-1.4-.5-1.4-.4 0 1.2.8 1 1.3 2.4 1 3.2-.2.7.2 1.8.9 2.3 1.1.8 1 .9-.4.4-.9-.3-1.8-.2-1.8.2-.6 3.3-.5 5.3.4 5.9.6.3.7.2.4-.4-.3-.5 0-1 .8-1 1 0 1.2.4.5 1.2-.5.7-.7 1.5-.3 1.9.4.3.8 1.3.9 2.2.2 1.2-.1 1.3-1.2.3-.7-.6-1.2-1.5-.9-1.8.2-.4-.2-.8-1-.8-1.1 0-.7 1 1.2 3.5 1.5 2 2.1 3.2 1.5 2.8-.7-.4-1.2-.1-1.2.9s.5 1.3 1.2.9c.7-.5.8-.3.4.5-.5.7-1.5 1-2.4.6-1.4-.5-1.4-.4 0 1.2.8 1 1.3 2.4 1 3.2-.2.7.2 1.8.9 2.3 1.1.8 1 .9-.3.4-1-.3-1.9-.2-1.9.2-.6 3.3-.5 5.3.4 5.9.6.3.7.2.4-.4-.3-.5 0-1 .8-1 1 0 1.2.4.5 1.2-.5.7-.7 1.5-.3 1.9.4.3.8 1.3.9 2.2.2 1.2-.1 1.3-1.2.3-.7-.6-1.2-1.5-.9-1.8.2-.4-.2-.8-1-.8-1.1 0-.7 1 1.2 3.5 1.5 2 2.1 3.2 1.5 2.8-.7-.4-1.2-.1-1.2.9s.5 1.3 1.2.9c.7-.5.8-.3.4.5-.5.7-1.5 1-2.4.6-1.4-.5-1.4-.4 0 1.2.8 1 1.3 2.4 1 3.2-.2.7.2 1.8.9 2.3 1.1.8 1 .9-.3.4-1-.3-1.9-.2-1.9.2-.6 3.3-.5 5.3.4 5.9.6.3.7.2.4-.4-.3-.5 0-1 .8-1 1 0 1.2.4.5 1.2-.5.7-.7 1.5-.3 1.9.4.3.8 1.3.9 2.2.2 1.2-.1 1.3-1.2.3-.7-.6-1.2-1.5-.9-1.8.2-.4-.2-.8-1-.8-1.1 0-.7 1 1.2 3.5 1.5 2 2.1 3.2 1.5 2.8-.7-.4-1.2-.1-1.2.9s.5 1.3 1.2.9c.7-.5.8-.3.4.5-.5.7-1.5 1-2.4.6-1.4-.5-1.4-.4 0 1.2.8 1 1.3 2.4 1 3.2-.2.7.2 1.8.9 2.3 1.1.8 1 .9-.3.4-1-.3-1.9-.2-1.9.2-.6 3.3-.5 5.3.4 5.9.6.3.7.2.4-.4-.3-.5 0-1 .8-1 1 0 1.2.4.5 1.2-.5.7-.7 1.5-.3 1.9.4.3.8 1.3.9 2.2.2 1.2-.1 1.3-1.2.3-.7-.6-1.2-1.5-.9-1.8.2-.4-.2-.8-1-.8-1.1 0-.7 1 1.2 3.5 1.5 2 2.1 3.2 1.5 2.8-.7-.4-1.2-.1-1.2.9s.5 1.3 1.2.9c.7-.5.8-.3.4.5-.5.7-1.5 1-2.4.6-1.4-.5-1.4-.4 0 1.2.8 1 1.3 2.4 1 3.2-.2.7.2 1.8.9 2.3 1.1.8 1 .9-.3.4-1-.3-1.9-.2-1.9.2-.6 3.3-.5 5.3.4 5.9.6.3.7.2.4-.4-.3-.5 0-1 .8-1 1 0 1.2.4.5 1.2-.5.7-.7 1.5-.3 1.9.4.3.8 1.3.9 2.2.2 1.2-.1 1.3-1.2.3-.7-.6-1.2-1.5-.9-1.8.2-.4-.2-.8-1-.8-1.1 0-.7 1 1.2 3.5 1.5 2 2.1 3.2 1.5 2.8-.7-.4-1.2-.1-1.2.9s.5 1.3 1.2.9c.7-.5.8-.3.4.5-.5.7-1.5 1-2.4.6-1.4-.5-1.4-.4 0 1.2.8 1 1.3 2.4 1 3.2-.2.7.2 1.8.9 2.3 1.1.8 1 .9-.3.4-1-.3-1.9-.2-1.9.2-.6 3.3-.5 5.3.4 5.9.6.3.7.2.4-.4-.3-.5 0-1 .8-1 1 0 1.2.4.5 1.2-.5.7-.7 1.5-.3 1.9.4.3.8 1.3.9 2.2.2 1.2-.1 1.3-1.2.3-.7-.6-1.2-1.5-.9-1.8.2-.4-.2-.8-1-.8-1.1 0-.7 1 1.2 3.5 1.5 2 2.1 3.2 1.5 2.8-.7-.4-1.2-.1-1.2.9s.5 1.3 1.2.9c.7-.5.8-.3.4.5-.5.7-1.5 1-2.4.6-1.4-.5-1.4-.4 0 1.2.8 1 1.3 2.4 1 3.2-.2.7.2 1.8.9 2.3 1.1.8 1 .9-.3.4-1-.3-1.9-.2-1.9.2-.6 3.3-.5 5.3.4 5.9.6.3.7.2.4-.4-.3-.5 0-1 .8-1 1 0 1.2.4.5 1.2-.5.7-.7 1.5-.3 1.9.4.3.8 1.3.9 2.2.2 1.2-.1 1.3-1.2.3-.7-.6-1.2-1.5-.9-1.8.2-.4-.2-.8-1-.8-1.1 0-.7 1 1.2 3.5 1.5 2 2.1 3.2 1.5 2.8-.7-.4-1.2-.1-1.2.9s.5 1.3 1.2.9c.7-.5.8-.3.4.5-.5.7-1.5 1-2.4.6-1.4-.5-1.4-.4 0 1.2.8 1 1.3 2.4 1 3.2-.2.7.2 1.8.9 2.3 1.1.8 1 .9-.3.4-1-.3-1.9-.2-1.9.2-.6 3.3-.5 5.3.4 5.9.6.3.7.2.4-.4-.3-.5 0-1 .8-1 1 0 1.2.4.5 1.2-.5.7-.7 1.5-.3 1.9.4.3.8 1.3.9 2.2.2 1.2-.1 1.3-1.2.3-.7-.6-1.2-1.5-.9-1.8.2-.4-.2-.8-1-.8-1.1 0-.7 1 1.2 3.5 1.5 2 2.1 3.2 1.5 2.8-.7-.4-1.2-.1-1.2.9s.5 1.3 1.2.9c.7-.5.8-.3.4.5-.5.7-1.5 1-2.4.6-1.4-.5-1.4-.4 0 1.2.8 1 1.3 2.4 1 3.2-.2.7.2 1.8.9 2.3 1.1.8 1 .9-.3.4-1-.3-1.9-.2-1.9.2-.6 3.3-.5 5.3.4 5.9.6.3.7.2.4-.4-.3-.5 0-1 .8-1 1 0 1.2.4.5 1.2-.5.7-.7 1.5-.3 1.9.4.3.8 1.3.9 2.2.2 1.2-.1 1.3-1.2.3-.7-.6-1.2-1.5-.9-1.8.2-.4-.2-.8-1-.8-1.1 0-.7 1 1.2 3.5 1.5 2 2.1 3.2 1.5 2.8-.7-.4-1.2-.1-1.2.9s.5 1.3 1.2.9c.7-.5.8-.3.4.5-.5.7-1.5 1-2.4.6-1.4-.5-1.4-.4 0 1.2.8 1 1.3 2.4 1 3.2-.2.7.2 1.8.9 2.3 1.1.8 1 .9-.3.4-1-.3-1.9-.2-1.9.2-.6 3.3-.5 5.3.4 5.9.6.3.7.2.4-.4-.3-.5 0-1 .8-1 1 0 1.2.4.5 1.2-.5.7-.7 1.5-.3 1.9.4.3.8 1.3.9 2.2.2 1.2-.1 1.3-1.2.3-.7-.6-1.2-1.5-.9-1.8.2-.4-.2-.8-1-.8-1.1 0-.7 1 1.2 3.5 1.5 2 2.1 3.2 1.5 2.8-.7-.4-1.2-.1-1.2.9s.5 1.3 1.2.9c.7-.5.8-.3.4.5-.5.7-1.5 1-2.4.6-1.4-.5-1.4-.4 0 1.2.8 1 1.3 2.4 1 3.2-.2.7.2 1.8.9 2.3 1.1.8 1 .9-.3.4-1-.3-1.9-.2-1.9.2-.6 3.3-.5 5.3.4 5.9.6.3.7.2.4-.4-.3-.5 0-1 .8-1 1 0 1.2.4.5 1.2-.5.7-.7 1.5-.3 1.9.4.3.8 1.3.9 2.2.2 1.2-.1 1.3-1.2.3-.7-.6-1.2-1.5-.9-1.8.2-.4-.2-.8-1-.8-1.1 0-.7 1 1.2 3.5 1.5 2 2.1 3.2 1.5 2.8-.7-.4-1.2-.1-1.2.9s.5 1.3 1.2.9c.7-.5.8-.3.4.5-.5.7-1.5 1-2.4.6-1.4-.5-1.4-.4 0 1.2.8 1 1.3 2.4 1 3.2-.2.7.2 1.8.9 2.3 1.1.8 1 .9-.4.4-.9-.3-1.8-.2-1.8.2-.6 3.3-.5 5.3.4 5.9.6.3.7.2.4-.4-.3-.5 0-1 .8-1 1 0 1.2.4.5 1.2-.5.7-.7 1.5-.3 1.9.4.3.8 1.3.9 2.2.2 1.2-.1 1.3-1.2.3-.7-.6-1.2-1.5-.9-1.8.2-.4-.2-.8-1-.8-1.1 0-.7 1 1.2 3.5 1.5 2 2.1 3.2 1.5 2.8-.7-.4-1.2-.1-1.2.9s.5 1.3 1.2.9c.7-.5.8-.3.4.5-.5.7-1.5 1-2.4.6-1.4-.5-1.4-.4 0 1.2.8 1 1.3 2.4 1 3.2-.2.7.2 1.8.9 2.3 1.1.8 1 .9-.3.4-1-.3-1.9-.2-1.9.2-.6 3.3-.5 5.3.4 5.9.6.3.7.2.4-.4-.3-.5 0-1 .8-1 1 0 1.2.4.5 1.2-.5.7-.7 1.5-.3 1.9.4.3.8 1.3.9 2.2.2 1.2-.1 1.3-1.2.3-.7-.6-1.2-1.5-.9-1.8.2-.4-.2-.8-1-.8-1.1 0-.7 1 1.2 3.5 1.5 2 2.1 3.2 1.5 2.8-.7-.4-1.2-.1-1.2.9s.5 1.3 1.2.9c.7-.5.8-.3.4.5-.5.7-1.5 1-2.4.6-1.4-.5-1.4-.4 0 1.2.8 1 1.3 2.4 1 3.2-.2.7.2 1.8.9 2.3 1.1.8 1 .9-.4.4-.9-.3-1.8-.2-1.8.2-.6 3.3-.5 5.3.4 5.9.6.3.7.2.4-.4-.3-.5 0-1 .8-1 1 0 1.2.4.5 1.2-.5.7-.7 1.5-.3 1.9.4.3.8 1.3.9 2.2.2 1.2-.1 1.3-1.2.3-.7-.6-1.2-1.5-.9-1.8.2-.4-.2-.8-1-.8-1.1 0-.7 1 1.2 3.5 1.5 2 2.1 3.2 1.5 2.8-.7-.4-1.2-.1-1.2.9s.5 1.3 1.2.9c.7-.5.8-.3.4.5-.5.7-1.5 1-2.4.6-1.4-.5-1.4-.4 0 1.2.8 1 1.3 2.4 1 3.2-.2.7.2 1.8.9 2.3 1.1.8 1 .9-.4.4-.9-.3-1.8-.2-1.8.2-.6 3.3-.5 5.3.4 5.9.6.3.7.2.4-.4-.3-.5 0-1 .8-1 1 0 1.2.4.5 1.2-.5.7-.7 1.5-.3 1.9.4.3.8 1.3.9 2.2.2 1.2-.1 1.3-1.2.3-.7-.6-1.2-1.5-.9-1.8.2-.4-.2-.8-1-.8-1.1 0-.7 1 1.2 3.5 1.5 2 2.1 3.2 1.5 2.8-.7-.4-1.2-.1-1.2.9s.5 1.3 1.2.9c.7-.5.8-.3.4.5-.5.7-1.5 1-2.4.6-1.4-.5-1.4-.4 0 1.2.8 1 1.3 2.4 1 3.2-.2.7.2 1.8.9 2.3 1.1.8 1 .9-.3.4-1-.3-1.9-.2-1.9.2-.6 3.3-.5 5.3.4 5.9.6.3.7.2.4-.4-.3-.5 0-1 .8-1 1 0 1.2.4.5 1.2-.5.7-.7 1.5-.3 1.9.4.3.8 1.3.9 2.2.2 1.2-.1 1.3-1.2.3-.7-.6-1.2-1.5-.9-1.8.2-.4-.2-.8-1-.8-1.1 0-.7 1 1.2 3.5 1.5 2 2.1 3.2 1.5 2.8-.7-.4-1.2-.1-1.2.9s.5 1.3 1.2.9c.7-.5.8-.3.4.5-.5.7-1.5 1-2.4.6-1.4-.5-1.4-.4 0 1.2.8 1 1.3 2.4 1 3.2-.2.7.2 1.8.9 2.3 1.1.8 1 .9-.4.4-.9-.3-1.8-.2-1.8.2-.6 3.3-.5 5.3.4 5.9.6.3.7.2.4-.4-.3-.5 0-1 .8-1 1 0 1.2.4.5 1.2-.5.7-.7 1.5-.3 1.9.4.3.8 1.3.9 2.2.2 1.2-.1 1.3-1.2.3-.7-.6-1.2-1.5-.9-1.8.2-.4-.2-.8-1-.8-1.1 0-.7 1 1.2 3.5 1.5 2 2.1 3.2 1.5 2.8-.7-.4-1.2-.1-1.2.9s.5 1.3 1.2.9c.7-.5.8-.3.4.5-.5.7-1.5 1-2.4.6-1.4-.5-1.4-.4 0 1.2.8 1 1.3 2.4 1 3.2-.2.7.2 1.8.9 2.3 1.1.8 1 .9-.4.4-.9-.3-1.7-.2-1.8.2 0 .4-.2 1.5-.4 2.4-.2 1 0 1.7.3 1.7 2.1-.3 3.2.3 3.2 1.8s-.2 1.6-1 .3c-.8-1.2-1.1-1.3-2.2-.2-.7.8-.8 1.3-.3 1.2.6-.2 1.3-.1 1.8 0 .4.1 1.3.3 2 .4.6.1 1.1.8.9 1.5-.2.9.2 1 1.5.3 1.2-.7 2-.6 2.8.5.9 1.2 1.1 1.1 1.1-.5 0-1.5-.6-1.9-2.3-1.6-1.2.2-2.4 0-2.8-.6-.4-.6.1-.7 1.1-.3 1.3.5 1.5.3.9-.8-.7-1.1-.6-1.2.6-.3.8.6 2.4 1 3.6.9 1.2-.1 2 .2 1.8.6-.3.4.2 1 1.1 1.3.9.3 1.2 1.1.8 1.8-.4.7-.3.9.1.5 1.3-1.1 1.5-3.8.3-3.1-.7.4-.8.2-.4-.4 1-1.7 2.6-1.5 2.6.4 0 .8.4 1.3.9.9.5-.3 1.2-.1 1.6.5.4.6 1.2.7 2.3.1 1.1-.6 1.9-.5 2.7.6.9 1.2 1.1 1.1 1.1-.4s-.8-1.9-3.5-1.8c-2.2 0-3.6-.5-3.8-1.5-.3-.9-.1-1.1.4-.5 1.2 1.5 4.7 1.9 3.7.4-.5-.8-.3-.9.7-.3 2.3 1.4 5.2 1.5 6.1.2.6-.9.7-.6.3.8-.7 2.5 1.9 5.3 3.1 3.3.4-.7.3-.9-.4-.5-2.1 1.3-2.1-1.2.1-3 1.5-1.3 1.8-1.4.9-.3-1 1.4-1 1.8.3 2.3.9.3 1.3.2 1-.4-.3-.6-.1-1 .4-1 2.2 0 2.6-.2 4.6-1.8 1.6-1.4 1.7-1.4.7-.1-.6.9-.9 1.9-.6 2.2.4.4-.4.4-1.6.2-1.2-.2-2-.2-1.6.2.3.3.1 1.1-.4 1.8-.7.8-.5 1.2.5 1.2.7 0 1.4-.3 1.3-.6-.2-2 .4-2.2 2.2-.6 1.9 1.7 1.9 1.6 1.4-1-.3-1.6-.1-2.4.5-2.1.5.4 1.3.2 1.6-.4.5-.8 1.1-.7 2.1.1 1 .8 1.4.8 1.4 0 0-.6.5-1.1 1.1-1.1.8 0 .8.4.1 1.2-.7 1-.3 1.8 1.6 3.2l2.7 2-2-2.4c-1.7-1.9-1.7-2.2-.3-1.7 1 .3 2.9-.3 4.5-1.6l2.8-2.1-1.9 2.2c-2.4 2.8-2.8 4.9-1 4.9 1.1 0 1.1-.3.1-1.6-1-1.2-.9-1.4.6-.8 1.1.4 1.6.3 1.2-.3-.3-.6.1-1 .9-1 .9 0 1.6-.5 1.6-1.1 0-.6.5-.9 1.1-.7 1.4.5 1.2 2.3-.3 2.3-.7 0-1.4.9-1.5 2-.2 1.5-.1 1.6.5.5.4-.8 1.6-1.7 2.6-1.8 1.8-.3 1.8-.2.6 1.5-1.4 1.7-1.4 1.7.6 0 1.1-.9 2.4-1.4 2.8-1 .4.5 1.3 0 2.1-1 1.1-1.5 1.3-1.6 1.9-.2.6 1.6 4.6 2.1 4.6.5 0-.5-.7-.7-1.5-.4-.8.4-1.5.1-1.5-.6 0-.6.5-.8 1-.5.6.3 1 .1 1-.6s.6-.5 1.4.6c1.3 1.8 1.3 1.8 2.5-.1 1.1-1.8 1.2-1.8.6.2-.7 2.5 1.9 5.2 3.1 3.3.4-.7.3-.9-.4-.5-2.1 1.3-2.1-1.2.1-3 1.5-1.3 1.8-1.4.9-.3-1 1.4-1 1.8.3 2.3.9.3 1.3.2 1-.4-.3-.6-.1-1 .4-1 2.2 0 2.6-.2 4.6-1.8 1.6-1.4 1.7-1.4.7-.1-.6.9-.9 1.9-.6 2.2.4.4-.4.4-1.6.2-1.2-.2-2-.2-1.6.2.3.3.1 1.1-.4 1.8-.7.8-.5 1.2.5 1.2.7 0 1.4-.3 1.3-.6-.2-2 .4-2.2 2.2-.6 1.8 1.7 1.9 1.6 1.5-.8-.4-2-.1-2.5 1.2-2.3 1 .2 2.1-.2 2.5-.8.5-.8.8-.7.8.1 0 .7.8 1.3 1.8 1.3 1.5 0 1.5-.2.2-1.1-1.3-.9-1.3-1 0-.6.9.2 1.5 1.4 1.4 3-.1 1.5.3 2.4.8 2.1.4-.3.6-.9.3-1.4-.3-.5-.1-1.1.5-1.5.6-.4.7-1.2.4-1.8-.5-.8-.3-.8.7 0 1.7 1.7 3.2 1.7 2.3 0-.6-.9-.4-.9.7-.1.8.6 2.4 1 3.6.9 1.2-.1 2 .2 1.8.6-.3.4.2 1 1.1 1.3.9.3 1.2 1.1.8 1.8-.4.7-.3.9.1.5 1.3-1.1 1.5-3.8.3-3.1-.7.4-.8.2-.4-.4 1-1.7 2.6-1.5 2.6.4 0 .8.4 1.3.9.9.5-.3 1.2-.1 1.6.5.4.6 1.2.7 2.3.1 1.1-.6 1.9-.5 2.7.6.9 1.2 1.1 1.1 1.1-.4s-.8-1.9-3.5-1.8c-2.2 0-3.6-.5-3.8-1.5-.3-.9-.1-1.1.4-.5 1.2 1.5 4.7 1.9 3.7.4-.5-.8-.3-.9.7-.3 2.3 1.4 5.2 1.5 6.1.2.6-.9.7-.6.3.8-.7 2.5 1.9 5.3 3.1 3.3.4-.7.3-.9-.4-.5-2.1 1.3-2.1-1.2.1-3 1.5-1.3 1.8-1.4.9-.3-1 1.4-1 1.8.3 2.3.9.3 1.3.2 1-.4-.5-.9.8-1.4 1.9-.8.2.2 1.4-.6 2.7-1.7 1.3-1.1 1.8-1.3 1.1-.4-.6.9-.9 1.9-.6 2.2.4.4-.4.4-1.6.2-1.2-.2-2-.2-1.6.2.3.3.1 1.1-.4 1.8-.7.8-.5 1.2.5 1.2.7 0 1.4-.3 1.3-.6-.2-2 .4-2.2 2.2-.6 1.9 1.7 1.9 1.6 1.4-1-.3-1.6-.1-2.4.5-2.1.5.4 1.3.2 1.6-.4.5-.8 1.1-.7 2.1.1 1 .8 1.4.8 1.4 0 0-.6.5-1.1 1.1-1.1.8 0 .8.4.1 1.2-.7 1-.3 1.8 1.6 3.2l2.7 2-2-2.4c-1.7-1.9-1.7-2.2-.3-1.7 1 .3 2.9-.3 4.5-1.6l2.8-2.1-1.9 2.2c-2.4 2.8-2.8 4.9-1 4.9 1.1 0 1.1-.3.1-1.6-1-1.2-.9-1.4.6-.8 1.1.4 1.6.3 1.2-.3-.3-.6.1-1 .9-1 .9 0 1.6-.5 1.6-1.1 0-.6.5-.9 1.1-.7 1.4.5 1.2 2.3-.3 2.3-.7 0-1.4.9-1.5 2-.2 1.5-.1 1.6.5.5.4-.8 1.6-1.7 2.6-1.8 1.8-.3 1.8-.2.6 1.5-1.4 1.7-1.4 1.7.6 0 1.1-.9 2.4-1.4 2.8-1 .4.5 1.3 0 2.1-1 1.1-1.5 1.3-1.6 1.9-.2.6 1.6 4.6 2.1 4.6.5 0-.5-.7-.7-1.5-.4-.8.4-1.5.1-1.5-.6 0-.6.5-.8 1-.5.6.3 1 .1 1-.6s.6-.5 1.4.6c1.3 1.8 1.3 1.8 2.5-.1 1.1-1.8 1.2-1.8.6.2-.7 2.5 1.9 5.2 3.1 3.3.4-.7.3-.9-.4-.5-2.1 1.3-2.1-1.2.1-3 1.5-1.3 1.8-1.4.9-.3-1 1.4-1 1.8.3 2.3.9.3 1.3.2 1-.4-.5-.9.8-1.4 1.9-.8.2.2 1.4-.6 2.7-1.7 1.3-1.1 1.8-1.3 1.1-.4-.6.9-.9 1.9-.6 2.2.4.4-.4.4-1.6.2-1.2-.2-2-.2-1.6.2.3.3.1 1.1-.4 1.8-.7.8-.5 1.2.5 1.2.7 0 1.4-.3 1.3-.6-.2-2 .4-2.2 2.2-.6 1.8 1.7 1.9 1.6 1.5-.8-.4-2-.1-2.5 1.2-2.3 1 .2 2.1-.2 2.5-.8.5-.8.8-.7.8.1 0 .7.8 1.3 1.8 1.3 1.5 0 1.5-.2.2-1.1-1.3-.9-1.3-1 0-.6.9.2 1.5 1.4 1.4 3-.1 1.5.3 2.4.8 2.1.4-.3.6-.9.3-1.4-.3-.5-.1-1.1.5-1.5.6-.4.7-1.2.4-1.8-.5-.8-.3-.8.7 0 .7.7 1.7 1.3 2.2 1.3.4 0 .5-.6.1-1.3-.6-.9-.4-.9.7-.1.8.6 2.4 1 3.6.9 1.2-.1 2 .2 1.8.6-.3.4.2 1 1.1 1.3.9.3 1.2 1.1.8 1.8-.4.7-.3.9.1.5 1.3-1.1 1.5-3.8.3-3.1-.7.4-.8.2-.4-.4 1-1.7 2.6-1.5 2.6.4 0 .8.4 1.3.9.9.5-.3 1.2-.1 1.6.5.4.6 1.2.7 2.3.1 1.1-.6 1.9-.5 2.7.6.9 1.2 1.1 1.1 1.1-.4s-.8-1.9-3.5-1.8c-2.2 0-3.6-.5-3.8-1.5-.3-.9-.1-1.1.4-.5 1.2 1.5 4.7 1.9 3.7.4-.5-.8-.3-.9.7-.3 2.3 1.4 5.2 1.5 6.1.2.6-.9.7-.6.3.8-.7 2.5 1.9 5.3 3.1 3.3.4-.7.3-.9-.4-.5-2.1 1.3-2.1-1.2.1-3 1.5-1.3 1.8-1.4.9-.3-1 1.4-1 1.8.3 2.3.9.3 1.3.2 1-.4-.3-.6-.1-1 .4-1 2.2 0 2.6-.2 4.6-1.8 1.6-1.4 1.7-1.4.7-.1-.6.9-.9 1.9-.6 2.2.4.4-.4.4-1.6.2-1.2-.2-2-.2-1.6.2.3.3.1 1.1-.4 1.8-.7.8-.5 1.2.5 1.2.7 0 1.4-.3 1.3-.6-.2-2 .4-2.2 2.2-.6 1.9 1.7 1.9 1.6 1.4-1-.3-1.6-.1-2.4.5-2.1.5.4 1.3.2 1.6-.4.5-.8 1.1-.7 2.1.1 1 .8 1.4.8 1.4 0 0-.6.5-1.1 1.1-1.1.8 0 .8.4.1 1.2-.7 1-.3 1.8 1.6 3.2l2.7 2-2-2.4c-1.7-1.9-1.7-2.2-.3-1.7 1 .3 2.9-.3 4.5-1.6l2.8-2.1-1.9 2.2c-2.4 2.8-2.8 4.9-1 4.9 1.1 0 1.1-.3.1-1.6-1-1.2-.9-1.4.6-.8 1.1.4 1.6.3 1.2-.3-.3-.6.1-1 .9-1 .9 0 1.6-.5 1.6-1.1 0-.6.5-.9 1.1-.7 1.4.5 1.2 2.3-.3 2.3-.7 0-1.4.9-1.5 2-.2 1.5-.1 1.6.5.5.4-.8 1.6-1.7 2.6-1.8 1.8-.3 1.8-.2.6 1.5-1.4 1.7-1.4 1.7.6 0 1.1-.9 2.4-1.4 2.8-1 .4.5 1.3 0 2.1-1 1.1-1.5 1.3-1.6 1.9-.2.6 1.6 4.6 2.1 4.6.5 0-.5-.7-.7-1.5-.4-.8.4-1.5.1-1.5-.6 0-.6.5-.8 1-.5.6.3 1 .1 1-.6s.6-.5 1.4.6c1.3 1.8 1.3 1.8 2.5-.1 1.1-1.8 1.2-1.8.6.2-.7 2.5 1.9 5.2 3.1 3.3.4-.7.3-.9-.4-.5-2.1 1.3-2.1-1.2.1-3 1.5-1.3 1.8-1.4.9-.3-1 1.4-1 1.8.3 2.3.9.3 1.3.2 1-.4-.3-.6-.1-1 .4-1 2.2 0 2.6-.2 4.6-1.8 1.6-1.4 1.7-1.4.7-.1-.6.9-.9 1.9-.6 2.2.4.4-.4.4-1.6.2-1.2-.2-2-.2-1.6.2.3.3.1 1.1-.4 1.8-.7.8-.5 1.2.5 1.2.7 0 1.4-.3 1.3-.6-.2-2 .4-2.2 2.2-.6 1.8 1.7 1.9 1.6 1.5-.8-.4-2-.1-2.5 1.2-2.3 1 .2 2.1-.2 2.5-.8.5-.8.8-.7.8.1 0 .7.8 1.3 1.8 1.3 1.5 0 1.5-.2.2-1.1-1.3-.9-1.3-1 0-.6.9.2 1.5 1.4 1.4 3-.1 1.5.3 2.4.8 2.1.4-.3.6-.9.3-1.4-.3-.5-.1-1.1.5-1.5.6-.4.7-1.2.4-1.8-.5-.8-.3-.8.7 0 .7.7 1.7 1.3 2.2 1.3.4 0 .5-.6.1-1.3-.6-.9-.4-.9.7-.1.8.6 2.4 1 3.6.9 1.2-.1 2 .2 1.8.6-.3.4.2 1 1.1 1.3.9.3 1.2 1.1.8 1.8-.4.7-.3.9.1.5 1.3-1.1 1.5-3.8.3-3.1-.7.4-.8.2-.4-.4 1-1.7 2.6-1.5 2.6.4 0 .8.4 1.3.9.9.5-.3 1.2-.1 1.6.5.4.6 1.2.7 2.3.1 1.1-.6 1.9-.5 2.7.6.9 1.2 1.1 1.1 1.1-.4s-.8-1.9-3.5-1.8c-2.2 0-3.6-.5-3.8-1.5-.3-.9-.1-1.1.4-.5 1.2 1.5 4.7 1.9 3.7.4-.5-.8-.3-.9.7-.3 2.3 1.4 5.2 1.5 6.1.2.6-.9.7-.6.3.8-.7 2.5 1.9 5.3 3.1 3.3.4-.7.3-.9-.4-.5-2.1 1.3-2.1-1.2.1-3 1.5-1.3 1.8-1.4.9-.3-1 1.4-1 1.8.3 2.3.9.3 1.3.2 1-.4-.5-.9.8-1.4 1.9-.8.2.2 1.4-.6 2.7-1.7 1.3-1.1 1.8-1.3 1.1-.4-.6.9-.9 1.9-.6 2.2.4.4-.4.4-1.6.2-1.2-.2-2-.2-1.6.2.3.3.1 1.1-.4 1.8-.7.8-.5 1.2.5 1.2.7 0 1.4-.3 1.3-.6-.2-2 .4-2.2 2.2-.6 1.9 1.7 1.9 1.6 1.4-1-.3-1.6-.1-2.4.5-2.1.5.4 1.3.2 1.6-.4.5-.8 1.1-.7 2.1.1 1 .8 1.4.8 1.4 0 0-.6.5-1.1 1.1-1.1.8 0 .8.4.1 1.3-.7.9-.3 1.7 1.6 3.1l2.7 2-2-2.4c-1.7-1.9-1.7-2.2-.3-1.7 1 .3 2.9-.3 4.5-1.6l2.8-2.1-1.9 2.2c-2.4 2.8-2.8 4.9-1 4.9 1.1 0 1.1-.3.1-1.6-1-1.2-.9-1.4.6-.8 1.1.4 1.6.3 1.2-.3-.3-.6.1-1 .9-1 .9 0 1.6-.5 1.6-1.1 0-.6.5-.9 1.1-.7 1.4.5 1.2 2.3-.3 2.3-.7 0-1.4.9-1.5 2-.2 1.5-.1 1.6.5.5.4-.8 1.6-1.7 2.6-1.8 1.8-.3 1.8-.2.6 1.5-1.4 1.7-1.4 1.7.6 0 1.1-.9 2.4-1.4 2.8-1 .4.5 1.3 0 2.1-1 1.1-1.5 1.3-1.6 1.9-.2.6 1.6 4.6 2.1 4.6.5 0-.5-.7-.7-1.5-.4-.8.4-1.5.1-1.5-.6 0-.6.5-.8 1-.5.6.3 1 .1 1-.6s.6-.5 1.4.6c1.3 1.8 1.3 1.8 2.5-.1 1.1-1.8 1.2-1.8.6.2-.7 2.5 1.9 5.2 3.1 3.3.4-.7.3-.9-.4-.5-2.1 1.3-2.1-1.2.1-3 1.5-1.3 1.8-1.4.9-.3-1 1.4-1 1.8.3 2.3.9.3 1.3.2 1-.4-.5-.9.8-1.4 1.9-.8.2.2 1.4-.6 2.7-1.7 1.3-1.1 1.8-1.3 1.1-.4-.6.9-.9 1.9-.6 2.2.4.4-.4.4-1.6.2-1.2-.2-2-.2-1.6.2.3.3.1 1.1-.4 1.8-.7.8-.5 1.2.5 1.2.7 0 1.4-.3 1.3-.6-.2-2 .4-2.2 2.2-.6 1.8 1.7 1.9 1.6 1.5-.8-.4-2-.1-2.5 1.2-2.3 1 .2 2.1-.2 2.5-.8.5-.8.8-.7.8.1 0 .7.8 1.3 1.8 1.3 1.5 0 1.5-.2.2-1.1-1.3-.9-1.3-1 0-.6.9.2 1.5 1.4 1.4 3-.1 1.5.3 2.4.8 2.1.4-.3.6-.9.3-1.4-.3-.5-.1-1.1.5-1.5.6-.4.7-1.2.4-1.8-.5-.8-.3-.8.7.1 1.7 1.6 3.2 1.6 2.3-.1-.6-.9-.4-.9.7-.1.8.6 2.4 1 3.6.9 1.2-.1 2 .2 1.8.6-.3.4.2 1 1.1 1.3.9.3 1.2 1.1.8 1.8-.4.7-.3.9.1.5 1.3-1.1 1.5-3.8.3-3.1-.7.4-.8.2-.4-.4 1-1.7 2.6-1.5 2.6.4 0 .8.4 1.3.9.9.5-.3 1.2-.1 1.6.5.4.6 1.2.7 2.3.1 1.1-.6 1.9-.5 2.7.6.9 1.2 1.1 1.1 1.1-.4s-.8-1.9-3.5-1.8c-2.2 0-3.6-.5-3.8-1.5-.3-.9-.1-1.1.4-.5 1.2 1.5 4.7 1.9 3.7.4-.5-.8-.3-.9.7-.3 2.3 1.4 5.2 1.5 6.1.2.6-.9.7-.6.3.8-.7 2.5 1.9 5.3 3.1 3.3.4-.7.3-.9-.4-.5-2.1 1.3-2.1-1.2.1-3 1.5-1.3 1.8-1.4.9-.3-1 1.4-1 1.8.3 2.3.9.3 1.3.2 1-.4-.5-.9.8-1.4 1.9-.8.2.2 1.4-.6 2.7-1.7 1.3-1.1 1.8-1.3 1.1-.4-.6.9-.9 1.9-.6 2.2.4.4-.4.4-1.6.2-1.2-.2-2-.2-1.6.2.3.3.1 1.1-.4 1.8-.7.8-.5 1.2.5 1.2.7 0 1.4-.3 1.3-.6-.2-2 .4-2.2 2.2-.6 1.9 1.7 1.9 1.6 1.4-1-.3-1.6-.1-2.4.5-2.1.5.4 1.3.2 1.6-.4.5-.8 1.1-.7 2.1.1 1 .8 1.4.8 1.4 0 0-.6.5-1.1 1.1-1.1.8 0 .8.4.1 1.2-.7 1-.3 1.8 1.6 3.2l2.7 2-2-2.4c-1.7-1.9-1.7-2.2-.3-1.7 1 .3 2.9-.3 4.5-1.6l2.8-2.1-1.9 2.2c-2.4 2.8-2.8 4.9-1 4.9 1.1 0 1.1-.3.1-1.6-1-1.2-.9-1.4.6-.8 1.1.4 1.6.3 1.2-.3-.3-.6.1-1 .9-1 .9 0 1.6-.5 1.6-1.1 0-.6.5-.9 1.1-.7 1.4.5 1.2 2.3-.3 2.3-.7 0-1.4.9-1.5 2-.2 1.5-.1 1.6.5.5.4-.8 1.6-1.7 2.6-1.8 1.8-.3 1.8-.2.6 1.5-1.4 1.7-1.4 1.7.6 0 1.1-.9 2.4-1.4 2.8-1 .4.5 1.3 0 2.1-1 1.1-1.5 1.3-1.6 1.9-.2.6 1.6 4.6 2.1 4.6.5 0-.5-.7-.7-1.5-.4-.8.4-1.5.1-1.5-.6 0-.6.4-.8 1-.5.6.3 1 .1 1-.6s.6-.5 1.4.6c1.3 1.8 1.3 1.8 2.5-.1 1.1-1.8 1.2-1.8.6.2-.7 2.5 1.9 5.2 3.1 3.3.4-.7.3-.9-.4-.5-2.1 1.3-2.1-1.2.1-3 1.5-1.3 1.8-1.4.9-.3-1 1.4-1 1.8.3 2.3.9.3 1.3.2 1-.4-.5-.9.8-1.4 1.9-.8.2.2 1.4-.6 2.7-1.7 1.3-1.1 1.8-1.3 1.1-.4-.6.9-.9 1.9-.6 2.2.4.4-.4.4-1.6.2-1.2-.2-2-.2-1.6.2.3.3.1 1.1-.4 1.8-.7.8-.5 1.2.5 1.2.7 0 1.4-.3 1.3-.6-.2-2 .4-2.2 2.2-.6 1.8 1.7 1.9 1.6 1.5-.8-.4-2-.1-2.5 1.2-2.3 1 .2 2.1-.2 2.5-.8.5-.8.8-.7.8.1 0 .7.8 1.3 1.8 1.3 1.5 0 1.5-.2.2-1.1-1.3-.9-1.3-1 0-.6.9.2 1.5 1.4 1.4 3-.1 1.5.3 2.4.8 2.1.4-.3.6-.9.3-1.4-.3-.5-.1-1.1.5-1.5.6-.4.7-1.2.4-1.8-.5-.8-.3-.8.7.1 1.7 1.6 3.2 1.6 2.3-.1-.6-.9-.4-.9.7-.1.8.6 2.4 1 3.6.9 1.2-.1 2 .2 1.8.6-.3.4.2 1 1.1 1.3.9.3 1.2 1.1.8 1.8-.4.7-.3.9.1.5 1.3-1.1 1.5-3.8.3-3.1-.7.4-.8.2-.4-.4 1-1.7 2.6-1.5 2.6.4 0 .8.4 1.3.9.9.5-.3 1.2-.1 1.6.5.4.6 1.2.7 2.3.1 1.1-.6 1.9-.5 2.7.6.9 1.2 1.1 1.1 1.1-.4s-.8-1.9-3.5-1.8c-2.2 0-3.6-.5-3.8-1.5-.3-.9-.1-1.1.4-.5 1.2 1.5 4.7 1.9 3.7.4-.5-.8-.3-.9.7-.3 2.3 1.4 5.2 1.5 6.1.2.6-1 .8-1 .8-.1 0 .7.8 1.3 1.8 1.3 1.5 0 1.5-.2.2-1.1-1.3-.9-1.3-1 0-.6.9.2 1.5 1.4 1.4 3-.1 1.5.3 2.4.8 2.1.4-.3.6-.9.3-1.4-.3-.5-.1-1.1.5-1.5.6-.4.7-1.2.4-1.8-.5-.8-.3-.8.7.1 1.7 1.6 3.2 1.6 2.3-.1-.6-.9-.4-.9.7-.1.8.6 2.4 1 3.6.9 1.2-.1 2 .2 1.8.6-.3.4.2 1 1.1 1.3.9.3 1.2 1.1.8 1.8-.4.7-.3.9.1.5 1.3-1.1 1.5-3.8.3-3.1-.7.4-.8.2-.4-.4 1.1-1.8 2.6-1.4 2.6.5 0 .9.3 1.3.6 1 .4-.3 1.4-.2 2.4.3 1.2.6 1.7.5 1.7-.4 0-.7-.7-1.3-1.5-1.2-.8 0-1.6-.5-1.8-1.2-.1-.7 0-.8.3-.2.2.5.9 1 1.4 1 .6 0 .7-.6.4-1.3-.4-.6.2-.3 1.2.8 1.7 1.9 6.8 3.2 5.8 1.4-.3-.4 0-1.1.6-1.4.5-.4.8-1.4.5-2.2-.5-1.1-.1-1.3 1.7-.8 1.6.5 1.8.4.8-.4-1.2-.8-1.2-1.2-.2-2.5.8-.9 1-1.6.5-1.6s-.2-.5.6-1.1c1.3-.8 1.2-.9-.4-.7-1 .2-2.1-.3-2.4-1.1-.2-.8 0-1.1.5-.8.5.3 1 0 1-.8 0-.9-.7-1.4-1.5-1.3-.8.2-1.6-.5-1.7-1.4-.3-1.4 0-1.6 1.5-.8 1.3.7 2.1.5 3.1-.7.8-1 .9-1.4.2-1-.6.4-1.4.3-1.7-.2-.4-.5-.2-1.2.4-1.6 1.4-.9-.6-4.5-2.3-4.1-.6.1-.9.1-.4-.1.4-.3.7-.9.7-1.4 0-.6-.5-.7-1.2-.3-.7.4-.8.3-.4-.4.7-1.2 3.6-.5 3.6.9 0 .5.5.9 1.2.9s.5-.7-.5-1.8c-2.2-2.4-2.2-3.5 0-4.4 1.6-.7 1.6-.8-.2-.5-1.1.2-1.9.8-1.8 1.4.3 1.3-2.2 1.1-3.4-.2-.4-.4-.2-.5.5-.1.9.5 1.5.1 1.9-1.3.3-1.1.9-1.8 1.4-1.5.5.3.6-.2.3-1s-1.1-1.4-1.7-1.2c-.7.1-.9.1-.4-.1.4-.3.4-1 .1-1.5-.4-.6-.2-.8.4-.4.6.3 1.3.2 1.7-.4.5-.9-.7-1.4-2.7-1.1-.8.1-.5-2 .5-3.6s-.1-3.5-1.5-2.7c-.7.4-.8.2-.4-.5.6-.9 1.1-.9 2.3.1 1.4 1.1 1.5 1 .8-1.2-.4-1.4-1.2-2.8-1.7-3.1-.6-.4-.5-.9.3-1.3 1.1-.5 1.1-.7.1-1.2-.8-.4-.5-1.1 1-2.5 1.3-1 1.8-1.8 1.3-1.9-.6 0-1.7.6-2.5 1.3-1.2 1-1.2.9-.2-.4.6-.9.8-2 .4-2.4-.4-.5.1-.5 1.1-.2 1.3.5 1.7.3 1.4-.5-.2-.7-1-1.2-1.6-1-.8.1-.6-.8.4-2.8.9-1.6 1.2-3 .8-3-.5 0-.1-.5.7-1.1 1.3-.9 1.3-1 0-.6-.8.2-1.4 1-1.2 1.7.3 1.1 0 1.1-1.2 0-1.8-1.4-2.2-2.5-.6-1.5.6.3 1-.1 1-1s.5-1.3 1.1-.9c.8.5.8.1 0-1.4-.6-1.1-1.4-2.2-1.8-2.4-.5-.3-.3-.4.4-.2 2 .5 2.3-.9.5-2.3-1.5-1.3-1.5-1.3.8-.8 1.4.4 2 .3 1.5-.2-1.3-1-1.3-2.2.3-5.3 1.1-2.1 1.1-2.3-.1-.8-1.2 1.5-1.4 1.5-2.7-.5-1.7-2.7-1.9-3.8-.7-5.4.5-.7.5-1.8.1-2.4-.4-.8-.3-.9.4-.5s1.3.2 1.3-.3c.3-2.1.4-2.6 1.2-3.8.5-.7.5-1.3 0-1.3-.4 0-.1-.5.7-1.1 1.3-.8 1.2-.9-.4-.7-1 .2-2.1-.3-2.4-1.1-.2-.8 0-1.1.5-.8.5.3 1 0 1-.8 0-.9-.7-1.4-1.5-1.3-.8.2-1.6-.5-1.7-1.4-.3-1.4 0-1.6 1.5-.8 1.3.7 2.1.5 3.1-.7.8-1 .9-1.4.2-1-.6.4-1.4.3-1.7-.2-.4-.5-.2-1.2.4-1.6.5-.3 1-1.2 1-1.8 0-.8-.3-.9-.8-.1-.4.6-1.3.4-2.4-.8-1-1-1.3-1.8-.8-1.8.6 0 1-.7 1-1.6 0-.8.5-1.2 1-.9.8.5.7 1.1-.1 2.1-.7.8-.7 1.4-.1 1.4 1.6 0 2.1-2.4.8-4.1-.6-.9-1.8-1.4-2.6-1.1-.8.3-.4-.5 1-1.6 1.4-1.2 2-2.1 1.5-2.2-.6 0-1.7.6-2.5 1.3-1.2 1-1.2.9-.2-.4.6-.9.8-2 .4-2.4-.4-.5.1-.5 1.1-.2 1.3.5 1.7.3 1.4-.5-.2-.7-1-1.2-1.6-1-.8.1-.6-.8.4-2.8.9-1.6 1.2-3 .8-3-.5 0-.1-.5.7-1.1 1.3-.9 1.3-1 0-.6-.8.2-1.4 1-1.2 1.7.3 1.1 0 1.1-1.2 0-1.8-1.4-2.2-2.5-.6-1.5.6.3 1-.1 1-1s.5-1.3 1.1-.9c.8.5.8.1 0-1.4-.6-1.1-1.4-2.2-1.8-2.4-.5-.3-.3-.4.4-.2 2 .5 2.3-.9.5-2.3-1.5-1.3-1.5-1.3.8-.8 1.4.4 2 .3 1.5-.2-1.3-1-1.3-2.2.3-5.3 1.1-2.1 1.1-2.3-.1-.8-1.2 1.5-1.4 1.5-2.7-.5-1.7-2.7-1.9-3.8-.7-5.4.5-.7.5-1.8.1-2.4-.4-.8-.3-.9.4-.5s1.3.2 1.3-.3c.3-2.1.4-2.6 1.2-3.9.5-.6.5-1.2 0-1.2-.4 0-.1-.5.7-1.1 1.3-.8 1.2-.9-.4-.7-1 .2-2.1-.3-2.4-1.1-.2-.8 0-1.1.5-.8.5.3 1 0 1-.8 0-.9-.7-1.4-1.5-1.3-.8.2-1.6-.5-1.7-1.4-.3-1.4 0-1.6 1.5-.8 1.3.7 2.1.5 3.1-.7.8-1 .9-1.4.2-1-.6.4-1.4.3-1.7-.2-.4-.5-.2-1.2.4-1.6.5-.3 1-1.2 1-1.8 0-.8-.3-.9-.8-.1-.4.6-1.3.4-2.4-.8-1-1-1.3-1.8-.8-1.8.6 0 1-.7 1-1.6 0-.8.5-1.2 1-.9.8.5.7 1.1-.1 2.1-.7.8-.7 1.4-.1 1.4 1.6 0 2.1-2.4.8-4.1-.6-.9-1.8-1.4-2.6-1.1-.8.3-.4-.5 1-1.6 1.4-1.2 2-2.1 1.5-2.2-.6 0-1.7.6-2.5 1.3-1.2 1-1.2.9-.2-.4.6-.9.8-2 .4-2.4-.4-.5.1-.5 1.1-.2 1.3.5 1.7.3 1.4-.5-.2-.7-1-1.2-1.6-1-.8.1-.6-.8.4-2.8.9-1.6 1.2-3 .8-3-.5 0-.1-.5.7-1.1 1.3-.9 1.3-1 0-.6-.8.2-1.4 1-1.2 1.7.3 1.1 0 1.1-1.2 0-1.8-1.4-2.2-2.5-.6-1.5.6.3 1-.1 1-1s.5-1.3 1.1-.9c.8.5.8.1 0-1.4-.6-1.1-1.4-2.2-1.8-2.4-.5-.3-.3-.4.4-.2 2 .5 2.3-.9.5-2.3-1.5-1.3-1.5-1.3.8-.8 1.4.4 2 .3 1.5-.2-1.3-1-1.3-2.2.3-5.3 1.1-2.1 1.1-2.3-.1-.8-1.2 1.5-1.4 1.5-2.7-.5-1.7-2.7-1.9-3.8-.7-5.4.5-.7.5-1.8.1-2.4-.4-.8-.3-.9.4-.5s1.3.2 1.3-.3c.3-2.1.4-2.6 1.2-3.8.5-.7.5-1.3 0-1.3-.4 0-.1-.5.7-1.1 1.3-.8 1.2-.9-.4-.7-1 .2-2.1-.3-2.4-1.1-.2-.8 0-1.1.5-.8.5.3 1 0 1-.8 0-.9-.7-1.4-1.5-1.3-.8.2-1.6-.5-1.7-1.4-.3-1.4 0-1.6 1.5-.8 1.3.7 2.1.5 3.1-.7.8-1 .9-1.4.2-1-.6.4-1.4.3-1.7-.2-.4-.5-.2-1.2.4-1.6.5-.3 1-1.2 1-1.8 0-.8-.3-.9-.8-.1-.4.6-1.3.4-2.4-.8-1-1-1.3-1.8-.8-1.8.6 0 1-.7 1-1.6 0-.8.5-1.2 1-.9.8.5.7 1.1-.1 2.1-.7.8-.7 1.4-.1 1.4 1.6 0 2.1-2.4.8-4.1-.6-.9-1.8-1.4-2.6-1.1-.8.3-.4-.5 1-1.6 1.4-1.2 2-2.1 1.5-2.2-.6 0-1.7.6-2.5 1.2-1.2 1.1-1.2 1-.2-.3.6-.9.8-2 .4-2.4-.4-.5.1-.5 1.1-.2 1.3.5 1.7.3 1.4-.5-.2-.7-1-1.2-1.6-1-.8.1-.6-.8.4-2.8.9-1.6 1.2-3 .8-3-.5 0-.1-.5.7-1.1 1.3-.9 1.3-1 0-.6-.8.2-1.4 1-1.2 1.7.3 1.1 0 1.1-1.2 0-1.8-1.4-2.2-2.5-.6-1.5.6.3 1-.1 1-1s.5-1.3 1.1-.9c.8.5.8.1 0-1.4-.6-1.1-1.4-2.2-1.8-2.4-.5-.3-.3-.4.4-.2 2 .5 2.3-.9.5-2.3-1.5-1.3-1.5-1.3.8-.8 1.4.4 2 .3 1.5-.2-1.3-1-1.3-2.2.3-5.3 1.1-2.1 1.1-2.3-.1-.8-1.2 1.5-1.4 1.5-2.7-.5-1.7-2.7-1.9-3.8-.7-5.4.5-.7.5-1.8.1-2.4-.4-.8-.3-.9.4-.5s1.3.2 1.3-.3c.3-2.1.4-2.6 1.2-3.9.5-.6.5-1.2 0-1.2-.4 0-.1-.5.7-1.1 1.3-.8 1.2-.9-.4-.7-1 .2-2.1-.3-2.4-1.1-.2-.8 0-1.1.5-.8.5.3 1 0 1-.8 0-.9-.7-1.4-1.5-1.3-.8.2-1.6-.5-1.7-1.4-.3-1.4 0-1.6 1.5-.8 1.3.7 2.1.5 3.1-.7.8-1 .9-1.4.2-1-.6.4-1.4.3-1.7-.2-.4-.5-.2-1.2.4-1.6.5-.3 1-1.2 1-1.8 0-.8-.3-.9-.8-.1-.4.6-1.3.4-2.4-.8-1-1-1.3-1.8-.8-1.8.6 0 1-.7 1-1.6 0-.8.5-1.2 1-.9.8.5.7 1.1-.1 2.1-.7.8-.7 1.4-.1 1.4 1.6 0 2.1-2.4.8-4.1-.6-.9-1.8-1.4-2.6-1.1-.8.3-.4-.5 1-1.6 1.4-1.2 2-2.1 1.5-2.2-.6 0-1.7.6-2.5 1.2-1.2 1.1-1.2 1-.2-.3.6-.9.8-2 .4-2.4-.4-.5.1-.5 1.1-.2 1.3.5 1.7.3 1.4-.5-.2-.7-1-1.2-1.6-1-.8.1-.6-.8.4-2.8.9-1.6 1.2-3 .8-3-.5 0-.1-.5.7-1.1 1.3-.9 1.3-1 0-.6-.8.2-1.4 1-1.2 1.7.3 1.1 0 1.1-1.2 0-1.8-1.4-2.2-2.5-.6-1.5.6.3 1-.1 1-1s.5-1.3 1.1-.9c.8.5.8.1 0-1.4-.6-1.1-1.4-2.2-1.8-2.4-.5-.3-.3-.4.4-.2 2 .5 2.3-.9.5-2.3-1.5-1.3-1.5-1.3.8-.8 1.4.4 2 .3 1.5-.2-1.3-1-1.3-2.2.3-5.3 1.1-2.1 1.1-2.3-.1-.8-1.2 1.5-1.4 1.5-2.7-.5-1.7-2.7-1.9-3.8-.7-5.4.5-.7.5-1.8.1-2.4-.4-.8-.3-.9.4-.5s1.3.2 1.3-.3c.3-2.1.4-2.6 1.2-3.9.5-.6.5-1.2 0-1.2-.4 0-.1-.5.7-1.1 1.3-.8 1.2-.9-.4-.7-1 .2-2.1-.3-2.4-1.1-.2-.8 0-1.1.5-.8.5.3 1 0 1-.8 0-.9-.7-1.4-1.5-1.3-.8.2-1.6-.5-1.7-1.4-.3-1.4 0-1.6 1.5-.8 1.3.7 2.1.5 3.1-.7.8-1 .9-1.4.2-1-.6.4-1.4.3-1.7-.2-.4-.5-.2-1.2.4-1.6.5-.3 1-1.2 1-1.8 0-.8-.3-.9-.8-.1-.4.6-1.3.4-2.4-.8-1-1-1.4-1.8-.8-1.8.6 0 1-.7 1-1.6 0-.8.5-1.2 1-.9.8.5.7 1.1-.1 2.1-.7.8-.7 1.4-.1 1.4 1.6 0 2.1-2.4.8-4.1-.6-.9-1.8-1.4-2.6-1.1-.8.3-.4-.5 1-1.6 1.4-1.2 2-2.1 1.5-2.2-.6 0-1.7.6-2.5 1.2-1.2 1.1-1.2 1-.2-.3.6-.9.8-2 .4-2.4-.4-.5.1-.5 1.1-.2 1.3.5 1.7.3 1.4-.5-.2-.7-1-1.2-1.6-1-.8.1-.6-.8.4-2.8.9-1.6 1.2-3 .8-3-.5 0-.1-.5.7-1.1 1.3-.9 1.3-1 0-.6-.8.2-1.4 1-1.2 1.7.3 1.1 0 1.1-1.2 0-1.8-1.4-2.2-2.5-.6-1.5.6.3 1-.1 1-1s.5-1.3 1.1-.9c.8.5.8.1 0-1.4-.6-1.1-1.4-2.2-1.8-2.4-.5-.3-.3-.4.4-.2 2 .5 2.3-.9.5-2.3-1.5-1.3-1.5-1.3.8-.8 1.4.4 2 .3 1.5-.2-1.3-1-1.3-2.2.3-5.3 1.1-2.1 1.1-2.3-.1-.8-1.2 1.5-1.4 1.5-2.7-.5-1.7-2.7-1.9-3.8-.7-5.4.5-.7.5-1.8.1-2.4-.4-.8-.3-.9.4-.5s1.3.2 1.3-.3c.3-2.1.4-2.6 1.2-3.9.5-.6.5-1.2 0-1.2-.4 0-.1-.5.7-1.1 1.3-.8 1.2-.9-.4-.7-1 .2-2.1-.3-2.4-1.1-.2-.8 0-1.1.5-.8.5.3 1 0 1-.8 0-.9-.7-1.4-1.5-1.3-.8.2-1.6-.5-1.7-1.4-.3-1.4 0-1.6 1.5-.8 1.3.7 2.1.5 3.1-.7.8-1 .9-1.4.2-1-.6.4-1.4.3-1.7-.2-.4-.5-.2-1.2.4-1.6.5-.3 1-1.2 1-1.8 0-.8-.3-.9-.8-.1-.4.6-1.3.4-2.4-.8-1-1-1.4-1.8-.8-1.8.6 0 1-.7 1-1.6 0-.8.5-1.2 1-.9.8.5.7 1.1-.1 2.1-.7.8-.7 1.4-.1 1.4 1.6 0 2.1-2.4.8-4.1-.6-.9-1.8-1.4-2.6-1.1-.8.3-.4-.5 1-1.6 1.4-1.2 2-2.1 1.5-2.2-.6 0-1.7.6-2.5 1.2-1.2 1.1-1.2 1-.2-.3.6-.9.8-2 .4-2.4-.4-.5.1-.5 1.1-.2 1.3.5 1.7.3 1.4-.5-.2-.7-1-1.2-1.6-1-.8.1-.6-.8.4-2.8.9-1.6 1.2-3 .8-3-.5 0-.1-.5.7-1.1 1.3-.9 1.3-1 0-.6-.8.2-1.4 1-1.2 1.7.3 1.1 0 1.1-1.2 0-1.8-1.4-2.2-2.5-.6-1.5.6.3 1-.1 1-1s.5-1.3 1.1-.9c.8.5.8.1 0-1.4-.6-1.1-1.4-2.2-1.8-2.4-.5-.3-.3-.4.4-.2 2 .5 2.3-.9.5-2.3-1.5-1.3-1.5-1.3.8-.8 1.4.4 2 .3 1.5-.2-1.3-1-1.3-2.2.3-5.3 1.1-2.1 1.1-2.3-.1-.8-1.2 1.5-1.4 1.5-2.7-.5-1.7-2.7-1.9-3.8-.7-5.4.5-.7.5-1.8.1-2.4-.4-.8-.3-.9.4-.5s1.3.2 1.3-.3c.3-2.1.4-2.6 1.2-3.9.5-.6.5-1.2 0-1.2-.4 0-.1-.5.7-1.1 1.3-.8 1.2-.9-.4-.7-1 .2-2.1-.3-2.4-1.1-.2-.8 0-1.1.5-.8.5.3 1 0 1-.8 0-.9-.7-1.4-1.5-1.3-.8.2-1.6-.5-1.7-1.4-.3-1.4 0-1.6 1.5-.8 1.3.7 2.1.5 3.1-.7.8-1 .9-1.4.2-1-.6.4-1.4.3-1.7-.2-.4-.5-.2-1.2.4-1.6.5-.3 1-1.2 1-1.8 0-.8-.3-.9-.8-.1-.4.6-1.3.4-2.4-.8-1-1-1.3-1.8-.8-1.8.6 0 1-.7 1-1.6 0-.8.5-1.2 1-.9.8.5.7 1.1-.1 2.1-.7.8-.7 1.4-.1 1.4 1.4 0 2.3-2.8 1.2-3.5-1.5-.9-1.2-2.5.4-1.9.8.3 1.7 0 2.2-.7.4-.8.3-1-.4-.5-2.3 1.4-3.2-.5-1.6-3.2 1-1.7 1.1-2.1.2-1-1.3 1.5-1.5 1.5-2.4 0-1.2-2-.7-5.5.7-4.6.6.4.6 1.1-.2 2-.7.8-.7 1.4-.1 1.4 1.4 0 2.3-2.8 1.2-3.5-1.7-1-1.1-2.5.8-1.9.9.3.7-.1-.6-.8-1.2-.8-1.9-1.8-1.5-2.2.4-.5-.3-.3-1.6.4-1.5.8-2.1.8-1.7.1.9-1.4 0-1.4-2.4-.1-1.3.7-2.1.7-2.5 0-.4-.6-.3-1 .2-.9 1.9.3 3.3-.2 3.3-1.2 0-.8-.4-.8-1.2-.2-1.6 1.1-2.8 1.1-4.8-.2-1.3-.7-1.3-.6-.2.7 1 1.3 1 1.8.1 2.4-.8.5-.9.3-.4-.5.5-.9.1-1.2-1.1-1-1.1.2-2.5 0-3.1-.4-.7-.5-1.3-.6-1.3-.2 0 .3-.9.1-2-.5-1.6-.9-1.8-.8-1.4.5.3.8 1.1 1.2 1.7.8.6-.3.7-.1.3.6-.4.6-1.3.8-1.9.4-1.8-1.1-7.1-1-7.9.2-.5.7-.8.6-.8-.1 0-.6-1.7-1-4-.9-2.1.1-3.7-.2-3.4-.7.3-.4 1.1-.5 1.7-.2.7.4.8.3.4-.1-1.4-1.6-3.7-1.4-3.7.3-.1 1.4-.3 1.4-1.6-.3-1.6-1.9-1.6-1.9-.9.5.3 1.4.3 2-.2 1.5-.4-.6-1.5-1-2.3-1-.8.1-2.3-.6-3.3-1.4-1.6-1.3-1.7-1.3-1.2.1.4.9.1 1.9-.6 2.4-.8.5-1 .3-.4-.6.6-1 .4-1.2-.8-.7-1.2.4-1.7.1-1.8-1.1-.1-1.1-.4-.8-.9.8l-.8 2.5-.1-2.5c-.1-1.9-.3-2.2-1-1-.6.8-.7 1.8-.4 2.4.3.5.1.6-.6.2-.6-.4-.9-1.1-.6-1.6.7-1.1-2.2-.7-3.2.5-.4.4-.2.5.6 0 1-.6 1.2-.4.6.5-.6 1-1.2.8-2.6-.8-1.3-1.7-1.8-1.9-2.2-.8-.3.8-.2 1.7.4 2 .5.2.4.3-.3.2-.7-.2-1.2-.8-1.1-1.3.3-1.6-3.7-1-4.7.7-.5.8-1 1-1 .4s-1.7-1-3.9-1c-2.4.1-3.7-.3-3.4-1 .2-.6-.3-1.1-1.1-1.1s-1.2.6-.8 1.5c.3 1 .1 1.3-.6.8-.7-.4-1.2-.2-1.2.6 0 1-.2 1-.9 0-.4-.8-1.2-1.4-1.6-1.4-.4 0-1.2.6-1.6 1.4-.5.7-.9.8-.9.3 0-1.4-10.3-1.4-11.2 0-.5.6-.8.5-.8-.3 0-.7-.4-1-1-.7-.6.3-1-.2-1.1-1.2-.1-1.3-.3-1.1-.9.7l-.8 2.5-.1-2.5c-.1-1.9-.3-2.2-1-1-.6.8-.7 1.8-.4 2.4.3.5.1.6-.6.2-.6-.4-.9-1.1-.6-1.6.7-1.1-2.2-.7-3.2.5-.4.4-.2.5.6 0 1-.6 1.2-.4.6.5-.6 1-1.2.8-2.6-.8-1.3-1.7-1.8-1.9-2.2-.8-.3.8-.2 1.7.4 2 .5.2.4.3-.3.2-.7-.2-1.2-1-1-1.7.2-.8.1-1.1-.3-.7-.4.4-1.8.3-3.1-.2-1.8-.7-2.2-.6-1.8.5.3.7 1.3 1.1 2.2.8 1.4-.4 1.5-.3.2.5-.8.6-1.9.8-2.5.4-1.6-1.1-6.9-.9-7.7.3-.5.7-.8.6-.8-.1 0-.6-1.7-1-4-.9-2.1.1-3.7-.2-3.4-.7.3-.4 1.1-.5 1.7-.2.7.4.8.3.4-.1-1.4-1.6-3.7-1.4-3.7.3-.1 1.4-.3 1.4-1.6-.3-1.6-1.9-1.6-1.9-.9.5.3 1.4.3 2-.2 1.5-.4-.6-1.5-1-2.3-1-.8.1-2.3-.6-3.3-1.4-1.6-1.3-1.7-1.3-1.2.1.4.9.1 1.9-.6 2.4-.8.5-1 .3-.4-.6.6-1 .4-1.2-.8-.7-1.2.4-1.7.1-1.8-1.1-.1-1.1-.4-.8-.9.8l-.8 2.5-.1-2.5c-.1-1.9-.3-2.2-1-1-.6.8-.7 1.8-.4 2.4.3.5.1.6-.6.2-.6-.4-.9-1.1-.6-1.6.7-1.1-2.2-.7-3.2.5-.4.4-.2.5.6 0 1-.6 1.2-.4.6.5-.6 1-1.2.8-2.6-.8-1.3-1.7-1.8-1.9-2.2-.8-.3.8-.2 1.7.4 2 .5.2.4.3-.3.2-.7-.2-1.2-.8-1.1-1.3.3-1.6-3.7-1-4.7.7-.5.8-1 1-1 .4s-1.7-1-3.9-1c-2.4.1-3.7-.3-3.4-1 .2-.6-.3-1.1-1.1-1.1s-1.2.6-.8 1.5c.3 1 .1 1.3-.6.8-.7-.4-1.2-.2-1.2.6 0 1-.2 1-.9 0-1.1-1.7-2.1-1.7-3.2 0-.5.7-.9.8-.9.3 0-1.4-10.3-1.4-11.2 0-.5.6-.8.5-.8-.3 0-.7-.4-1-1-.7-.5.3-1-.2-1.1-1.2-.1-1.3-.3-1.1-.9.7l-.8 2.5-.1-2.5c-.1-1.9-.3-2.2-1-1-.6.8-.7 1.8-.4 2.4.3.5.1.6-.6.2-.6-.4-.9-1.1-.6-1.6.7-1.1-2.2-.7-3.2.5-.4.4-.2.5.6 0 1-.6 1.2-.4.6.5-.6 1-1.2.8-2.6-.8-1.3-1.7-1.8-1.9-2.2-.8-.3.8-.2 1.7.4 2 .5.2.4.3-.3.2-.7-.2-1.2-1-1-1.7.2-.8.1-1.1-.3-.7-.4.4-1.8.3-3.1-.2-1.8-.7-2.2-.6-1.8.5.3.7 1.3 1.1 2.2.8 1.4-.4 1.5-.3.2.5-.8.6-1.9.8-2.5.4-1.6-1.1-6.9-.9-7.7.3-.5.7-.8.6-.8-.1 0-.6-1.7-1-4-.9-2.1.1-3.7-.2-3.4-.7.3-.4 1.1-.5 1.7-.2.7.4.8.3.4-.1-1.4-1.6-3.7-1.4-3.7.3-.1 1.4-.3 1.4-1.6-.3-1.6-1.9-1.6-1.9-.9.5.3 1.4.3 2-.2 1.5-.4-.6-1.5-1-2.3-1-.8.1-2.3-.6-3.3-1.4-1.6-1.3-1.7-1.3-1.2.1.4.9.1 1.9-.6 2.4-.8.5-1 .3-.4-.6.6-1 .4-1.2-.8-.7-1.2.4-1.7.1-1.8-1.1-.1-1.1-.4-.8-.9.8l-.8 2.5-.1-2.5c-.1-1.9-.3-2.2-1-1-.6.8-.7 1.8-.4 2.4.3.5.1.6-.6.2-.6-.4-.9-1.1-.6-1.6.7-1.1-2.2-.7-3.2.5-.4.4-.2.5.6 0 1-.6 1.2-.4.6.5-.6 1-1.2.8-2.6-.8-1.3-1.7-1.8-1.9-2.2-.8-.3.8-.2 1.7.4 2 .5.2.4.3-.3.1-.7-.1-1.2-.7-1.1-1.2.3-1.6-3.7-1-4.7.7-.5.8-1 1-1 .4s-1.7-1-3.9-1c-2.4.1-3.7-.3-3.4-1 .2-.6-.3-1.1-1.1-1.1s-1.2.6-.8 1.5c.3 1 .1 1.3-.6.8-.7-.4-1.2-.2-1.2.6 0 1-.2 1-.9 0-.4-.8-1.2-1.4-1.6-1.4-.4 0-1.2.6-1.6 1.4-.5.7-.9.8-.9.3 0-1.4-10.3-1.4-11.2 0-.5.6-.8.5-.8-.3 0-.7-.4-1-1-.7-.5.3-1-.2-1.1-1.2-.1-1.3-.3-1.1-.9.7l-.8 2.5-.1-2.5c-.1-1.9-.3-2.2-1-1-.6.8-.7 1.8-.4 2.4.3.5.1.6-.6.2-.6-.4-.9-1.1-.6-1.6.7-1.1-2.2-.7-3.2.5-.4.4-.2.5.6 0 1-.6 1.2-.4.6.5-.6 1-1.2.8-2.6-.8-1.3-1.7-1.8-1.9-2.2-.8-.3.8-.2 1.7.4 2 .5.2.4.3-.3.1-.7-.1-1.2-.9-1-1.6.2-.8.1-1.1-.3-.7-.4.4-1.8.3-3.1-.2-1.8-.7-2.2-.6-1.8.5.3.7 1.3 1.1 2.2.8 1.4-.4 1.5-.3.2.5-.8.6-1.9.8-2.5.4-1.6-1.1-6.9-.9-7.7.3-.5.7-.8.6-.8-.1 0-.6-1.7-1-4-.9-2.1.1-3.7-.2-3.4-.7.3-.4 1.1-.5 1.7-.2.7.4.8.3.4-.1-1.4-1.6-3.7-1.4-3.7.3-.1 1.4-.3 1.4-1.6-.3-1.6-1.9-1.6-1.9-.9.5.3 1.4.3 2-.2 1.5-.4-.6-1.5-1-2.3-1-.8.1-2.3-.6-3.3-1.4-1.6-1.3-1.7-1.3-1.2.1.4.9.1 1.9-.6 2.4-.8.5-1 .3-.4-.6.6-1 .4-1.2-.8-.7-1.2.4-1.7.1-1.8-1.1-.1-1.1-.4-.8-.9.8l-.8 2.5-.1-2.5c-.1-1.9-.3-2.2-1-1-.6.8-.7 1.8-.4 2.4.3.5.1.6-.6.2-.6-.4-.9-1.1-.6-1.6.7-1.1-2.2-.7-3.2.5-.4.4-.2.5.6 0 1-.6 1.2-.4.6.5-.6 1-1.2.8-2.6-.8-1.3-1.7-1.8-1.9-2.2-.8-.3.8-.2 1.7.4 2 .5.2.4.3-.3.1-.7-.1-1.2-.7-1.1-1.2.3-1.6-3.7-1-4.7.7-.5.8-1 1-1 .4s-1.7-1-3.9-1c-2.4.1-3.7-.3-3.4-1 .2-.6-.3-1.1-1.1-1.1s-1.2.6-.8 1.5c.3 1 .1 1.3-.6.8-.7-.4-1.2-.2-1.2.6 0 1-.2 1-.9 0-1.1-1.7-2.1-1.7-3.2 0-.5.7-.9.8-.9.3 0-1.4-10.3-1.4-11.2 0-.5.6-.8.5-.8-.3 0-.7-.4-1-1-.7-.5.3-1-.2-1.1-1.2-.1-1.3-.3-1.1-.9.7l-.8 2.5-.1-2.5c-.1-1.9-.3-2.2-1-1-.6.8-.7 1.8-.4 2.4.3.5.1.6-.6.2-.6-.4-.9-1.1-.6-1.6.7-1.1-2.2-.7-3.2.5-.4.4-.2.5.6 0 1-.6 1.2-.4.6.5-.6 1-1.2.8-2.6-.8-1.3-1.7-1.8-1.9-2.2-.8-.3.8-.2 1.7.4 2 .5.2.4.3-.3.2-.7-.2-1.2-1-1-1.7.2-.8.1-1.1-.3-.7-.4.4-1.8.3-3.1-.2-1.8-.7-2.2-.6-1.8.5.3.7 1.3 1.1 2.2.8 1.4-.4 1.5-.3.2.5-.8.6-1.9.8-2.5.4-1.6-1.1-6.9-.9-7.7.3-.5.7-.8.6-.8-.1 0-.6-1.7-1-4-.9-2.1.1-3.7-.2-3.4-.7.3-.4 1.1-.5 1.7-.2.7.4.8.3.4-.1-1.4-1.6-3.7-1.4-3.7.3-.1 1.4-.3 1.4-1.6-.3-1.6-1.9-1.6-1.9-.9.5.3 1.4.3 2-.2 1.5-.4-.6-1.5-1-2.3-1-.8.1-2.3-.6-3.3-1.4-1.6-1.3-1.7-1.3-1.2.1.4.9.1 1.9-.6 2.4-.8.5-1 .3-.4-.6.6-1 .4-1.2-.8-.7-1.2.4-1.7.1-1.8-1.1-.1-1.1-.4-.8-.9.8l-.8 2.5-.1-2.5c-.1-1.9-.3-2.2-1-1-.6.8-.7 1.8-.4 2.4.3.5.1.6-.6.2-.6-.4-.9-1.1-.6-1.6.7-1.1-2.2-.7-3.2.5-.4.4-.2.5.6 0 1-.6 1.2-.4.6.5-.6 1-1.2.8-2.6-.8-1.3-1.7-1.8-1.9-2.2-.8-.3.8-.2 1.7.4 2 .5.2.4.3-.3.2-.7-.2-1.2-.8-1.1-1.3.3-1.6-3.7-1-4.7.7-.5.8-1 1-1 .4s-1.7-1-3.9-1c-2.4.1-3.7-.3-3.4-1 .2-.6-.3-1.1-1.1-1.1s-1.2.6-.8 1.5c.3 1 .1 1.3-.6.8-.7-.4-1.2-.2-1.2.6 0 1-.2 1-.9 0-.4-.8-1.2-1.4-1.6-1.4-.4 0-1.2.6-1.6 1.4-.5.7-.9.8-.9.3 0-1.4-10.3-1.4-11.2 0-.5.6-.8.5-.8-.3 0-.7-.4-1-1-.7-.5.3-1-.2-1.1-1.2-.1-1.3-.3-1.1-.9.7l-.8 2.5-.1-2.5c-.1-1.9-.3-2.2-1-1-.6.8-.7 1.8-.4 2.4.3.5.1.6-.6.2-.6-.4-.9-1.1-.6-1.6.7-1.1-2.2-.7-3.2.5-.4.4-.2.5.6 0 1-.6 1.2-.4.6.5-.6 1-1.2.8-2.6-.8-1.3-1.7-1.8-1.9-2.2-.8-.3.8-.2 1.7.4 2 .5.2.4.3-.3.1-.7-.1-1.2-.9-1-1.6.2-.8.1-1.1-.3-.7-.4.4-1.8.3-3.1-.2-1.8-.7-2.2-.6-1.8.5.3.7 1.3 1.1 2.2.8 1.4-.4 1.5-.3.2.5-.8.6-1.9.8-2.5.4-1.6-1.1-6.9-.9-7.7.3-.5.7-.8.6-.8-.1 0-.6-1.7-1-4-.9-2.1.1-3.7-.2-3.4-.7.3-.4 1.1-.5 1.7-.2.7.4.8.3.4-.1-1.4-1.6-3.7-1.4-3.7.3-.1 1.4-.3 1.4-1.6-.3-1.6-1.9-1.6-1.9-.9.5.3 1.4.3 2-.2 1.5-.4-.6-1.5-1-2.3-1-.8.1-2.3-.6-3.3-1.4-1.6-1.3-1.7-1.3-1.2.1.4.9.1 1.9-.6 2.4-.8.5-1 .3-.4-.6.6-1 .4-1.2-.8-.7-1 .4-1.7 0-2-1.1-.3-1.1-.5-.9-.7.8l-.2 2.5L13 17c-.5-1.4-.9-1.8-1-1zm-5 4c0 .5-.2 1-.4 1-.3 0-.8-.5-1.1-1-.3-.6-.1-1 .4-1 .6 0 1.1.4 1.1 1zm537.1 1.7c-1.2 2-1.4 1.4-.5-1.2.4-.9.9-1.4 1.1-1.1.3.2 0 1.3-.6 2.3zm1.5 9c-.2.9-.8 1.8-1.5 1.9-.8.2-.8.1 0-.3s.7-.8-.2-1.4c-1.1-.7-1.1-.9-.1-.9.7 0 1-.5.6-1.2-.4-.6-.3-.8.4-.5.5.4.9 1.5.8 2.4zm-.1 11.1c-.3.3.1 1.2.7 2.1 1 1.4 1 1.4-.2.3-.8-.7-1.5-1.8-1.5-2.5-.1-.7-.7-1.1-1.4-.9-.7.1-1-.2-.6-.8.5-.8 1.1-.7 2.1.1.8.6 1.2 1.4.9 1.7zM6 48c0 .5-.4 1-1 1-.5 0-1-.5-1-1 0-.6.5-1 1-1 .6 0 1 .4 1 1zm540 6.5c-.5.6-.8 1.5-.5 1.9.3.3-.2 0-1.1-.8-1.9-1.6-1-3.8 1.2-2.9 1 .4 1.2.9.4 1.8zm-.4 16.1c.1.9 0 1.3-.3 1-.4-.3-1.3 0-2.2.7-1.4 1-1.4 1-.5-.3.6-.8 1-2.3.8-3.4-.2-1.4 0-1.6.9-.7.6.6 1.2 1.8 1.3 2.7zM6 72c0 .5-.4 1-1 1-.5 0-1-.5-1-1 0-.6.5-1 1-1 .6 0 1 .4 1 1zm538.5 14c.3.5.1 1-.4 1-.6 0-1.1-.5-1.1-1 0-.6.2-1 .4-1 .3 0 .8.4 1.1 1zM6 96c0 .5-.4 1-1 1-.5 0-1-.5-1-1 0-.6.5-1 1-1 .6 0 1 .4 1 1zm539.5 9.8c-.3.3.1 1.2.7 2.1 1 1.4 1 1.4-.2.3-.8-.7-1.5-1.8-1.5-2.5-.1-.7-.7-1.1-1.4-.9-.7.1-1-.2-.6-.8.5-.8 1.1-.7 2.1.1.8.6 1.2 1.4.9 1.7zm.5 12.7c-.5.6-.8 1.5-.5 1.9.3.3-.2 0-1.1-.8-1.9-1.6-1-3.8 1.2-2.9 1 .4 1.2.9.4 1.8zM6 120c0 .5-.4 1-1 1-.5 0-1-.5-1-1 0-.6.5-1 1-1 .6 0 1 .4 1 1zm539.6 14.6c.1.9 0 1.3-.3 1-.4-.3-1.3 0-2.2.7-1.4 1-1.4 1-.5-.3.6-.8 1-2.3.8-3.4-.2-1.4 0-1.6.9-.7.6.6 1.2 1.8 1.3 2.7zM6 144c0 .5-.4 1-1 1-.5 0-1-.5-1-1 0-.6.5-1 1-1 .6 0 1 .4 1 1zm538.5 6c.3.5.1 1-.4 1-.6 0-1.1-.5-1.1-1 0-.6.2-1 .4-1 .3 0 .8.4 1.1 1zM6 168c0 .5-.4 1-1 1-.5 0-1-.5-1-1 0-.6.5-1 1-1 .6 0 1 .4 1 1zm539.5 1.8c-.3.3.1 1.2.7 2.1 1 1.4 1 1.4-.2.3-.8-.7-1.5-1.8-1.5-2.5-.1-.7-.7-1.1-1.4-.9-.7.1-1-.2-.6-.8.5-.8 1.1-.7 2.1.1.8.6 1.2 1.4.9 1.7zm.5 12.7c-.5.6-.8 1.5-.5 1.9.3.3-.2 0-1.1-.8-1.9-1.6-1-3.8 1.2-2.9 1 .4 1.2.9.4 1.8zM6 192c0 .5-.4 1-1 1-.5 0-1-.5-1-1 0-.6.5-1 1-1 .6 0 1 .4 1 1zm539.6 6.6c.1.9 0 1.3-.3 1-.4-.3-1.3 0-2.2.7-1.4 1-1.4 1-.5-.3.6-.8 1-2.3.8-3.4-.2-1.4 0-1.6.9-.7.6.6 1.2 1.8 1.3 2.7zm-1.1 15.4c.3.5.1 1-.4 1-.6 0-1.1-.5-1.1-1 0-.6.2-1 .4-1 .3 0 .8.4 1.1 1zM6 216c0 .5-.4 1-1 1-.5 0-1-.5-1-1 0-.6.5-1 1-1 .6 0 1 .4 1 1zm539.5 17.8c-.3.3.1 1.2.7 2.1 1 1.4 1 1.4-.2.3-.8-.7-1.5-1.8-1.5-2.5-.1-.7-.7-1.1-1.4-.9-.7.1-1-.2-.6-.8.5-.8 1.1-.7 2.1.1.8.6 1.2 1.4.9 1.7zM6 240c0 .5-.4 1-1 1-.5 0-1-.5-1-1 0-.6.5-1 1-1 .6 0 1 .4 1 1zm540 6.5c-.5.6-.8 1.5-.5 1.9.3.3-.2 0-1.1-.8-1.9-1.6-1-3.8 1.2-2.9 1 .4 1.2.9.4 1.8zm-.4 16.1c.1.9 0 1.3-.3 1-.4-.3-1.3 0-2.2.7-1.4 1-1.4 1-.5-.3.6-.8 1-2.3.8-3.4-.2-1.4 0-1.6.9-.7.6.6 1.2 1.8 1.3 2.7zM6 264c0 .5-.4 1-1 1-.5 0-1-.5-1-1 0-.6.5-1 1-1 .6 0 1 .4 1 1zm538.5 14c.3.5.1 1-.4 1-.6 0-1.1-.5-1.1-1 0-.6.2-1 .4-1 .3 0 .8.4 1.1 1zM6 288c0 .5-.4 1-1 1-.5 0-1-.5-1-1 0-.6.5-1 1-1 .6 0 1 .4 1 1zm539.5 9.8c-.3.3.1 1.2.7 2.1 1 1.4 1 1.4-.2.3-.8-.7-1.5-1.8-1.5-2.5-.1-.7-.7-1.1-1.4-.9-.7.1-1-.2-.6-.8.5-.8 1.1-.7 2.1.1.8.6 1.2 1.4.9 1.7zm.5 12.7c-.5.6-.8 1.5-.5 1.9.3.3-.2 0-1.1-.8-1.9-1.6-1-3.8 1.2-2.9 1 .4 1.2.9.4 1.8zM6 312c0 .5-.4 1-1 1-.5 0-1-.5-1-1 0-.6.5-1 1-1 .6 0 1 .4 1 1zm539.6 14.6c.1.9 0 1.3-.3 1-.4-.3-1.3 0-2.2.7-1.4 1-1.4 1-.5-.3.6-.8 1-2.3.8-3.4-.2-1.4 0-1.6.9-.7.6.6 1.2 1.8 1.3 2.7zM6 336c0 .5-.4 1-1 1-.5 0-1-.5-1-1 0-.6.5-1 1-1 .6 0 1 .4 1 1zm538.5 6c.3.5.1 1-.4 1-.6 0-1.1-.5-1.1-1 0-.6.2-1 .4-1 .3 0 .8.4 1.1 1zM6 360c0 .5-.4 1-1 1-.5 0-1-.5-1-1 0-.6.5-1 1-1 .6 0 1 .4 1 1zm539.5 1.8c-.3.3.1 1.2.7 2.1 1 1.4 1 1.4-.2.3-.8-.7-1.5-1.8-1.5-2.5-.1-.7-.7-1.1-1.4-.9-.7.1-1-.2-.6-.8.5-.8 1.1-.7 2.1.1.8.6 1.2 1.4.9 1.7zm.5 12.7c-.5.6-.8 1.5-.5 1.9.3.3-.2 0-1.1-.8-1.9-1.6-1-3.8 1.2-2.9 1 .4 1.2.9.4 1.8zM6 384c0 .5-.4 1-1 1-.5 0-1-.5-1-1 0-.6.5-1 1-1 .6 0 1 .4 1 1zm539.6 6.6c.1.9 0 1.3-.3 1-.4-.3-1.3 0-2.2.7-1.4 1-1.4 1-.5-.3.6-.8 1-2.3.8-3.4-.2-1.4 0-1.6.9-.7.6.6 1.2 1.8 1.3 2.7zm-1.1 15.4c.3.5.1 1-.4 1-.6 0-1.1-.5-1.1-1 0-.6.2-1 .4-1 .3 0 .8.4 1.1 1zM6 408c0 .5-.4 1-1 1-.5 0-1-.5-1-1 0-.6.5-1 1-1 .6 0 1 .4 1 1zm539.5 17.8c-.3.3.1 1.2.7 2.1 1 1.4 1 1.4-.2.3-.8-.7-1.5-1.8-1.5-2.5-.1-.7-.7-1.1-1.4-.9-.7.1-1-.2-.6-.8.5-.8 1.1-.7 2.1.1.8.6 1.2 1.4.9 1.7zM6 432c0 .5-.4 1-1 1-.5 0-1-.5-1-1 0-.6.5-1 1-1 .6 0 1 .4 1 1zm540 6.5c-.5.6-.8 1.5-.5 1.9.3.3-.2 0-1.1-.8-1.9-1.6-1-3.8 1.2-2.9 1 .4 1.2.9.4 1.8zm-.4 16.1c.1.9 0 1.3-.3 1-.4-.3-1.3 0-2.2.7-1.4 1-1.4 1-.5-.3.6-.8 1-2.3.8-3.4-.2-1.4 0-1.6.9-.7.6.6 1.2 1.8 1.3 2.7zM6 456c0 .5-.4 1-1 1-.5 0-1-.5-1-1 0-.6.5-1 1-1 .6 0 1 .4 1 1zm538.5 14c.3.5.1 1-.4 1-.6 0-1.1-.5-1.1-1 0-.6.2-1 .4-1 .3 0 .8.4 1.1 1zM6 480c0 .5-.4 1-1 1-.5 0-1-.5-1-1 0-.6.5-1 1-1 .6 0 1 .4 1 1zm0 24c0 .5-.4 1-1 1-.5 0-1-.5-1-1 0-.6.5-1 1-1 .6 0 1 .4 1 1zm540.5 7.9c.3.5.1 1.3-.5 1.6-.8.5-.7 1.2.2 2.3 1 1.4 1 1.5-.2.5-1.6-1.5-2.4-5.3-1.1-5.3.6 0 1.2.4 1.6.9zm-.7 13c1 .6.9 1.1-.4 2.2-1.4 1.1-1.6 1.1-1 0 .5-.8.3-1.7-.5-2.2-.8-.5-.9-.9-.4-.9.6 0 1.6.4 2.3.9zM6.5 528c.3.6-.1.7-.9.4-1.8-.7-2.1-1.4-.7-1.4.6 0 1.3.4 1.6 1zm63.8 4c.3-.6.5-.6.3.1-.4 2.1-3.2 1.8-3.2-.3 0-1.7.2-1.8 1.2-.3.8 1 1.4 1.2 1.7.5zm96 0c.3-.6.5-.6.3.1-.4 2.1-3.2 1.8-3.2-.3 0-1.7.2-1.8 1.2-.3.8 1 1.4 1.2 1.7.5zm96 0c.3-.6.5-.6.3.1-.4 2.1-3.2 1.8-3.2-.3 0-1.7.2-1.8 1.2-.3.8 1 1.4 1.2 1.7.5zm96 0c.3-.6.5-.6.3.1-.4 2.1-3.2 1.8-3.2-.3 0-1.7.2-1.8 1.2-.3.8 1 1.4 1.2 1.7.5zm96 0c.3-.6.5-.6.3.1-.4 2.1-3.2 1.8-3.2-.3 0-1.7.2-1.8 1.2-.3.8 1 1.4 1.2 1.7.5zm88.6.6c-.9 1.1-1.5 1.2-2.6.3-.7-.7-1.1-1.4-.8-1.8.3-.3 1 .1 1.5.9.9 1.4 1.4.7 1.1-1.3-.1-.5.3-.6.9-.2.8.5.7 1.1-.1 2.1z"/><path d="M39.6 15.9c-.3.4.6.7 1.9.7 1.4 0 2.2-.2 1.9-.5-.8-.8-3.4-1-3.8-.2zm24.8-.1c.4.3 1.4.7 2.2.8.9.1 1.3 0 1-.4-.4-.3-1.4-.7-2.2-.8-.9-.1-1.3 0-1 .4zm11.2.1c-.3.4.6.7 1.9.7 1.4 0 2.2-.2 1.9-.5-.8-.8-3.4-1-3.8-.2zm12.8-.1c.4.3 1.4.7 2.2.8.9.1 1.3 0 1-.4-.4-.3-1.4-.7-2.2-.8-.9-.1-1.3 0-1 .4zm47.2.1c-.3.4.6.7 1.9.7 1.4 0 2.2-.2 1.9-.5-.8-.8-3.4-1-3.8-.2zm24.8-.1c.4.3 1.4.7 2.2.8.9.1 1.3 0 1-.4-.4-.3-1.4-.7-2.2-.8-.9-.1-1.3 0-1 .4zm11.2.1c-.3.4.6.7 1.9.7 1.4 0 2.2-.2 1.9-.5-.8-.8-3.4-1-3.8-.2zm12.8-.1c.4.3 1.4.7 2.2.8.9.1 1.3 0 1-.4-.4-.3-1.4-.7-2.2-.8-.9-.1-1.3 0-1 .4zm47.2.1c-.3.4.6.7 1.9.7 1.4 0 2.2-.2 1.9-.5-.8-.8-3.4-1-3.8-.2zm24.8-.1c.4.3 1.4.7 2.2.8.9.1 1.3 0 1-.4-.4-.3-1.4-.7-2.2-.8-.9-.1-1.3 0-1 .4zm11.2.1c-.3.4.6.7 1.9.7 1.4 0 2.2-.2 1.9-.5-.8-.8-3.4-1-3.8-.2zm12.8-.1c.4.3 1.4.7 2.2.8.9.1 1.3 0 1-.4-.4-.3-1.4-.7-2.2-.8-.9-.1-1.3 0-1 .4zm47.2.1c-.3.4.6.7 1.9.7 1.4 0 2.2-.2 1.9-.5-.8-.8-3.4-1-3.8-.2zm24.8-.1c.4.3 1.4.7 2.2.8.9.1 1.3 0 1-.4-.4-.3-1.4-.7-2.2-.8-.9-.1-1.3 0-1 .4zm11.2.1c-.3.4.6.7 1.9.7 1.4 0 2.2-.2 1.9-.5-.8-.8-3.4-1-3.8-.2zm12.8-.1c.4.3 1.4.7 2.2.8.9.1 1.3 0 1-.4-.4-.3-1.4-.7-2.2-.8-.9-.1-1.3 0-1 .4zm47.2.1c-.3.4.6.7 1.9.7 1.4 0 2.2-.2 1.9-.5-.8-.8-3.4-1-3.8-.2zm24.8-.1c.4.3 1.4.7 2.2.8.9.1 1.3 0 1-.4-.4-.3-1.4-.7-2.2-.8-.9-.1-1.3 0-1 .4zm11.2.1c-.3.4.6.7 1.9.7 1.4 0 2.2-.2 1.9-.5-.8-.8-3.4-1-3.8-.2zm12.8-.1c.4.3 1.4.7 2.2.8.9.1 1.3 0 1-.4-.4-.3-1.4-.7-2.2-.8-.9-.1-1.3 0-1 .4zm47.2.1c-.3.4.6.7 1.9.7 1.4 0 2.2-.2 1.9-.5-.8-.8-3.4-1-3.8-.2zM3.5 35.1c-.4.6-.5 1.2-.2 1.5.2.3.7-.2 1-1.1.7-1.7.1-2-.8-.4zm-.9 7.1c.3.5 1 .6 1.5.3 1.3-.9 1.1-1.2-.6-1.2-.8 0-1.2.4-.9.9zm544.7 16.3c-.3.9-.3 1.8-.1 2.1.3.3.8-.4 1.1-1.6.6-2.3-.1-2.7-1-.5zm-543.8.6c-.4.6-.5 1.2-.2 1.5.2.3.7-.2 1-1.1.7-1.7.1-2-.8-.4zm541 2.9c-.3.5-.1 1 .4 1 .6 0 1.1.5 1.1 1.1 0 .5-.5.7-1.2.3-.7-.4-.8-.3-.4.4 1.1 1.8 2.6 1.4 2.6-.7 0-2.3-1.6-3.6-2.5-2.1zM2.6 66.2c.3.5 1 .6 1.5.3 1.3-.9 1.1-1.2-.6-1.2-.8 0-1.2.4-.9.9zM547 78c0 .5.5 1 1.1 1 .5 0 .7-.5.4-1-.3-.6-.8-1-1.1-1-.2 0-.4.4-.4 1zM3.5 83.1c-.4.6-.5 1.2-.2 1.5.2.3.7-.2 1-1.1.7-1.7.1-2-.8-.4zM547 87.4c0 .8.4 1.7.9 2 .5.4.7-.3.4-1.4-.6-2.3-1.3-2.6-1.3-.6zM2.6 90.2c.3.5 1 .6 1.5.3 1.3-.9 1.1-1.2-.6-1.2-.8 0-1.2.4-.9.9zM547 96c0 .5.5 1 1.1 1 .5 0 .7-.5.4-1-.3-.6-.8-1-1.1-1-.2 0-.4.4-.4 1zM3.5 107.1c-.4.6-.5 1.2-.2 1.5.2.3.7-.2 1-1.1.7-1.7.1-2-.8-.4zm-.9 7.1c.3.5 1 .6 1.5.3 1.3-.9 1.1-1.2-.6-1.2-.8 0-1.2.4-.9.9zm544.7 8.3c-.3.9-.3 1.8-.1 2.1.3.3.8-.4 1.1-1.6.6-2.3-.1-2.7-1-.5zm-2.8 3.5c-.3.5-.1 1 .4 1 .6 0 1.1.5 1.1 1.1 0 .5-.5.7-1.2.3-.7-.4-.8-.3-.4.4 1.1 1.8 2.6 1.4 2.6-.7 0-2.3-1.6-3.6-2.5-2.1zm-541 5.1c-.4.6-.5 1.2-.2 1.5.2.3.7-.2 1-1.1.7-1.7.1-2-.8-.4zm-.9 7.1c.3.5 1 .6 1.5.3 1.3-.9 1.1-1.2-.6-1.2-.8 0-1.2.4-.9.9zM547 142c0 .5.5 1 1.1 1 .5 0 .7-.5.4-1-.3-.6-.8-1-1.1-1-.2 0-.4.4-.4 1zm0 9.4c0 .8.4 1.7.9 2 .5.4.7-.3.4-1.4-.6-2.3-1.3-2.6-1.3-.6zM3.5 155.1c-.4.6-.5 1.2-.2 1.5.2.3.7-.2 1-1.1.7-1.7.1-2-.8-.4zM547 160c0 .5.5 1 1.1 1 .5 0 .7-.5.4-1-.3-.6-.8-1-1.1-1-.2 0-.4.4-.4 1zM2.6 162.2c.3.5 1 .6 1.5.3 1.3-.9 1.1-1.2-.6-1.2-.8 0-1.2.4-.9.9zm.9 16.9c-.4.6-.5 1.2-.2 1.5.2.3.7-.2 1-1.1.7-1.7.1-2-.8-.4zm-.9 7.1c.3.5 1 .6 1.5.3 1.3-.9 1.1-1.2-.6-1.2-.8 0-1.2.4-.9.9zm544.7.3c-.3.9-.3 1.8-.1 2.1.3.3.8-.4 1.1-1.6.6-2.3-.1-2.7-1-.5zm-2.8 3.5c-.3.5-.1 1 .4 1 .6 0 1.1.5 1.1 1.1 0 .5-.5.7-1.2.3-.7-.4-.8-.3-.4.4 1.1 1.8 2.6 1.4 2.6-.7 0-2.3-1.6-3.6-2.5-2.1zm-541 13.1c-.4.6-.5 1.2-.2 1.5.2.3.7-.2 1-1.1.7-1.7.1-2-.8-.4zM547 206c0 .5.5 1 1.1 1 .5 0 .7-.5.4-1-.3-.6-.8-1-1.1-1-.2 0-.4.4-.4 1zM2.6 210.2c.3.5 1 .6 1.5.3 1.3-.9 1.1-1.2-.6-1.2-.8 0-1.2.4-.9.9zm544.4 5.2c0 .8.4 1.7.9 2 .5.4.7-.3.4-1.4-.6-2.3-1.3-2.6-1.3-.6zm0 8.6c0 .5.5 1 1.1 1 .5 0 .7-.5.4-1-.3-.6-.8-1-1.1-1-.2 0-.4.4-.4 1zM3.5 227.1c-.4.6-.5 1.2-.2 1.5.2.3.7-.2 1-1.1.7-1.7.1-2-.8-.4zm-.9 7.1c.3.5 1 .6 1.5.3 1.3-.9 1.1-1.2-.6-1.2-.8 0-1.2.4-.9.9zm544.7 16.3c-.3.9-.3 1.8-.1 2.1.3.3.8-.4 1.1-1.6.6-2.3-.1-2.7-1-.5zm-543.8.6c-.4.6-.5 1.2-.2 1.5.2.3.7-.2 1-1.1.7-1.7.1-2-.8-.4zm541 2.9c-.3.5-.1 1 .4 1 .6 0 1.1.5 1.1 1.1 0 .5-.5.7-1.2.3-.7-.4-.8-.3-.4.4 1.1 1.8 2.6 1.4 2.6-.7 0-2.3-1.6-3.6-2.5-2.1zM2.6 258.2c.3.5 1 .6 1.5.3 1.3-.9 1.1-1.2-.6-1.2-.8 0-1.2.4-.9.9zM547 270c0 .5.5 1 1.1 1 .5 0 .7-.5.4-1-.3-.6-.8-1-1.1-1-.2 0-.4.4-.4 1zM3.5 275.1c-.4.6-.5 1.2-.2 1.5.2.3.7-.2 1-1.1.7-1.7.1-2-.8-.4zm543.5 4.3c0 .8.4 1.7.9 2 .5.4.7-.3.4-1.4-.6-2.3-1.3-2.6-1.3-.6zM2.6 282.2c.3.5 1 .6 1.5.3 1.3-.9 1.1-1.2-.6-1.2-.8 0-1.2.4-.9.9zM547 288c0 .5.5 1 1.1 1 .5 0 .7-.5.4-1-.3-.6-.8-1-1.1-1-.2 0-.4.4-.4 1zM3.5 299.1c-.4.6-.5 1.2-.2 1.5.2.3.7-.2 1-1.1.7-1.7.1-2-.8-.4zm-.9 7.1c.3.5 1 .6 1.5.3 1.3-.9 1.1-1.2-.6-1.2-.8 0-1.2.4-.9.9zm544.7 8.3c-.3.9-.3 1.8-.1 2.1.3.3.8-.4 1.1-1.6.6-2.3-.1-2.7-1-.5zm-2.8 3.5c-.3.5-.1 1 .4 1 .6 0 1.1.5 1.1 1.1 0 .5-.5.7-1.2.3-.7-.4-.8-.3-.4.4 1.1 1.8 2.6 1.4 2.6-.7 0-2.3-1.6-3.6-2.5-2.1zm-541 5.1c-.4.6-.5 1.2-.2 1.5.2.3.7-.2 1-1.1.7-1.7.1-2-.8-.4zm-.9 7.1c.3.5 1 .6 1.5.3 1.3-.9 1.1-1.2-.6-1.2-.8 0-1.2.4-.9.9zM547 334c0 .5.5 1 1.1 1 .5 0 .7-.5.4-1-.3-.6-.8-1-1.1-1-.2 0-.4.4-.4 1zm0 9.4c0 .8.4 1.7.9 2 .5.4.7-.3.4-1.4-.6-2.3-1.3-2.6-1.3-.6zM3.5 347.1c-.4.6-.5 1.2-.2 1.5.2.3.7-.2 1-1.1.7-1.7.1-2-.8-.4zM547 352c0 .5.5 1 1.1 1 .5 0 .7-.5.4-1-.3-.6-.8-1-1.1-1-.2 0-.4.4-.4 1zM2.6 354.2c.3.5 1 .6 1.5.3 1.3-.9 1.1-1.2-.6-1.2-.8 0-1.2.4-.9.9zm.9 16.9c-.4.6-.5 1.2-.2 1.5.2.3.7-.2 1-1.1.7-1.7.1-2-.8-.4zm-.9 7.1c.3.5 1 .6 1.5.3 1.3-.9 1.1-1.2-.6-1.2-.8 0-1.2.4-.9.9zm544.7.3c-.3.9-.3 1.8-.1 2.1.3.3.8-.4 1.1-1.6.6-2.3-.1-2.7-1-.5zm-2.8 3.5c-.3.5-.1 1 .4 1 .6 0 1.1.5 1.1 1.1 0 .5-.5.7-1.2.3-.7-.4-.8-.3-.4.4 1.1 1.8 2.6 1.4 2.6-.7 0-2.3-1.6-3.6-2.5-2.1zm-541 13.1c-.4.6-.5 1.2-.2 1.5.2.3.7-.2 1-1.1.7-1.7.1-2-.8-.4zM547 398c0 .5.5 1 1.1 1 .5 0 .7-.5.4-1-.3-.6-.8-1-1.1-1-.2 0-.4.4-.4 1zM2.6 402.2c.3.5 1 .6 1.5.3 1.3-.9 1.1-1.2-.6-1.2-.8 0-1.2.4-.9.9zm544.4 5.2c0 .8.4 1.7.9 2 .5.4.7-.3.4-1.4-.6-2.3-1.3-2.6-1.3-.6zm0 8.6c0 .5.5 1 1.1 1 .5 0 .7-.5.4-1-.3-.6-.8-1-1.1-1-.2 0-.4.4-.4 1zM3.5 419.1c-.4.6-.5 1.2-.2 1.5.2.3.7-.2 1-1.1.7-1.7.1-2-.8-.4zm-.9 7.1c.3.5 1 .6 1.5.3 1.3-.9 1.1-1.2-.6-1.2-.8 0-1.2.4-.9.9zm544.7 16.3c-.3.9-.3 1.8-.1 2.1.3.3.8-.4 1.1-1.6.6-2.3-.1-2.7-1-.5zm-543.8.6c-.4.6-.5 1.2-.2 1.5.2.3.7-.2 1-1.1.7-1.7.1-2-.8-.4zm541 2.9c-.3.5-.1 1 .4 1 .6 0 1.1.5 1.1 1.1 0 .5-.5.7-1.2.3-.7-.4-.8-.3-.4.4 1.1 1.8 2.6 1.4 2.6-.7 0-2.3-1.6-3.6-2.5-2.1zM2.6 450.2c.3.5 1 .6 1.5.3 1.3-.9 1.1-1.2-.6-1.2-.8 0-1.2.4-.9.9zM547 462c0 .5.5 1 1.1 1 .5 0 .7-.5.4-1-.3-.6-.8-1-1.1-1-.2 0-.4.4-.4 1zM3.5 467.1c-.4.6-.5 1.2-.2 1.5.2.3.7-.2 1-1.1.7-1.7.1-2-.8-.4zm543.5 4.3c0 .8.4 1.7.9 2 .5.4.7-.3.4-1.4-.6-2.3-1.3-2.6-1.3-.6zM2.6 474.2c.3.5 1 .6 1.5.3 1.3-.9 1.1-1.2-.6-1.2-.8 0-1.2.4-.9.9zm544.4 5.7c0 .7-.4 1-.9.7-1-.6-.6 4.3.5 5.2.4.4.4 0 .2-.8-.3-.8-.1-2.3.4-3.3s.7-2.1.4-2.5c-.3-.3-.6 0-.6.7zm0 8.5c0 .8.4 1.7.9 2 .5.4.7-.3.4-1.4-.6-2.3-1.3-2.6-1.3-.6zM3.5 491.1c-.4.6-.5 1.2-.2 1.5.2.3.7-.2 1-1.1.7-1.7.1-2-.8-.4zm541.1.8c-.3.4.7 1.3 2.2 2 2.3 1 2.5 1 1-.2-1-.8-1.5-1.7-1.1-2 .3-.4.1-.7-.5-.7s-1.3.4-1.6.9zm2.9 5.2c-.4.6-.5 1.2-.2 1.5.2.3.7-.2 1-1.1.7-1.7.1-2-.8-.4zM2.6 498.2c.3.5 1 .6 1.5.3 1.3-.9 1.1-1.2-.6-1.2-.8 0-1.2.4-.9.9zm.9 16.9c-.4.6-.5 1.2-.2 1.5.2.3.7-.2 1-1.1.7-1.7.1-2-.8-.4zm-.9 7.1c.3.5 1 .6 1.5.3 1.3-.9 1.1-1.2-.6-1.2-.8 0-1.2.4-.9.9zm45 10.5c-1.1 1.1-.6 2.3.9 2.3.8 0 1.5-.4 1.5-.9 0-1.3-1.6-2.2-2.4-1.4zm96 0c-1.1 1.1-.6 2.3.9 2.3.8 0 1.5-.4 1.5-.9 0-1.3-1.6-2.2-2.4-1.4zm96 0c-1.1 1.1-.6 2.3.9 2.3.8 0 1.5-.4 1.5-.9 0-1.3-1.6-2.2-2.4-1.4zm96 0c-1.1 1.1-.6 2.3.9 2.3.8 0 1.5-.4 1.5-.9 0-1.3-1.6-2.2-2.4-1.4zm96 0c-1.1 1.1-.6 2.3.9 2.3.8 0 1.5-.4 1.5-.9 0-1.3-1.6-2.2-2.4-1.4zm-336.3 2.5c.1 1 .2 1.8.4 1.8.1 0 .7-.8 1.2-1.8.7-1.4.6-1.9-.4-1.9-.7 0-1.3.9-1.2 1.9zm9-.5c0 .8.6.9 1.6.4 1-.6 1.9-.4 2.6.6.9 1.2 1.1 1.1 1.1-.4 0-1.4-.8-1.9-2.6-1.8-1.5 0-2.7.5-2.7 1.2zm87 .5c.1 1 .2 1.8.4 1.8.1 0 .7-.8 1.2-1.8.7-1.4.6-1.9-.4-1.9-.7 0-1.3.9-1.2 1.9zm9-.5c0 .8.6.9 1.6.4 1-.6 1.9-.4 2.6.6.9 1.2 1.1 1.1 1.1-.4 0-1.4-.8-1.9-2.6-1.8-1.5 0-2.7.5-2.7 1.2zm87 .5c.1 1 .2 1.8.4 1.8.1 0 .7-.8 1.2-1.8.7-1.4.6-1.9-.4-1.9-.7 0-1.3.9-1.2 1.9zm9-.5c0 .8.6.9 1.6.4 1-.6 1.9-.4 2.6.6.9 1.2 1.1 1.1 1.1-.4 0-1.4-.8-1.9-2.6-1.8-1.5 0-2.7.5-2.7 1.2zm87 .5c.1 1 .2 1.8.4 1.8.1 0 .7-.8 1.2-1.8.7-1.4.6-1.9-.4-1.9-.7 0-1.3.9-1.2 1.9zm9-.5c0 .8.6.9 1.6.4 1-.6 1.9-.4 2.6.6.9 1.2 1.1 1.1 1.1-.4 0-1.4-.8-1.9-2.6-1.8-1.5 0-2.7.5-2.7 1.2zm87 .5c.1 1 .2 1.8.4 1.8.1 0 .7-.8 1.2-1.8.7-1.4.6-1.9-.4-1.9-.7 0-1.3.9-1.2 1.9zm9-.5c0 .8.6.9 1.6.4 1-.6 1.9-.4 2.6.6.9 1.2 1.1 1.1 1.1-.4 0-1.4-.8-1.9-2.6-1.8-1.5 0-2.7.5-2.7 1.2zm24-1c-1.5.5-1.7 2.3-.4 2.3.5 0 1.1-.7 1.5-1.5.3-.8.4-1.5.3-1.4-.1 0-.8.3-1.4.6zm8 1c0 .8.6.9 1.6.4 1-.6 1.9-.4 2.6.6.9 1.2 1.1 1.1 1.1-.4 0-1.4-.8-1.9-2.6-1.8-1.5 0-2.7.5-2.7 1.2zM15 535c0 .5.5 1 1.1 1 .5 0 .7-.5.4-1-.3-.6-.8-1-1.1-1-.2 0-.4.4-.4 1zm96 0c0 .5.5 1 1.1 1 .5 0 .7-.5.4-1-.3-.6-.8-1-1.1-1-.2 0-.4.4-.4 1zm96 0c0 .5.5 1 1.1 1 .5 0 .7-.5.4-1-.3-.6-.8-1-1.1-1-.2 0-.4.4-.4 1zm96 0c0 .5.5 1 1.1 1 .5 0 .7-.5.4-1-.3-.6-.8-1-1.1-1-.2 0-.4.4-.4 1zm96 0c0 .5.5 1 1.1 1 .5 0 .7-.5.4-1-.3-.6-.8-1-1.1-1-.2 0-.4.4-.4 1zm96 0c0 .5.5 1 1.1 1 .5 0 .7-.5.4-1-.3-.6-.8-1-1.1-1-.2 0-.4.4-.4 1zm32 0c0 .5.5 1 1.1 1 .5 0 .7-.5.4-1-.3-.6-.8-1-1.1-1-.2 0-.4.4-.4 1zm-502.4 2.8c-.3.5.1.9.9.9s1.2-.4.9-.9c-.3-.4-.7-.8-.9-.8-.2 0-.6.4-.9.8zm80 0c-.3.5.1.9.9.9s1.2-.4.9-.9c-.3-.4-.7-.8-.9-.8-.2 0-.6.4-.9.8zm16 0c-.3.5.1.9.9.9s1.2-.4.9-.9c-.3-.4-.7-.8-.9-.8-.2 0-.6.4-.9.8zm80 0c-.3.5.1.9.9.9s1.2-.4.9-.9c-.3-.4-.7-.8-.9-.8-.2 0-.6.4-.9.8zm16 0c-.3.5.1.9.9.9s1.2-.4.9-.9c-.3-.4-.7-.8-.9-.8-.2 0-.6.4-.9.8zm80 0c-.3.5.1.9.9.9s1.2-.4.9-.9c-.3-.4-.7-.8-.9-.8-.2 0-.6.4-.9.8zm16 0c-.3.5.1.9.9.9s1.2-.4.9-.9c-.3-.4-.7-.8-.9-.8-.2 0-.6.4-.9.8zm80 0c-.3.5.1.9.9.9s1.2-.4.9-.9c-.3-.4-.7-.8-.9-.8-.2 0-.6.4-.9.8zm16 0c-.3.5.1.9.9.9s1.2-.4.9-.9c-.3-.4-.7-.8-.9-.8-.2 0-.6.4-.9.8zm80 0c-.3.5.1.9.9.9s1.2-.4.9-.9c-.3-.4-.7-.8-.9-.8-.2 0-.6.4-.9.8zm16 0c-.3.5.1.9.9.9s1.2-.4.9-.9c-.3-.4-.7-.8-.9-.8-.2 0-.6.4-.9.8zm16 0c-.3.5.1.9.9.9s1.2-.4.9-.9c-.3-.4-.7-.8-.9-.8-.2 0-.6.4-.9.8zm16 0c-.3.5.1.9.9.9s1.2-.4.9-.9c-.3-.4-.7-.8-.9-.8-.2 0-.6.4-.9.8z"/></svg>