<?xml version="1.0" encoding="iso-8859-1"?>
<!-- Generator: Adobe Illustrator 19.0.0, SVG Export Plug-In . SVG Version: 6.00 Build 0)  -->
<svg xmlns="http://www.w3.org/2000/svg" xmlns:xlink="http://www.w3.org/1999/xlink" version="1.1" id="Layer_1" x="0px" y="0px" viewBox="0 0 286.597 286.597" style="enable-background:new 0 0 286.597 286.597;" xml:space="preserve" width="512px" height="512px">
<g>
	<g>
		<g>
			<path d="M272.529,258.905v-18.462h-4.795l-4.412-110.294l3.582-14.322h5.626V88.135h9.231V62.072L143.298,0L4.836,62.072v26.063     h9.231v27.692h5.626l3.582,14.322l-4.412,110.294h-4.795v18.462H0.221v27.692h286.154v-27.692H272.529z M14.067,78.904V68.045     l129.231-57.928L272.53,68.049v10.855H14.067z M23.297,249.674h23.077h9.231h27.692h9.231h27.692h9.231h27.692h9.231h27.692     h9.231h27.692h9.231h23.077v9.231h-240C23.298,258.905,23.298,249.674,23.297,249.674z M32.349,134.289h4.795v106.154h-9.042     L32.349,134.289z M29.211,115.828h11.252l-2.308,9.231h-6.637L29.211,115.828z M46.375,240.444V130.242l3.605-14.414h6.636     l3.582,14.322l-4.412,110.294H46.375z M69.272,134.289h4.795v106.154h-9.041L69.272,134.289z M66.134,115.828h11.252     l-2.308,9.231H68.44L66.134,115.828z M83.297,130.242l3.605-14.414h6.637l3.582,14.322L92.71,240.444h-9.411V130.242H83.297z      M106.195,134.289h4.795v106.154h-9.041L106.195,134.289z M103.057,115.828h11.252L112,125.059h-6.637L103.057,115.828z      M120.221,130.242l3.605-14.414h2.022l3.605,14.414v110.202h-9.231V130.242H120.221z M137.673,125.059l-2.308-9.231h15.868     l-2.308,9.231H137.673z M147.914,134.289v106.154h-9.231V134.289H147.914z M157.145,130.242l3.605-14.414h2.022l3.605,14.414     v110.202h-9.231L157.145,130.242L157.145,130.242z M181.232,125.059h-6.637l-2.307-9.231h11.252L181.232,125.059z      M184.647,240.443h-9.041V134.289h4.795L184.647,240.443z M189.475,130.149l3.582-14.322h6.637l3.605,14.414v110.202h-9.411     L189.475,130.149z M218.155,125.059h-6.637l-2.307-9.231h11.252L218.155,125.059z M221.57,240.443h-9.041V134.289h4.795     L221.57,240.443z M226.398,130.15l3.582-14.322h6.637l3.604,14.414v110.202h-9.411L226.398,130.15z M255.078,125.059h-6.637     l-2.307-9.231h11.252L255.078,125.059z M258.492,240.443h-9.041V134.289h4.795L258.492,240.443z M23.298,106.597V88.135h240     v18.462H23.298z M9.452,277.366v-9.231h4.615h258.462h4.615v9.231H9.452z" fill="#FFFFFF"/>
			<path d="M38.474,69.674h209.654l-104.83-46.588L38.474,69.674z M81.968,60.443l61.329-27.258l61.329,27.258H81.968z" fill="#FFFFFF"/>
			<rect x="83.297" y="92.751" width="9.231" height="9.231" fill="#FFFFFF"/>
			<rect x="101.76" y="92.751" width="9.231" height="9.231" fill="#FFFFFF"/>
			<rect x="120.221" y="92.751" width="9.231" height="9.231" fill="#FFFFFF"/>
			<rect x="138.682" y="92.751" width="9.231" height="9.231" fill="#FFFFFF"/>
			<rect x="157.145" y="92.751" width="9.231" height="9.231" fill="#FFFFFF"/>
			<rect x="175.606" y="92.751" width="9.231" height="9.231" fill="#FFFFFF"/>
			<rect x="194.068" y="92.751" width="9.231" height="9.231" fill="#FFFFFF"/>
			<rect x="120.221" y="46.597" width="9.231" height="9.231" fill="#FFFFFF"/>
			<rect x="138.682" y="46.597" width="9.231" height="9.231" fill="#FFFFFF"/>
			<rect x="157.145" y="46.597" width="9.231" height="9.231" fill="#FFFFFF"/>
		</g>
	</g>
</g>
<g>
</g>
<g>
</g>
<g>
</g>
<g>
</g>
<g>
</g>
<g>
</g>
<g>
</g>
<g>
</g>
<g>
</g>
<g>
</g>
<g>
</g>
<g>
</g>
<g>
</g>
<g>
</g>
<g>
</g>
</svg>
