<svg height="511pt" viewBox="-16 0 511 511.99934" width="511pt" xmlns="http://www.w3.org/2000/svg"><g fill-rule="evenodd"><path d="m257.578125 117.996094 27.851563-16.082032c9.230468-5.328124 12.394531-17.132812 7.066406-26.363281s-17.132813-12.390625-26.363282-7.0625c-5.328124-9.230469-17.132812-12.394531-26.363281-7.0625-9.230469 5.328125-12.394531 17.128907-7.0625 26.359375l16.082031 27.855469c1.769532 3.066406 5.722657 4.125 8.789063 2.355469zm0 0" fill="#ff6977"/><path d="m285.433594 101.914062-27.855469 16.082032c-3.066406 1.769531-7.019531.710937-8.789063-2.355469l-16.082031-27.855469c-5.328125-9.230468-2.167969-21.03125 7.066407-26.359375 9.226562-5.332031 21.03125-2.167969 26.359374 7.0625 9.230469-5.328125 21.035157-2.167969 26.363282 7.0625s2.164062 21.035157-7.0625 26.363281zm184.375-5.410156c2.847656-10.625-3.515625-21.648437-14.140625-24.492187l-228.859375-61.324219c-10.625-2.847656-21.648438 3.515625-24.496094 14.140625l-17.484375 65.257813-70.898437 264.597656c-2.847657 10.625 3.515624 21.648437 14.140624 24.496094l225.851563 60.515624 3.007813.808594c10.625 2.84375 21.648437-3.515625 24.496093-14.144531zm-167.140625 88.792969c16.648437-9.609375 37.9375-3.90625 47.546875 12.742187 9.613281 16.648438 3.910156 37.9375-12.738282 47.546876l-50.242187 29.007812c-5.527344 3.191406-12.65625 1.28125-15.847656-4.246094l-29.007813-50.242187c-9.609375-16.648438-3.90625-37.933594 12.742188-47.546875 16.648437-9.613282 37.933594-3.910156 47.546875 12.738281zm26.910156 152.722656c9.230469-5.328125 21.035156-2.167969 26.363281 7.0625s2.167969 21.035157-7.0625 26.363281l-27.855468 16.082032c-3.066407 1.769531-7.019532.707031-8.789063-2.355469l-16.082031-27.855469c-5.328125-9.230468-2.167969-21.03125 7.0625-26.363281 9.234375-5.328125 21.035156-2.164063 26.363281 7.066406zm0 0" fill="#f8f8f8"/><path d="m302.667969 185.296875c-9.613281-16.648437-30.898438-22.351563-47.546875-12.738281-16.648438 9.609375-22.355469 30.898437-12.742188 47.546875l29.003906 50.242187c3.191407 5.527344 10.324219 7.4375 15.851563 4.246094l50.242187-29.007812c16.648438-9.609376 22.351563-30.898438 12.738282-47.546876-9.609375-16.648437-30.898438-22.351562-47.546875-12.742187zm0 0" fill="#ff6977"/><path d="m329.578125 338.019531c-5.328125-9.230469-17.128906-12.394531-26.359375-7.066406-9.230469 5.332031-12.394531 17.132813-7.066406 26.363281l16.085937 27.855469c1.765625 3.0625 5.722657 4.125 8.785157 2.355469l27.855468-16.082032c9.230469-5.328124 12.394532-17.132812 7.0625-26.363281-5.328125-9.230469-17.132812-12.390625-26.363281-7.0625zm0 0" fill="#ff6977"/><path d="m113.929688 354.683594 70.898437-264.597656-159.503906 42.738281c-10.625 2.847656-16.988281 13.867187-14.140625 24.496093l88.382812 329.855469c2.847656 10.621094 13.871094 16.988281 24.496094 14.140625l228.863281-61.324218c.335938-.089844.667969-.191407.996094-.296876l-225.851563-60.515624c-10.625-2.847657-16.988281-13.871094-14.140624-24.496094zm-9.25-118.890625-39.328126-30.871094 18.625-46.402344 39.328126 30.871094zm0 0" fill="#f8f8f8"/><path d="m104.679688 235.792969 18.625-46.402344-39.332032-30.871094-18.621094 46.402344zm0 0" fill="#ff6977"/></g><path d="m59.175781 212.785156 39.328125 30.871094c1.78125 1.398438 3.960938 2.136719 6.175782 2.136719.863281 0 1.734374-.113281 2.589843-.34375 3.039063-.8125 5.519531-3.011719 6.691407-5.933594l18.625-46.398437c1.652343-4.125.386718-8.847657-3.109376-11.589844l-39.328124-30.875c-2.476563-1.941406-5.722657-2.605469-8.761719-1.792969-3.039063.816406-5.519531 3.015625-6.691407 5.933594l-18.625 46.402343c-1.65625 4.125-.390624 8.847657 3.105469 11.589844zm29.113281-38.167968 22.941407 18.007812-10.863281 27.066406-22.941407-18.007812zm0 0"/><path d="m458.257812 62.351562-228.863281-61.320312c-7.71875-2.070312-15.796875-1-22.75 3.015625s-11.921875 10.476563-13.992187 18.195313l-15.988282 59.679687-153.925781 41.242187c-15.976562 4.28125-25.492187 20.765626-21.214843 36.742188l28.484374 106.292969c1.195313 4.46875 5.234376 7.414062 9.652344 7.414062.855469 0 1.726563-.113281 2.59375-.34375 5.332032-1.429687 8.5-6.914062 7.070313-12.246093l-28.480469-106.292969c-1.425781-5.324219 1.746094-10.820313 7.070312-12.246094l142.773438-38.257813-66.417969 247.871094c-4.28125 15.976563 5.234375 32.457032 21.210938 36.738282l189.859375 50.875-193.863282 51.945312c-5.328124 1.425781-10.820312-1.746094-12.25-7.070312l-39.199218-146.292969c-1.425782-5.332031-6.910156-8.5-12.246094-7.070313-5.332031 1.429688-8.5 6.914063-7.070312 12.246094l39.199218 146.292969c3.585938 13.386719 15.738282 22.238281 28.980469 22.238281 2.566406 0 5.167969-.332031 7.757813-1.027344l227.328124-60.910156.367188.097656c2.566406.6875 5.175781 1.03125 7.769531 1.03125 5.203125 0 10.34375-1.371094 14.980469-4.046875 6.953125-4.015625 11.921875-10.476562 13.988281-18.195312l59.21875-221.007813c1.429688-5.335937-1.734375-10.816406-7.070312-12.25-5.335938-1.429687-10.816407 1.738282-12.246094 7.074219l-59.21875 221.007813c-.6875 2.558593-2.347656 4.707031-4.671875 6.050781-2.328125 1.34375-5.019531 1.703125-7.574219 1.019531l-2.84375-.761719c-.007812-.003906-.015625-.003906-.023437-.003906l-225.996094-60.558594c-5.328125-1.425781-8.5-6.917969-7.070312-12.246093l88.382812-329.855469c.6875-2.558594 2.34375-4.707031 4.671875-6.050781 2.324219-1.34375 5.015625-1.703126 7.574219-1.019532l228.863281 61.324219c5.324219 1.425781 8.496094 6.917969 7.070313 12.246094l-8.460938 31.578125c-1.429688 5.332031 1.734375 10.816406 7.070312 12.246094 5.339844 1.429687 10.816407-1.738282 12.246094-7.070313l8.460938-31.578125c4.285156-15.980469-5.230469-32.460938-21.207032-36.742188zm0 0"/><path d="m262.726562 275.347656c2.878907 4.984375 7.539063 8.554688 13.117188 10.050782 1.871094.5 3.765625.75 5.648438.75 3.738281 0 7.425781-.980469 10.742187-2.894532l50.238281-29.007812c10.367188-5.984375 17.78125-15.644532 20.878906-27.207032 3.097657-11.558593 1.507813-23.636718-4.476562-34-10.796875-18.703124-33.140625-26.679687-52.875-20.144531-5.761719-6.496093-13.300781-11.175781-21.878906-13.472656-11.5625-3.097656-23.636719-1.507813-34.003906 4.476563-10.363282 5.984374-17.777344 15.644531-20.875 27.207031-3.097657 11.558593-1.507813 23.636719 4.476562 34zm-14.167968-79.066406c1.714844-6.402344 5.820312-11.75 11.5625-15.0625 3.820312-2.207031 8.0625-3.335938 12.363281-3.335938 2.152344 0 4.324219.285157 6.460937.855469 6.398438 1.714844 11.75 5.820313 15.0625 11.558594 2.761719 4.785156 8.878907 6.421875 13.660157 3.660156 11.847656-6.835937 27.046875-2.765625 33.886719 9.082031 3.316406 5.738282 4.195312 12.425782 2.480468 18.824219-1.714844 6.402344-5.820312 11.75-11.558594 15.0625l-50.242187 29.007813c-.460937.265625-.914063.226562-1.210937.144531-.300782-.078125-.710938-.269531-.976563-.730469l-29.007813-50.242187c-3.3125-5.738281-4.195312-12.421875-2.480468-18.824219zm0 0"/><path d="m250.109375 128.289062c1.421875.382813 2.859375.570313 4.289063.570313 2.847656 0 5.652343-.746094 8.179687-2.203125l27.851563-16.082031c6.777343-3.914063 11.628906-10.230469 13.652343-17.792969 2.023438-7.558594.984375-15.453125-2.929687-22.230469-6.5625-11.371093-19.65625-16.675781-31.839844-13.929687-9.175781-8.472656-23.167969-10.425782-34.542969-3.855469-13.988281 8.078125-18.800781 26.03125-10.722656 40.019531l16.082031 27.855469c2.191406 3.796875 5.738282 6.511719 9.980469 7.648437zm-5.335937-58.203124c1.460937-.84375 3.054687-1.246094 4.632812-1.246094 3.214844 0 6.347656 1.667968 8.066406 4.648437 2.761719 4.78125 8.878906 6.421875 13.660156 3.660157 4.4375-2.566407 10.136719-1.039063 12.703126 3.402343 1.242187 2.152344 1.570312 4.65625.929687 7.054688-.644531 2.398437-2.183594 4.40625-4.332031 5.648437l-24.765625 14.296875-14.300781-24.765625c-2.5625-4.4375-1.035157-10.136718 3.40625-12.699218zm0 0"/><path d="m303.574219 390.171875c2.191406 3.792969 5.734375 6.511719 9.980469 7.648437 1.417968.378907 2.859374.570313 4.289062.570313 2.847656 0 5.652344-.746094 8.179688-2.203125l27.855468-16.082031c13.988282-8.078125 18.800782-26.03125 10.722656-40.023438-3.914062-6.777343-10.230468-11.625-17.792968-13.648437-4.664063-1.25-9.464844-1.332032-14.046875-.292969-3.449219-3.195313-7.644531-5.519531-12.3125-6.773437-7.5625-2.023438-15.453125-.984376-22.230469 2.929687-6.777344 3.910156-11.628906 10.230469-13.652344 17.789063-2.023437 7.558593-.984375 15.453124 2.925782 22.230468zm.308593-44.910156c.644532-2.398438 2.183594-4.402344 4.335938-5.644531 1.433594-.828126 3.019531-1.25 4.632812-1.25.808594 0 1.621094.105468 2.421876.320312 2.398437.640625 4.402343 2.179688 5.644531 4.332031 1.328125 2.296875 3.511719 3.972657 6.074219 4.660157 2.558593.6875 5.289062.328124 7.585937-1 2.152344-1.242188 4.65625-1.574219 7.058594-.929688 2.398437.644531 4.402343 2.183594 5.644531 4.332031 2.5625 4.441407 1.035156 10.140625-3.402344 12.703125l-24.765625 14.300782-14.300781-24.769532c-1.242188-2.148437-1.570312-4.65625-.929688-7.054687zm0 0"/><path d="m453.574219 157.054688c-5.332031-1.421876-10.816407 1.753906-12.238281 7.089843-1.425782 5.335938 1.746093 10.8125 7.085937 12.238281.859375.230469 1.726563.339844 2.582031.339844 4.417969 0 8.460938-2.953125 9.652344-7.425781l.003906-.007813c1.421875-5.335937-1.75-10.8125-7.085937-12.234374zm0 0"/><path d="m59.679688 299.671875v-.007813c-1.425782-5.332031-6.902344-8.503906-12.238282-7.078124-5.335937 1.421874-8.507812 6.902343-7.085937 12.242187 1.195312 4.472656 5.238281 7.425781 9.65625 7.425781.855469 0 1.722656-.109375 2.582031-.339844 5.335938-1.425781 8.507812-6.902343 7.085938-12.242187zm0 0"/></svg>