<svg width="256" height="256" xmlns="http://www.w3.org/2000/svg" preserveAspectRatio="xMinYMin meet">

 <g>
  <title>background</title>
  <rect fill="none" id="canvas_background" height="177" width="177" y="-1" x="-1"/>
 </g>
 <g>
  <title>Layer 1</title>
  <g id="svg_1" fill="#F35045">
   <path fill="#ffffff" id="svg_2" d="m160.445,208c2,2.889 3.222,2.667 4.777,2c1.555,-0.667 81.556,-27.667 84,-28.555c2.444,-0.889 1.667,-1.667 0.89,-2.89c-0.778,-1.222 -27.445,-37.444 -28.779,-39.555c-1.333,-2.111 -2,-1.667 -4.111,-1l-84.805,22.067s26.028,45.043 28.028,47.933zm95.555,-36.885l0,-42.398c-9.541,2.542 -21.609,5.756 -26.373,7.023c7.187,9.616 18.423,24.665 26.373,35.375zm-26.455,-87.594c-1.307,0.297 -30.247,5.527 -32.03,5.764c-1.782,0.238 -1.188,1.248 -0.475,2.258l25.467,34.943s31.139,-7.725 33.041,-8.141c0.154,-0.034 0.305,-0.07 0.452,-0.107l0,-4.627c-5.66,-7.177 -21.08,-26.718 -22.413,-28.544c-1.604,-2.199 -2.734,-1.842 -4.042,-1.546z"/>
   <path fill="#ffffff" id="svg_3" d="m47.456,28.634c6.267,-0.285 6.839,1.141 9.592,5.224l69.17,115.642l86.974,-20.835c-4.819,-6.831 -26.695,-37.846 -28.81,-40.806c-2.376,-3.328 0.06,-4.873 3.923,-5.526c3.862,-0.654 37.14,-6.24 39.992,-6.656c2.853,-0.416 5.112,-1.426 9.746,4.16c2.372,2.858 10.412,12.87 17.957,22.255l0,-54.092c0,-13.222 -4.695,-24.528 -14.083,-33.917c-9.389,-9.388 -20.695,-14.083 -33.917,-14.083l-160,0c-13.222,0 -24.528,4.695 -33.917,14.083c-5.385,5.387 -9.218,11.404 -11.513,18.051c15.678,-1.288 40.501,-3.3 44.887,-3.5l-0.001,0z"/>
   <path fill="#ffffff" id="svg_4" d="m168.289,223.564c-7.334,2.222 -10.623,3.325 -15.4,-3.342c-3.578,-4.993 -22.927,-39.843 -32.414,-57.023c-17.955,4.702 -50.814,13.278 -60.29,15.555c-9.248,2.222 -13.198,-3.323 -14.717,-6.74c-1.065,-2.398 -28.179,-60.856 -45.468,-98.364l0,134.35c0,13.223 4.695,24.527 14.083,33.917c9.389,9.388 20.695,14.083 33.917,14.083l160,0c13.222,0 24.528,-4.695 33.917,-14.083c9.388,-9.39 14.083,-20.694 14.083,-33.917l0,-15.781c-19.64,7.184 -82.77,29.848 -87.711,31.345z"/>
   <path fill="#ffffff" id="svg_5" d="m60.412,165.288c2.6,-0.595 51.313,-12.253 52.353,-12.476c1.04,-0.223 1.708,-0.817 0.594,-2.747c-1.114,-1.93 -64.934,-112.09 -64.934,-112.09c-0.589,-1.011 -0.421,-1.348 -2.022,-1.264c-1.427,0.076 -37.538,3.298 -45.898,3.996a51.038,51.038 0 0 0 -0.461,5.331c8.487,17.375 57.199,117.837 57.472,118.655c0.297,0.892 0.297,1.189 2.896,0.595z"/>
  </g>
 </g>
</svg>