<?xml version="1.0" encoding="iso-8859-1"?>
<!-- Generator: Adobe Illustrator 19.0.0, SVG Export Plug-In . SVG Version: 6.00 Build 0)  -->
<svg xmlns="http://www.w3.org/2000/svg" xmlns:xlink="http://www.w3.org/1999/xlink" version="1.1" id="Layer_1" x="0px" y="0px" viewBox="0 0 512 512" style="enable-background:new 0 0 512 512;" xml:space="preserve" width="512px" height="512px">
<g>
	<g>
		<g>
			<path d="M187.733,281.6v-17.067c0-4.702-3.831-8.533-8.533-8.533h-25.6v34.133h25.6     C183.902,290.133,187.733,286.302,187.733,281.6z" fill="#FFFFFF"/>
			<path d="M486.4,0H25.6C11.486,0,0,11.486,0,25.6v42.667h512V25.6C512,11.486,500.514,0,486.4,0z M42.667,51.2     c-4.71,0-8.533-3.823-8.533-8.533c0-4.71,3.823-8.533,8.533-8.533c4.71,0,8.533,3.823,8.533,8.533     C51.2,47.377,47.377,51.2,42.667,51.2z M76.8,51.2c-4.71,0-8.533-3.823-8.533-8.533c0-4.71,3.823-8.533,8.533-8.533     s8.533,3.823,8.533,8.533C85.333,47.377,81.51,51.2,76.8,51.2z M110.933,51.2c-4.71,0-8.533-3.823-8.533-8.533     c0-4.71,3.823-8.533,8.533-8.533s8.533,3.823,8.533,8.533C119.467,47.377,115.644,51.2,110.933,51.2z" fill="#FFFFFF"/>
			<path d="M358.4,281.6v-17.067c0-4.702-3.831-8.533-8.533-8.533h-25.6v34.133h25.6C354.569,290.133,358.4,286.302,358.4,281.6z" fill="#FFFFFF"/>
			<path d="M0,486.4C0,500.514,11.486,512,25.6,512h460.8c14.114,0,25.6-11.486,25.6-25.6V85.333H0V486.4z M384,196.267     c18.859,0,34.202,15.309,34.202,34.133l-0.06,30.601l23.091,23.1c3.337,3.337,3.337,8.73,0,12.066l-23.1,23.1v30.601     C418.133,368.691,402.825,384,384,384c-4.71,0-8.533-3.823-8.533-8.533s3.823-8.533,8.533-8.533     c9.412,0,17.067-7.654,17.067-17.067v-34.133c0-2.261,0.896-4.437,2.5-6.033l19.567-19.567l-19.567-19.567     c-1.604-1.604-2.509-3.78-2.5-6.05l0.068-34.133c0-9.395-7.689-17.05-17.135-17.05c-4.71,0-8.533-3.823-8.533-8.533     C375.467,200.09,379.29,196.267,384,196.267z M307.2,298.667v-51.2c0-4.71,3.823-8.533,8.533-8.533h34.133     c14.114,0,25.6,11.486,25.6,25.6V281.6c0,14.114-11.486,25.6-25.6,25.6h-25.6v42.667c0,4.71-3.823,8.533-8.533,8.533     s-8.533-3.823-8.533-8.533V298.667z M221.867,247.467c0-4.71,3.823-8.533,8.533-8.533s8.533,3.823,8.533,8.533v42.667h25.6     c14.114,0,25.6,11.486,25.6,25.6v34.133c0,4.71-3.823,8.533-8.533,8.533s-8.533-3.823-8.533-8.533v-34.133     c0-4.702-3.831-8.533-8.533-8.533h-25.6v42.667c0,4.71-3.823,8.533-8.533,8.533s-8.533-3.823-8.533-8.533V247.467z      M145.067,238.933H179.2c14.114,0,25.6,11.486,25.6,25.6V281.6c0,14.114-11.486,25.6-25.6,25.6h-25.6v42.667     c0,4.71-3.823,8.533-8.533,8.533c-4.71,0-8.533-3.823-8.533-8.533v-51.2v-51.2C136.533,242.756,140.356,238.933,145.067,238.933z      M70.767,284.1l23.1-23.1V230.4c0-18.825,15.309-34.133,34.133-34.133c4.71,0,8.533,3.823,8.533,8.533     c0,4.71-3.823,8.533-8.533,8.533c-9.412,0-17.067,7.654-17.067,17.067v34.133c0,2.261-0.905,4.429-2.5,6.033l-19.567,19.567     l19.567,19.567c1.596,1.596,2.5,3.772,2.5,6.033v34.133c0,9.412,7.654,17.067,17.067,17.067c4.71,0,8.533,3.823,8.533,8.533     S132.71,384,128,384c-18.825,0-34.133-15.309-34.133-34.133v-30.601l-23.1-23.1C67.43,292.83,67.43,287.437,70.767,284.1z" fill="#FFFFFF"/>
		</g>
	</g>
</g>
<g>
</g>
<g>
</g>
<g>
</g>
<g>
</g>
<g>
</g>
<g>
</g>
<g>
</g>
<g>
</g>
<g>
</g>
<g>
</g>
<g>
</g>
<g>
</g>
<g>
</g>
<g>
</g>
<g>
</g>
</svg>
