<svg width="512" height="384" xmlns="http://www.w3.org/2000/svg">

 <g>
  <title>background</title>
  <rect fill="none" id="canvas_background" height="177" width="177" y="-1" x="-1"/>
 </g>
 <g>
  <title>Layer 1</title>
  <path id="svg_1" d="m440.6,220.6c-17.9,0.101 -33.4,4.4 -46.4,10.801c-4.8,-9.5 -9.6,-17.801 -10.399,-24c-0.9,-7.2 -2,-11.601 -0.9,-20.2c1.099,-8.601 6.099,-20.801 6.099,-21.801c-0.101,-0.9 -1.101,-5.3 -11.4,-5.4s-19.2,2 -20.2,4.7s-3,8.9 -4.3,15.3c-1.8,9.4 -20.6,42.7 -31.3,60.2c-3.5,-6.8 -6.5,-12.8 -7.101,-17.601c-0.899,-7.199 -2,-11.6 -0.899,-20.199c1.1,-8.601 6.1,-20.8 6.1,-21.8c-0.1,-0.9 -1.1,-5.3 -11.399,-5.4c-10.301,-0.1 -19.2,2 -20.2,4.7s-2.1,9.1 -4.3,15.3c-2.101,6.2 -27.101,61.8 -33.601,76.3c-3.3,7.4 -6.199,13.3 -8.3,17.3c-2.1,4 -0.1,0.3 -0.3,0.7c-1.8,3.4 -2.8,5.3 -2.8,5.3l0,0.101c-1.4,2.5 -2.9,4.899 -3.601,4.899c-0.5,0 -1.5,-6.7 0.2,-15.899c3.7,-19.301 12.7,-49.4 12.601,-50.5c0,-0.5 1.699,-5.801 -5.801,-8.5c-7.3,-2.7 -9.899,1.8 -10.5,1.8c-0.6,0 -1.1,1.6 -1.1,1.6s8.1,-33.899 -15.5,-33.899c-14.8,0 -35.2,16.1 -45.3,30.8c-6.4,3.5 -20,10.899 -34.4,18.8c-5.5,3 -11.2,6.2 -16.6,9.1l-1.099,-1.202c-28.6,-30.5 -81.5,-52.1 -79.3,-93.1c0.8,-14.9 6,-54.2 101.601,-101.8c78.3,-39 141,-28.3 151.899,-4.5c15.5,34 -33.5,97.2 -114.899,106.3c-31,3.5 -47.301,-8.5 -51.4,-13c-4.3,-4.7 -4.9,-4.9 -6.5,-4c-2.6,1.4 -1,5.6 0,8.1c2.4,6.3 12.4,17.5 29.4,23.1c14.899,4.9 51.3,7.6 95.3,-9.4c49.3,-19.1 87.8,-72.1 76.5,-116.4c-11.5,-45.1 -86.3,-59.9 -157,-34.8c-42.101,15 -87.701,38.4 -120.501,69.1c-39,36.4 -45.2,68.2 -42.6,81.4c9.101,47.1 74,77.8 100,100.5c-1.3,0.699 -2.5,1.399 -3.6,2c-13,6.399 -62.5,32.3 -74.9,59.699c-14,31 2.2,53.301 13,56.301c33.4,9.3 67.6,-7.4 86.1,-34.9c18.399,-27.5 16.2,-63.2 7.7,-79.5l-0.301,-0.6l10.2,-6c6.601,-3.9 13.101,-7.5 18.8,-10.601c-3.199,8.7 -5.5,19 -6.699,34c-1.4,17.601 5.8,40.4 15.3,49.4c4.2,3.899 9.2,4 12.3,4c11,0 16,-9.101 21.5,-20c6.8,-13.3 12.8,-28.7 12.8,-28.7s-7.5,41.7 13,41.7c7.5,0 15,-9.7 18.4,-14.7l0,0.1s0.2,-0.3 0.6,-1a36.13,36.13 0 0 0 1.2,-1.899l0,-0.2c3,-5.2 9.7,-17.1 19.7,-36.8c12.899,-25.4 25.3,-57.2 25.3,-57.2s1.2,7.8 4.9,20.6c2.199,7.601 6.999,15.9 10.699,24c-3,4.2 -4.8,6.601 -4.8,6.601l0.1,0.1c-2.399,3.2 -5.1,6.601 -7.899,10c-10.2,12.2 -22.4,26.101 -24,30.101c-1.9,4.699 -1.5,8.199 2.2,11c2.7,2 7.5,2.399 12.6,2c9.2,-0.601 15.6,-2.9 18.8,-4.301c5,-1.8 10.7,-4.5 16.2,-8.5c10,-7.399 16.1,-17.899 15.5,-31.899c-0.3,-7.7 -2.8,-15.3 -5.9,-22.5c0.9,-1.3 1.801,-2.601 2.7,-4c15.8,-23.101 28,-48.5 28,-48.5s1.2,7.8 4.9,20.6c1.899,6.5 5.7,13.601 9.1,20.601c-14.8,12.1 -24.1,26.1 -27.3,35.3c-5.9,17 -1.3,24.7 7.4,26.5c3.899,0.8 9.5,-1 13.699,-2.8c5.2,-1.7 11.5,-4.601 17.301,-8.9c10,-7.4 19.6,-17.7 19.1,-31.6c-0.3,-6.4 -2,-12.7 -4.3,-18.7c12.6,-5.2 28.899,-8.2 49.6,-5.7c44.5,5.2 53.3,33 51.601,44.6c-1.7,11.601 -11,18 -14.101,20c-3.1,1.9 -4.1,2.601 -3.8,4c0.4,2.101 1.8,2 4.5,1.601c3.7,-0.601 23.4,-9.5 24.2,-30.899c1.2,-27.504 -24.9,-57.504 -71.2,-57.205zm-343.2,115.7c-14.7,16.1 -35.4,22.2 -44.2,17c-9.5,-5.5 -5.801,-29.2 12.3,-46.3c11,-10.4 25.3,-20 34.7,-25.9c2.1,-1.3 5.3,-3.199 9.1,-5.5c0.6,-0.399 1,-0.6 1,-0.6c0.7,-0.4 1.5,-0.9 2.3,-1.4c6.7,24.4 0.3,45.8 -15.2,62.7zm107.5,-73.1c-5.1,12.5 -15.9,44.6 -22.4,42.8c-5.601,-1.5 -9,-25.8 -1.101,-49.8c4,-12.101 12.5,-26.5 17.5,-32.101c8.101,-9 16.9,-12 19.101,-8.3c2.6,4.801 -9.9,39.601 -13.1,47.401zm88.7,42.4c-2.2,1.101 -4.2,1.9 -5.1,1.301c-0.7,-0.4 0.899,-1.9 0.899,-1.9s11.1,-11.9 15.5,-17.4c2.5,-3.199 5.5,-6.899 8.7,-11.1l0,1.2c0.001,14.399 -13.799,23.999 -19.999,27.899zm68.399,-15.6c-1.6,-1.2 -1.399,-4.9 4,-16.5c2.101,-4.6 6.9,-12.3 15.2,-19.6c1,3 1.601,5.899 1.5,8.6c-0.099,18 -12.899,24.7 -20.7,27.5z" fill="#ffffff"/>
 </g>
</svg>