<?xml version="1.0" encoding="UTF-8"?>
<svg xmlns="http://www.w3.org/2000/svg" xmlns:xlink="http://www.w3.org/1999/xlink" width="250pt" height="250pt" viewBox="0 0 250 250" version="1.1">
<g id="surface1">
<path style="fill-rule:nonzero;fill:rgb(92.156863%,43.921569%,46.666667%);fill-opacity:1;stroke-width:0.09375;stroke-linecap:butt;stroke-linejoin:miter;stroke:rgb(92.156863%,43.921569%,46.666667%);stroke-opacity:1;stroke-miterlimit:4;" d="M 207.5957 217.6041 C 210.5956 212.4951 214.4994 207.5957 220.1062 205.1984 C 222.3987 204.8054 224.7043 205.0019 226.9968 205.0019 C 264.6986 205.0019 302.5052 205.0019 340.1939 205.0019 C 336.9058 207.8053 333.6963 210.7004 331.4955 214.4994 C 325.7053 223.9969 321.8015 234.5948 318.199 245.2058 C 307.9941 277.196 300.8939 310.1032 294.0033 342.9973 C 290.8986 357.9051 287.8987 372.9046 285.0953 387.7993 C 276.5017 436.5968 267.5937 485.3026 256.498 533.6023 C 251.2056 555.8985 245.7953 578.1947 237.5947 599.7049 C 233.7957 608.5998 230.1015 618.0973 222.8048 624.6997 C 221.1018 626.2062 219.3988 628.1057 217.0015 627.8044 C 183.7013 627.8044 150.2963 627.8044 116.9961 627.8044 C 110.1972 627.5948 103.5031 628.1974 96.7042 627.5031 C 101.1975 624.0054 105.2061 619.8003 107.7999 614.7961 C 115.3062 600.504 119.996 584.9936 124.5024 569.6011 C 131.4978 544.8028 137.1046 519.7032 142.397 494.6036 C 145.6982 478.0976 149.602 461.6964 151.9993 445.0987 C 154.6979 426.6015 158.7982 408.3008 162.0994 389.8953 C 167.3001 362.8045 172.8021 335.7006 178.8936 308.8063 C 183.8061 287.7939 188.7972 266.8994 195.5044 246.3979 C 198.8056 236.4943 202.395 226.6955 207.5957 217.6041 Z M 207.5957 217.6041 " transform="matrix(0.298187,0,0,0.298187,0,0)"/>
<path style="fill-rule:nonzero;fill:rgb(96.470588%,63.529412%,67.843137%);fill-opacity:1;stroke-width:0.09375;stroke-linecap:butt;stroke-linejoin:miter;stroke:rgb(96.470588%,63.529412%,67.843137%);stroke-opacity:1;stroke-miterlimit:4;" d="M 340.1939 205.0019 C 343.1021 205.0019 345.9972 204.8971 348.9054 205.0019 C 355.2982 208.3948 360.6954 213.8051 363.6953 220.4992 C 367.7039 228.0972 371.0051 236.1013 374.005 244.3019 C 384.0003 275.2048 390.7992 306.9985 397.5981 338.7005 C 403.4014 367.1013 408.9034 395.5938 414.1041 424.2042 C 414.4971 425.6976 413.9993 427.7936 416.0036 428.1997 C 408.7986 465.7967 401.6984 503.4985 392.6987 540.7942 C 387.7993 560.9027 382.5986 580.9064 375.1971 600.2944 C 371.2016 610.0015 367.1013 620.5994 358.5994 627.5031 C 353.2022 628.6952 349.2984 624.5949 345.9972 620.9007 C 340.2987 613.604 336.801 604.9973 333.395 596.4037 C 322.1028 565.6056 315.1991 533.4975 308.2037 501.4942 C 302.8982 476.6042 298.1953 451.5046 293.2959 426.4967 C 291.0951 413.8028 288.0952 401.3054 286.4053 388.5984 C 286.104 388.4019 285.3966 387.9958 285.0953 387.7993 C 287.8987 372.9046 290.8986 357.9051 294.0033 342.9973 C 300.8939 310.1032 307.9941 277.196 318.199 245.2058 C 321.8015 234.5948 325.7053 223.9969 331.4955 214.4994 C 333.6963 210.7004 336.9058 207.8053 340.1939 205.0019 Z M 340.1939 205.0019 " transform="matrix(0.298187,0,0,0.298187,0,0)"/>
<path style="fill-rule:nonzero;fill:rgb(92.156863%,43.921569%,46.666667%);fill-opacity:1;stroke-width:0.09375;stroke-linecap:butt;stroke-linejoin:miter;stroke:rgb(92.156863%,43.921569%,46.666667%);stroke-opacity:1;stroke-miterlimit:4;" d="M 465.2989 222.2939 C 468.9014 215.4033 473.303 207.7005 481.0975 205.0936 C 520.8036 204.8971 560.4966 205.0019 600.2027 205.0019 C 596.4954 208.6961 592.6047 212.4034 590.1026 217.1063 C 582.3998 230.9006 577.9065 246.2014 573.2953 261.3057 C 561.5053 302.8982 553.1999 345.3946 545.3006 387.9041 C 538.0039 429.7979 530.1963 471.7048 521.3014 513.4021 C 516.7033 534.4014 511.8956 555.2959 505.8041 575.9939 C 501.9003 588.8057 497.8 601.6961 491.3941 613.604 C 488.3025 619.0012 484.7 624.8962 478.805 627.6996 C 440.8936 628.0009 402.9036 627.6996 365.0053 627.8044 C 362.8962 627.8044 360.6954 627.8044 358.5994 627.5031 C 367.1013 620.5994 371.2016 610.0015 375.1971 600.2944 C 382.5986 580.9064 387.7993 560.9027 392.6987 540.7942 C 401.6984 503.4985 408.7986 465.7967 416.0036 428.1997 C 424.702 379.7035 433.8065 331.1942 445.4 283.3006 C 450.7972 262.6026 455.9979 241.6033 465.2989 222.2939 Z M 465.2989 222.2939 " transform="matrix(0.298187,0,0,0.298187,0,0)"/>
<path style="fill-rule:nonzero;fill:rgb(96.470588%,63.529412%,67.843137%);fill-opacity:1;stroke-width:0.09375;stroke-linecap:butt;stroke-linejoin:miter;stroke:rgb(96.470588%,63.529412%,67.843137%);stroke-opacity:1;stroke-miterlimit:4;" d="M 600.2027 205.0019 C 603.3991 205.0019 606.7003 204.8971 609.8967 205.0019 C 615.0974 207.7005 618.8047 212.2986 622.1059 217.0015 C 627.5031 225.5951 630.896 235.3022 634.3937 244.7997 C 642.6991 270.3054 648.8954 296.5054 654.5939 322.7054 C 662.205 357.9968 668.7943 393.4978 675.305 428.9988 C 676.9032 437.5007 678.5014 446.0943 679.497 454.701 C 679.9031 455.094 680.7022 455.9062 681.0035 456.1944 C 677.401 461.1986 675.9993 467.1984 673.995 472.8969 C 667.6939 493.2019 663.5936 514.2012 660.0959 535.0957 C 657.3973 551.4969 653.7031 567.8064 648.5941 583.605 C 644.7951 595.3033 640.197 606.8968 632.599 616.6956 C 628.9965 621.3985 624.0971 625.001 618.6999 627.3983 C 610.3945 628.3022 605.4951 620.2981 601.4996 614.4031 C 593.1942 599.9014 588.7009 583.6967 583.9063 567.8981 C 568.0946 509.3935 557.798 449.5003 546.7023 390.0001 C 546.5975 389.0962 546.0997 388.2971 545.3006 387.9041 C 553.1999 345.3946 561.5053 302.8982 573.2953 261.3057 C 577.9065 246.2014 582.3998 230.9006 590.1026 217.1063 C 592.6047 212.4034 596.4954 208.6961 600.2027 205.0019 Z M 600.2027 205.0019 " transform="matrix(0.298187,0,0,0.298187,0,0)"/>
<path style="fill-rule:nonzero;fill:rgb(96.470588%,63.529412%,67.843137%);fill-opacity:1;stroke-width:0.09375;stroke-linecap:butt;stroke-linejoin:miter;stroke:rgb(96.470588%,63.529412%,67.843137%);stroke-opacity:1;stroke-miterlimit:4;" d="M 3.1047 432.4965 C 5.6985 432.3 8.3054 431.8939 11.004 431.8939 C 47.3958 431.8939 83.6959 431.8939 119.996 431.8939 C 124.5941 432.4965 129.4018 432.1035 133.8034 434.0947 C 140.1962 436.7016 145.8947 441.1032 150.0998 446.6052 C 150.5976 446.3039 151.5015 445.5048 151.9993 445.0987 C 149.602 461.6964 145.6982 478.0976 142.397 494.6036 C 137.1046 519.7032 131.4978 544.8028 124.5024 569.6011 C 119.996 584.9936 115.3062 600.504 107.7999 614.7961 C 105.2061 619.8003 101.1975 624.0054 96.7042 627.5031 C 95.0012 627.8044 93.7043 626.5992 92.3026 625.6953 C 87.5997 622.6954 84.9011 617.4947 82.006 612.8049 C 68.3034 581.6007 66.7969 547.0953 58.295 514.5025 C 53.9982 498.2061 48.7058 482.0014 40.8982 467.0019 C 36.1036 458.0022 30.1955 449.3955 22.5058 442.5049 C 16.7942 437.8937 10.2049 434.1995 3.1047 432.4965 Z M 3.1047 432.4965 " transform="matrix(0.298187,0,0,0.298187,0,0)"/>
<path style="fill-rule:nonzero;fill:rgb(92.156863%,43.921569%,46.666667%);fill-opacity:1;stroke-width:0.09375;stroke-linecap:butt;stroke-linejoin:miter;stroke:rgb(92.156863%,43.921569%,46.666667%);stroke-opacity:1;stroke-miterlimit:4;" d="M 689.7936 442.8979 C 696.0947 435.7977 705.5005 431.3044 714.998 431.6974 C 742.2984 431.6974 769.7036 431.6974 797.004 431.6974 C 808.401 431.8939 819.9028 431.3044 831.2998 431.9987 C 827.8938 434.3043 823.7935 435.1951 820.2041 437.0946 C 807.6936 442.8062 797.004 452.3037 790.2051 464.1985 C 779.3059 483.1935 775.4938 505.005 772.2974 526.3973 C 769.101 547.3966 769.2058 569.1033 762.3938 589.5 C 757.7957 603.8052 750.8003 618.2021 738.6959 627.5948 C 701.0989 628.0009 663.5019 627.6996 625.9966 627.8044 C 623.4945 627.8044 621.0972 627.8961 618.6999 627.3983 C 624.0971 625.001 628.9965 621.3985 632.599 616.6956 C 640.197 606.8968 644.7951 595.3033 648.5941 583.605 C 653.7031 567.8064 657.3973 551.4969 660.0959 535.0957 C 663.5936 514.2012 667.6939 493.2019 673.995 472.8969 C 675.9993 467.1984 677.401 461.1986 681.0035 456.1944 C 684.0034 451.8059 685.9946 446.6969 689.7936 442.8979 Z M 689.7936 442.8979 " transform="matrix(0.298187,0,0,0.298187,0,0)"/>
</g>
</svg>
