<svg width="512" height="512" xmlns="http://www.w3.org/2000/svg">

 <g>
  <title>background</title>
  <rect fill="none" id="canvas_background" height="402" width="582" y="-1" x="-1"/>
 </g>
 <g>
  <title>Layer 1</title>
  <path id="svg_1" fill="#ed2025" d="m512.002,432c0,44.182 -35.816,80 -80,80l-352.002,0c-44.183,0 -80,-35.818 -80,-80l0,-352c0,-44.183 35.817,-80 80,-80l352.002,0c44.184,0 80,35.817 80,80l0,352z"/>
  <path id="svg_2" fill="#bc1013" d="m512.761193,431.240807l0,-130.895l-114.054,-114.054l-10.843,16.303l0.356,0.356l-3.254,1.141l-98.85,-98.85l-2.25,3.456l0.367,0.367l-3.554,3.903l-8.254,26.605l0,28.208l-48.466,-48.466l-2.25,3.456l0.254,0.253l-7.678,10.453l-7.191,18.764l-5.159,51.588l-54.549,-54.549l-0.843,-0.873l-0.014,0.017l-0.017,-0.017l-0.179,0.273l-17.24,22.69l-10,51.817l62.925,114.43l-22.144,22.143l151.482,151.481l121.405,0c44.184,0 80,-35.818 80,-80z"/>
  <path id="svg_5" fill="#FFFFFF" d="m223.188,120.076c-12.768,22.4 -14.355,50 -6.982,74.597c7.031,23.707 21.826,44.617 40.504,59.925c0.391,0.329 0.805,0.647 1.208,0.977c1.745,1.392 3.528,2.76 5.358,4.078c0.855,0.586 1.709,1.184 2.576,1.758c0.402,0.281 0.793,0.574 1.196,0.842c1.306,0.855 2.637,1.709 3.979,2.516c0.257,0.17 0.525,0.316 0.781,0.463c1.087,0.66 2.186,1.295 3.284,1.93c0.5,0.256 1.001,0.523 1.501,0.793c0.854,0.451 1.722,0.928 2.601,1.379c1.685,0.867 3.418,1.697 5.163,2.49c0.379,0.172 0.77,0.33 1.136,0.5c1.404,0.611 2.808,1.209 4.236,1.771c0.573,0.23 1.184,0.463 1.77,0.684c1.294,0.488 2.612,0.951 3.931,1.402c0.562,0.195 1.123,0.391 1.685,0.574c1.855,0.598 3.735,1.16 5.615,1.686c42.664,11.486 82.629,-3.236 103.271,-34.096c0,0 -22.9,79.262 -122.07,62.207c-1.929,-0.328 -3.76,-1.086 -5.604,-1.672c-0.586,-0.195 -1.159,-0.391 -1.745,-0.586c-1.307,-0.451 -2.588,-0.902 -3.882,-1.391c-0.586,-0.232 -1.196,-0.465 -1.808,-0.697c-1.416,-0.561 -2.807,-1.158 -4.211,-1.77c-0.379,-0.17 -0.757,-0.316 -1.135,-0.488c-1.734,-0.793 -3.443,-1.623 -5.14,-2.49c-1.208,-0.609 -2.026,-1.049 -2.845,-1.502c-0.414,-0.23 -0.83,-0.426 -1.244,-0.67c-1.185,-0.66 -2.369,-1.355 -3.528,-2.051c-0.183,-0.111 -0.378,-0.221 -0.562,-0.342c-1.355,-0.807 -2.674,-1.66 -3.992,-2.539c-0.391,-0.244 -0.769,-0.525 -1.159,-0.795c-0.817,-0.549 -1.647,-1.098 -2.454,-1.672c-2.002,-1.439 -3.783,-2.807 -5.541,-4.199c-0.391,-0.316 -0.781,-0.635 -1.172,-0.951c-1.734,-1.441 -3.467,-2.906 -5.127,-4.42c-1.734,-1.586 -3.199,-3.002 -4.639,-4.443c-0.367,-0.391 -0.758,-0.77 -1.123,-1.172c-1.49,-1.514 -2.93,-3.051 -4.322,-4.639c-3.809,-3.441 -7.006,-8.533 -9.887,-12.817c-3.15,-4.7 -5.982,-9.632 -8.496,-14.723c-14.979,-30.347 -16.016,-68.762 3.186,-97.449l15.687,-22.998z"/>
  <path id="svg_6" fill="#FFFFFF" d="m145.784,149.166c-23.389,46.936 -12.879,104.065 16.394,145.508c1.05,1.502 2.124,2.99 3.235,4.48c0.342,0.451 0.684,0.891 1.037,1.33c0.903,1.209 1.855,2.418 2.808,3.602c0.342,0.428 0.672,0.83 1.025,1.258c1.27,1.563 2.563,3.1 3.894,4.613c1.453,1.637 2.722,3.053 4.041,4.432c0.403,0.428 0.806,0.842 1.221,1.281c1.025,1.074 2.075,2.137 3.137,3.186c0.403,0.416 0.818,0.818 1.233,1.234c1.44,1.391 2.881,2.758 4.37,4.113c1.807,1.623 3.198,2.832 4.602,4.027c0.488,0.416 0.989,0.818 1.477,1.234c1.111,0.928 2.222,1.818 3.345,2.709c0.537,0.428 1.074,0.855 1.636,1.281c1.221,0.941 2.441,1.869 3.687,2.771c0.427,0.293 0.83,0.623 1.269,0.928c1.282,0.916 2.588,1.807 3.906,2.686c0.488,0.342 0.977,0.695 1.478,1.025c1.807,1.197 3.638,2.369 5.481,3.492c0.488,0.293 0.951,0.549 1.439,0.83c1.393,0.83 2.783,1.66 4.199,2.453c0.781,0.451 1.575,0.842 2.356,1.281c1.159,0.611 2.331,1.246 3.528,1.855c0.439,0.221 0.879,0.439 1.306,0.646c1.501,0.758 3.015,1.479 4.554,2.197c0.354,0.16 0.707,0.33 1.074,0.502c1.781,0.805 3.576,1.574 5.395,2.318c0.465,0.195 0.928,0.379 1.393,0.574c1.66,0.672 3.32,1.307 5.004,1.916c2.637,0.965 4.541,1.611 6.434,2.209c0.488,0.16 0.977,0.307 1.477,0.465c1.941,0.598 3.883,1.232 5.872,1.709c52.698,12.439 108.338,1.27 139.674,-41.113c0,0 -37.317,104.443 -165.772,80.127c-2.014,-0.379 -3.967,-1.111 -5.92,-1.734c-0.465,-0.133 -0.928,-0.293 -1.393,-0.426c-1.916,-0.623 -3.832,-1.258 -5.725,-1.953c-2.381,-0.855 -4.09,-1.527 -5.799,-2.197c-0.439,-0.184 -0.879,-0.367 -1.318,-0.551c-1.83,-0.744 -3.649,-1.537 -5.443,-2.355c-0.342,-0.146 -0.66,-0.293 -1.002,-0.451c-1.563,-0.732 -3.125,-1.477 -4.663,-2.246c-0.403,-0.207 -0.806,-0.402 -1.208,-0.611c-1.672,-0.854 -2.649,-1.391 -3.625,-1.928c-0.757,-0.402 -1.538,-0.793 -2.283,-1.221c-1.379,-0.781 -2.759,-1.574 -4.114,-2.393c-0.513,-0.305 -1.025,-0.598 -1.514,-0.891c-1.855,-1.123 -3.687,-2.295 -5.493,-3.492c-0.513,-0.342 -1.013,-0.707 -1.514,-1.049c-1.184,-0.781 -2.368,-1.588 -3.516,-2.406c-0.806,-0.572 -1.221,-0.902 -1.672,-1.232c-1.208,-0.879 -2.417,-1.781 -3.613,-2.686c-0.574,-0.463 -1.147,-0.902 -1.721,-1.367c-1.074,-0.854 -2.148,-1.721 -3.21,-2.611c-0.537,-0.439 -1.074,-0.879 -1.6,-1.318c-1.294,-1.111 -2.588,-2.246 -3.857,-3.383c-0.244,-0.219 -0.488,-0.426 -0.744,-0.646c-1.502,-1.367 -2.918,-2.709 -4.31,-4.076c-0.427,-0.404 -0.854,-0.83 -1.27,-1.246c-1.05,-1.049 -2.075,-2.1 -3.101,-3.174c-0.415,-0.414 -0.83,-0.854 -1.245,-1.293c-1.318,-1.404 -2.612,-2.809 -3.882,-4.248c-1.525,-1.734 -2.795,-3.248 -4.053,-4.785c-0.342,-0.416 -0.695,-0.855 -1.037,-1.295c-0.94,-1.16 -1.844,-2.318 -2.747,-3.49c-0.366,-0.502 -0.744,-0.99 -1.123,-1.49c-1.001,-1.342 -2.002,-2.709 -2.954,-4.09c-0.183,-0.256 -0.378,-0.5 -0.562,-0.768c-1.196,-1.734 -2.282,-3.369 -3.345,-5.006c-0.317,-0.5 -0.635,-1.014 -0.952,-1.537c-0.769,-1.209 -1.514,-2.418 -2.246,-3.639c-0.378,-0.635 -0.744,-1.27 -1.11,-1.904c-0.659,-1.146 -1.307,-2.295 -1.941,-3.441c-0.354,-0.66 -0.708,-1.295 -1.05,-1.953c-0.195,-0.367 -0.415,-0.732 -0.586,-1.1c-0.342,-0.623 -0.635,-1.27 -0.952,-1.904c-0.5,-0.988 -1.001,-1.977 -1.489,-2.99c-20.288,-42.102 -23.596,-93.654 2.954,-133.29l20.739,-27.293z"/>
  <path id="svg_7" fill="#FFFFFF" d="m285.322,106.001c-15.662,29.382 -0.757,65.441 23.267,84.362c4.199,3.296 8.74,6.177 13.501,8.557c2.515,1.245 5.103,2.356 7.715,3.32c2.051,0.745 4.37,1.55 6.494,2.087c26.831,6.763 48.694,2.087 61.706,-17.358c-3.955,5.908 -18.811,46.07 -73.571,35.083c-1.208,-0.244 -2.368,-0.684 -3.54,-1.063c-0.366,-0.109 -0.721,-0.244 -1.074,-0.354c-0.83,-0.293 -1.648,-0.575 -2.466,-0.891c-19.824,-7.545 -36.792,-23.45 -45.081,-43.738c-7.861,-19.092 -6.751,-40.576 4.578,-57.886l8.471,-12.119z"/>
 </g>
</svg>