<svg width="128" height="128" xmlns="http://www.w3.org/2000/svg">

 <g>
  <title>background</title>
  <rect fill="none" id="canvas_background" height="402" width="582" y="-1" x="-1"/>
 </g>
 <g>
  <title>Layer 1</title>
  <circle fill="#ed2025" id="svg_5" r="50" cy="64" cx="64" class="st0"/>
  <path fill="#f6f6f6" id="path21_1_" d="m75.3,63.4c4,1.4 6.1,3.8 6.1,7.3c0,2.3 -0.8,4 -2.5,5.4c-1.7,1.3 -4,2.1 -7.1,2.1c-2.9,0 -5.6,-0.8 -8.1,-2.1c-0.3,-0.2 -0.5,-0.5 -0.5,-0.9c0.1,-0.6 0.3,-1.3 0.6,-2c0.3,-0.6 0.5,-1.1 0.8,-1.6c0.3,-0.4 0.7,-0.5 1.2,-0.3c2.2,1 4,1.6 5.7,1.6c0.8,0 1.5,-0.1 2,-0.4c0.5,-0.3 0.7,-0.7 0.7,-1.1c0,-0.9 -0.7,-1.6 -2.1,-2l-2.5,-0.9c-3.8,-1.4 -5.7,-3.6 -5.7,-6.8c0,-2.3 0.8,-4.1 2.4,-5.4c1.6,-1.3 3.7,-2.5 6.4,-2.5c1.3,0 2.8,0.2 4.4,0.6c1.4,0.3 2.5,1 3.5,1.6c0.3,0.2 0.5,0.5 0.5,0.9c0,0.7 -0.2,1.4 -0.5,2.2c-0.3,0.7 -0.6,1.3 -1,1.7c-0.3,0.3 -0.7,0.4 -1,0.2c-2.3,-1 -4.2,-1.5 -5.8,-1.5c-0.6,0 -1.1,0.1 -1.4,0.4c-0.3,0.3 -0.5,0.6 -0.5,1c0,0.7 0.6,1.3 1.7,1.7l2.7,0.8l0,0z" class="st1"/>
  <path fill="#f6f6f6" id="path27_1_" d="m93.9,67c-1.3,1.1 -2,2.7 -2,4.9l0,7.9c0,2.6 -0.8,4.6 -2.6,6c-1.8,1.4 -3.9,2 -6.3,2.1l-1.4,0l0,-3.3c0,-0.4 0.2,-0.7 0.6,-0.8c0.9,-0.3 1.3,-0.7 1.7,-1.1c0.9,-0.8 1.6,-2.2 1.6,-4l0,-6.4c0,-2.2 0.2,-3.9 1,-5.1c0.6,-0.9 1.6,-1.7 3,-2.5c0.6,-0.3 0.6,-1.2 0,-1.6c-1.7,-1 -2.8,-2.2 -3.5,-3.7c-0.5,-1.1 -0.5,-2.6 -0.5,-4.5l0,-5.8c0,-1.9 -0.6,-3.3 -1.4,-4c-0.4,-0.4 -0.9,-0.8 -1.8,-1c-0.4,-0.1 -0.6,-0.5 -0.6,-0.9l0,-2.1c0,-0.5 0.4,-0.9 0.9,-0.9c1.1,0 1.9,0 2.7,0c1.5,0 2.8,0.8 3.9,1.7c1.2,1 2.1,2.2 2.6,3.9c0.3,0.9 0.3,1.8 0.3,2.7l0,6.7c0,2.4 0.7,4.2 1.9,5.3c0.6,0.6 1.4,1.1 2.7,1.6c0.4,0.1 0.6,0.5 0.6,0.8l0,1.7c0,0.4 -0.2,0.7 -0.6,0.9c-1.4,0.4 -2.2,0.9 -2.8,1.5l0,0z" class="st1"/>
  <path fill="#f6f6f6" id="path29_1_" d="m44.8,40.2l0,0c-0.5,0 -0.9,0 -1.3,0c-1.5,0 -2.8,0.8 -3.9,1.7c-1.2,1 -2.3,2.2 -2.6,3.9c-0.2,1 -0.1,1.8 -0.1,2.7l0,6.7c0,2.4 -0.9,4.1 -2.1,5.3c-0.6,0.6 -1.8,1.1 -3.2,1.6c-0.4,0.2 -0.6,0.5 -0.6,0.9l0,1.7c0,0.4 0.2,0.7 0.6,0.9c1.2,0.4 2.3,0.9 3,1.5c1.3,1.1 2.2,2.7 2.2,4.9l0,7.9c0,2.6 0.6,4.6 2.4,6c1.8,1.4 3.9,2 6.3,2.1l0.7,0c0.5,0 0.9,-0.4 0.9,-0.9l0,-2.4c0,-0.4 -0.2,-0.7 -0.6,-0.8c-0.9,-0.3 -1.5,-0.7 -1.9,-1.1c-0.9,-0.8 -1.4,-2.2 -1.4,-4l0,-6.4c0,-2.2 -0.4,-3.9 -1.2,-5.1c-0.6,-0.9 -1.6,-1.7 -3,-2.5c-0.6,-0.3 -0.6,-1.2 0,-1.6c1.7,-1 2.8,-2.2 3.5,-3.7c0.5,-1.1 0.7,-2.6 0.7,-4.5l0,-5.8c0,-1.9 0.4,-3.3 1.2,-4c0.4,-0.4 1.1,-0.7 2.1,-1c0.1,0 0.2,0 0.3,0l0.6,0c0.5,0 0.9,-0.4 0.9,-0.9l0,-2.1c0,-0.5 -0.4,-0.9 -0.9,-0.9l-2.6,-0.1l0,0l0,0l0,0z" class="st1"/>
  <path fill="#f6f6f6" id="path31_1_" d="m61,72.1l-1.2,0c-1.3,0 -1.8,-0.7 -1.8,-2.1l0,-25.9c0,-1.6 -0.5,-2.7 -1,-3.3c-0.6,-0.6 -1.6,-0.6 -3,-0.6l-2.2,0c-0.5,0 -0.9,0.4 -0.9,0.9l0,3l0,27.2c0,2.2 0.5,3.7 1.4,4.8c0.9,1 2.3,1.5 4.4,1.5c1.3,0 2.7,-0.1 4.2,-0.3c0.4,-0.1 0.7,-0.4 0.8,-0.8c0,-0.3 0,-0.7 0,-1.2c-0.2,-1.2 -0.4,-2.2 -0.7,-3.2l0,0z" class="st1"/>
 </g>
</svg>