<svg width="512" height="512" xmlns="http://www.w3.org/2000/svg">

 <g>
  <title>background</title>
  <rect fill="none" id="canvas_background" height="402" width="582" y="-1" x="-1"/>
 </g>
 <g>
  <title>Layer 1</title>
  <circle r="256" id="XMLID_861_" fill="#ed2025" cy="256.759192" cx="256.759192"/>
  <path id="XMLID_908_" fill="#bc1013" d="m512,256c0,-3.3 -0.1,-6.5 -0.2,-9.8l-145.8,-147.6c0,-1.4 -1.3,-2.6 -2.9,-2.6l-34.5,0c-1.6,0 -2.9,1.2 -2.9,2.6l0,5.8l9.1,6.2l-9.1,0l0,15.7l-8.4,-8.3l-164.8,0c-12.5,0 -22.6,10.1 -22.6,22.6l0,155.2l9.1,5.6l-13.8,0l0,73.6l9.1,5.6l-4.5,0l0,12.8c0,7.4 3.6,14 9.1,18.1c0.9,1.2 62.2,62.6 99.6,99.9c5.8,0.4 11.6,0.6 17.4,0.6c141.5,0 256.1,-114.6 256.1,-256z"/>
  <path id="XMLID_61_" fill="#FFFFFF" d="m257.1,338.2l42,-36.8l-173.9,0l0,73.6l173.9,0l-42,-36.8zm-86.5,15.1c-2.2,1.7 -5.1,2.5 -8.8,2.5c-3.5,0 -6.5,-0.9 -9.1,-2.8c-2.6,-1.8 -3.8,-4.5 -3.8,-7.8l0,-0.1l5.5,0c0,2.1 0.7,3.6 2.1,4.6c1.4,1 3.1,1.6 5.2,1.6c2,0 3.6,-0.4 4.7,-1.3c1.1,-0.9 1.7,-2 1.7,-3.5c0,-1.4 -0.5,-2.6 -1.5,-3.5c-1,-0.9 -2.8,-1.7 -5.4,-2.4c-3.7,-1 -6.5,-2.4 -8.5,-4c-2,-1.7 -3,-3.8 -3,-6.5c0,-2.8 1.1,-5 3.3,-6.8c2.2,-1.8 5,-2.7 8.5,-2.7c3.7,0 6.7,1 8.9,3c2.2,2 3.3,4.4 3.2,7.3l0,0.1l-5.5,0c0,-1.8 -0.6,-3.2 -1.8,-4.3c-1.2,-1.1 -2.8,-1.6 -4.8,-1.6c-1.9,0 -3.4,0.5 -4.5,1.4c-1,0.9 -1.6,2.1 -1.6,3.5c0,1.3 0.6,2.4 1.7,3.3c1.1,0.9 3,1.7 5.7,2.4c3.6,1 6.3,2.4 8.2,4.1c1.9,1.7 2.8,3.9 2.8,6.6c0.1,2.9 -1,5.2 -3.2,6.9zm25,2l-5.4,0l-12.2,-34.2l6.1,0l8.2,24.9l0.6,2.5l0.1,0l0.6,-2.4l8.2,-25l6.1,0l-12.3,34.2zm42.6,-4.6c-0.9,1.3 -2.4,2.5 -4.5,3.6c-2.1,1 -4.7,1.6 -8,1.6c-4,0 -7.4,-1.3 -10,-3.9c-2.6,-2.6 -3.9,-6 -3.9,-10.1l0,-7.1c0,-4.1 1.3,-7.5 3.8,-10.1c2.5,-2.6 5.8,-3.9 9.7,-3.9c4,0 7.1,1 9.3,3c2.2,2 3.3,4.6 3.2,7.8l-0.1,0.1l-5.4,0c0,-1.9 -0.6,-3.5 -1.8,-4.7c-1.2,-1.2 -2.9,-1.8 -5.2,-1.8c-2.4,0 -4.3,0.9 -5.7,2.7c-1.4,1.8 -2.2,4 -2.2,6.7l0,7.2c0,2.8 0.8,5 2.3,6.8c1.5,1.8 3.5,2.7 5.9,2.7c1.8,0 3.3,-0.2 4.3,-0.6c1.1,-0.4 1.9,-0.9 2.4,-1.5l0,-7.1l-7.2,0l0,-4.3l12.9,0l0,12.9l0.2,0z"/>
  <path id="XMLID_332_" fill="#FFFFFF" d="m383.9,167.1l-17.9,0l0,-34.6l-40.4,0l0,34.6l-17.8,0c-2.5,0 -3.9,2.7 -2.2,4.4l38,44.1c1.2,1.1 3.2,1.1 4.3,0l38,-44.1c1.8,-1.7 0.5,-4.4 -2,-4.4z"/>
  <rect y="110.6" x="325.7" width="40.4" id="XMLID_331_" height="15.7" fill="#FFFFFF"/>
  <path id="XMLID_330_" fill="#FFFFFF" d="m341.4,224l0,166c0,9.6 -7.8,17.5 -17.5,17.5l-168,0c-9.6,0 -17.5,-7.8 -17.5,-17.5l0,-9.4l-8.6,0l0,12.8c0,12.5 10.1,22.6 22.6,22.6l174.9,0c12.5,0 22.6,-10.1 22.6,-22.6l0,-169.3c-1.3,0.5 -2.7,0.8 -4.1,0.8c-1.5,-0.1 -3,-0.4 -4.4,-0.9z"/>
  <path id="XMLID_329_" fill="#FFFFFF" d="m138.4,144.1c0,-9.6 7.8,-17.5 17.5,-17.5l161.4,0l0,-2.5l0,-6.1l-164.8,0c-12.5,0 -22.6,10.1 -22.6,22.6l0,155.2l8.6,0l0,-151.7l-0.1,0z"/>
  <path id="XMLID_328_" fill="#FFFFFF" d="m299,176.6l-135,0l0,12.4l145.7,0l-10.3,-11.9c-0.1,-0.1 -0.3,-0.3 -0.4,-0.5z"/>
  <rect y="196.8" x="164" width="151.8" id="XMLID_327_" height="12.4" fill="#FFFFFF"/>
  <rect y="217" x="164" width="151.8" id="XMLID_326_" height="12.4" fill="#FFFFFF"/>
  <rect y="237.2" x="164" width="151.8" id="XMLID_325_" height="12.4" fill="#FFFFFF"/>
  <rect y="257.3" x="164" width="118.9" id="XMLID_324_" height="12.4" fill="#FFFFFF"/>
  <path id="XMLID_323_" fill="#FFFFFF" d="m366,98.6c0,-1.4 -1.3,-2.6 -2.9,-2.6l-34.5,0c-1.6,0 -2.9,1.2 -2.9,2.6l0,5.8l40.3,0l0,-5.8z"/>
 </g>
</svg>