<svg width="128" height="128" xmlns="http://www.w3.org/2000/svg">

 <g>
  <title>background</title>
  <rect fill="none" id="canvas_background" height="402" width="582" y="-1" x="-1"/>
 </g>
 <g>
  <title>Layer 1</title>
  <g id="svg_1">
   <path id="svg_2" d="m64,3c33.6,0 61,27.4 61,61s-27.4,61 -61,61s-61,-27.4 -61,-61s27.4,-61 61,-61m0,-3c-35.3,0 -64,28.7 -64,64s28.7,64 64,64s64,-28.7 64,-64s-28.7,-64 -64,-64l0,0z" fill="#d40080"/>
  </g>
  <g id="svg_3">
   <g id="svg_4">
    <g id="svg_5">
     <path id="svg_6" d="m97.8,62.7c-0.7,0 -1.4,-0.6 -1.5,-1.3c-1,-7.8 -4.9,-14.8 -11,-19.6c-0.6,-0.5 -0.8,-1.5 -0.2,-2.1c0.5,-0.6 1.5,-0.8 2.1,-0.2c6.7,5.4 11,13 12.1,21.6c0.1,0.8 -0.5,1.6 -1.3,1.7c0,-0.1 -0.1,-0.1 -0.2,-0.1z" fill="#d40080"/>
    </g>
    <g id="svg_7">
     <g id="svg_8">
      <polygon id="svg_9" points="94.1,40 87,41.1 88.1,48.3 84.6,45.7 83.5,38.6 90.6,37.4     " fill="#d40080"/>
     </g>
    </g>
   </g>
  </g>
  <g id="svg_10">
   <g id="svg_11">
    <g id="svg_12">
     <path id="svg_13" d="m31.4,59.2c-0.1,0 -0.2,0 -0.3,0c-0.8,-0.2 -1.3,-1 -1.2,-1.8c1.8,-8.4 6.7,-15.7 13.9,-20.5c0.7,-0.5 1.6,-0.3 2.1,0.4c0.5,0.7 0.3,1.6 -0.4,2.1c-6.5,4.4 -11,11 -12.6,18.7c-0.2,0.6 -0.8,1.1 -1.5,1.1z" fill="#d40080"/>
    </g>
    <g id="svg_14">
     <g id="svg_15">
      <polygon id="svg_16" points="27.3,51 31.5,56.8 37.4,52.6 36.7,56.9 30.9,61.1 26.6,55.3     " fill="#d40080"/>
     </g>
    </g>
   </g>
  </g>
  <g id="svg_17">
   <g id="svg_18">
    <g id="svg_19">
     <path id="svg_20" d="m63.4,100.5c-4.5,0 -9.1,-0.9 -13.3,-2.8c-0.8,-0.3 -1.1,-1.2 -0.8,-2c0.3,-0.8 1.2,-1.1 2,-0.8c7.2,3.1 15.2,3.4 22.5,0.7c0.8,-0.3 1.6,0.1 1.9,0.9c0.3,0.8 -0.1,1.6 -0.9,1.9c-3.7,1.4 -7.6,2.1 -11.4,2.1z" fill="#d40080"/>
    </g>
    <g id="svg_21">
     <g id="svg_22">
      <polygon id="svg_23" points="70.8,104.1 73.5,97.4 66.8,94.7 70.7,93 77.4,95.7 74.7,102.4     " fill="#d40080"/>
     </g>
    </g>
   </g>
  </g>
  <g id="svg_24">
   <path id="svg_25" d="m53.999999,28.4c0,-0.3 0.4,-0.6 0.6,-0.6l0.6,0c0.2,0 0.5,0.1 0.6,0.4l8.1,15.2l0.1,0l8.1,-15.2c0.1,-0.2 0.4,-0.4 0.6,-0.4l0.6,0c0.3,0 0.6,0.2 0.6,0.6l4,23.6c0.1,0.5 -0.2,0.8 -0.7,0.8l-4.1,0c-0.3,0 -0.6,-0.3 -0.7,-0.6l-1.6,-10.8l-0.1,0l-5.9,11.4c-0.1,0.2 -0.4,0.4 -0.6,0.4l-0.6,0c-0.2,0 -0.5,-0.2 -0.6,-0.4l-5.9,-11.4l-0.1,0l-1.5,10.8c0,0.3 -0.3,0.6 -0.7,0.6l-4.1,0c-0.4,0 -0.7,-0.3 -0.7,-0.8l4,-23.6z" fill="#d40080"/>
  </g>
  <g id="svg_26">
   <path id="svg_27" d="m26.7,68.2c-0.2,-0.5 0.1,-0.9 0.6,-0.9l4.7,0c0.3,0 0.5,0.2 0.6,0.4l5.8,12.8l0.2,0l5.8,-12.8c0.1,-0.2 0.3,-0.4 0.6,-0.4l4.7,0c0.5,0 0.8,0.5 0.6,0.9l-11,23.6c-0.1,0.2 -0.3,0.4 -0.6,0.4l-0.4,0c-0.3,0 -0.5,-0.2 -0.6,-0.4l-11,-23.6z" fill="#d40080"/>
  </g>
  <g id="svg_28">
   <path id="svg_29" d="m88.6,67c3.5,0 6.1,1.1 8.5,3.3c0.3,0.3 0.3,0.7 0,1l-2.7,2.7c-0.2,0.2 -0.6,0.2 -0.9,0c-1.3,-1.2 -3,-1.8 -4.7,-1.8c-4,0 -6.9,3.3 -6.9,7.2c0,3.9 2.9,7.1 6.9,7.1c1.6,0 3.4,-0.6 4.7,-1.7c0.2,-0.2 0.7,-0.2 0.9,0l2.7,2.9c0.2,0.2 0.2,0.7 0,0.9c-2.4,2.3 -5.4,3.4 -8.5,3.4c-7,0 -12.7,-5.6 -12.7,-12.6c0.1,-6.8 5.7,-12.4 12.7,-12.4z" fill="#d40080"/>
  </g>
 </g>
</svg>