<?xml version="1.0" encoding="iso-8859-1"?>
<!-- Generator: Adobe Illustrator 19.0.0, SVG Export Plug-In . SVG Version: 6.00 Build 0)  -->
<svg xmlns="http://www.w3.org/2000/svg" xmlns:xlink="http://www.w3.org/1999/xlink" version="1.1" id="Capa_1" x="0px" y="0px" viewBox="0 0 512 512" style="enable-background:new 0 0 512 512;" xml:space="preserve" width="512px" height="512px">
<g>
	<g>
		<g>
			<path d="M416,176v-64c0.025-4.253-1.645-8.341-4.64-11.36l-96-96C312.341,1.645,308.253-0.024,304,0H48C21.49,0,0,21.491,0,48     v416c0,26.51,21.49,48,48,48h112v-32H48c-8.837,0-16-7.163-16-16V48c0-8.837,7.163-16,16-16h240v64c0,17.673,14.327,32,32,32h64     v48H416z" fill="#d40080"/>
			<path d="M208,256h-64c-8.837,0-16,7.163-16,16v144h32v-48h48c17.673,0,32-14.327,32-32v-48C240,270.327,225.673,256,208,256z      M208,336h-48v-48h48V336z" fill="#d40080"/>
			<path d="M480,256h-64c-8.837,0-16,7.163-16,16v144h32v-48h48c17.673,0,32-14.327,32-32v-48C512,270.327,497.673,256,480,256z      M480,336h-48v-48h48V336z" fill="#d40080"/>
			<polygon points="352,320 288,320 288,256 256,256 256,416 288,416 288,352 352,352 352,416 384,416 384,256 352,256    " fill="#d40080"/>
		</g>
	</g>
</g>
<g>
</g>
<g>
</g>
<g>
</g>
<g>
</g>
<g>
</g>
<g>
</g>
<g>
</g>
<g>
</g>
<g>
</g>
<g>
</g>
<g>
</g>
<g>
</g>
<g>
</g>
<g>
</g>
<g>
</g>
</svg>
