<svg xmlns="http://www.w3.org/2000/svg" width="512" height="512" viewBox="0 0 50.491 50.491"><g fill="#d40080"><path d="M40.996 28.721c-2.448-2.371-6.724.924-7.368-3.854-.4-2.973 5.336-1.877 7.082-3.623 2.245-2.244 1.127-3.577-1.6-4.548-5.521-1.967-11.381 2.355-12.301 7.695-.094.544-.094 1.441-.008 1.986.529 3.33 2.762 5.819 5.619 6.904.516.195.934.32.909.343-.024.021.072.074.216.113.145.037.28.048.303.022.023-.022.482.05 1.033.098a9.5 9.5 0 0 0 4.497-.717c2.278-.949 3.783-2.322 1.618-4.419zm-12.293-3.057c-.06-.438-.056-1.245.028-1.791.012-.068.022-.136.035-.203.097-.544.533-1.295.918-1.69l3.66-3.75c.387-.395.483-.669.221-.593-.262.076-.793.461-1.188.847-1.165 1.136-.303.349-2.175 2.161-.396.384-.538.283-.249-.188 1.433-2.328 3.992-3.771 7.565-3.029.186.039.359.087.521.143.283.096.39.166.255.119-.135-.047-.48.144-.771.416-.289.272-.185.273.265.057.449-.218 1.253-.156 1.618.259 1.138 1.299.259 3.239-2.075 3.012a7.043 7.043 0 0 0-2.448.229c-.533.145-.814.07-.635-.242s.031-.236-.365.147c-1.519 1.471-.822.699-4.337 4.182-.393.387-.784.352-.843-.086zm.471 2.065c-.136-.397.11-1.033.514-1.41.484-.453.965-.904 1.443-1.354.403-.377.719-.638.706-.581-.008.034-.016.068-.02.104-.04.299-.056.58-.048.848.015.47-.219 1.147-.625 1.524l-.963.896c-.404.376-.872.37-1.007-.027zm10.248 3.48c-1.195 1.176-2.429 1.759-3.701 1.765-.552.002-.765-.344-.482-.632.281-.287.46-.563.4-.617-.061-.053-.387.153-.729.465-.343.312-.806.508-1.026.418a4.667 4.667 0 0 1-.392-.178 8.297 8.297 0 0 1-.767-.397c-.412-.24-.407-.794-.014-1.182.196-.19.393-.382.59-.569.399-.383.707-.728.685-.774-.022-.048-.36.227-.755.612l-.649.635c-.396.386-1.088.447-1.489.066a6.73 6.73 0 0 1-.406-.422c-.365-.413-.277-1.099.127-1.474.303-.279.604-.56.904-.839.405-.376 1.004-.313 1.445.018.305.229.659.43 1.066.602 1.627.688 3.08-.627 4.758.483.211.142.42.36.609.595.297.365.219 1.038-.174 1.425zM34.768 8.357c-.002.008.002.015 0 .023.207-.219.226-.246 0-.023z"/><path d="M38.872 37.873c-2.968-1.564-6.382-.796-9.459-2.819-2.991-1.967-4.53-5.393-5.086-8.799-.718-4.393 1.659-8.63 4.945-11.308 4.688-3.82 5.664-.528 8.48-2.428 2.764-1.863 1.956-5.509-1.324-5.63-10.439-.384-18.72 8.453-19.108 18.495.348 9.013 8.75 19.462 18.674 18.171.547-.071.998-.167 1.013-.167.014 0 .184-.04.379-.085.118-.026.235-.056.354-.087 1.961-.526 3.405-4.146 1.132-5.343zM23.524 13.591a19.654 19.654 0 0 1 2.178-2.202c.063-.055.147-.118.247-.188.141-.099-.058.146-.447.539l-1.9 1.92c-.387.393-.434.353-.078-.069zm-3.595 6.856a17.601 17.601 0 0 1 1.111-2.991c.238-.498.779-1.2 1.177-1.583.364-.351.728-.701 1.092-1.056 1.364-1.381 2.734-2.752 4.102-4.127.391-.392 1.107-.907 1.609-1.135 2.152-.969 4.828-1.876 6.565-1.708.55.053.792.43.585.643-.207.212-.1.29.244.19.344-.102.885.148.954.63a2.99 2.99 0 0 1-.017.875c-.326 2.175-2.228 1.747-3.896 2.02-1.973.322-3.878 1.174-5.54 2.39-.446.326-.524.255-.173-.171a17.82 17.82 0 0 1 4.434-3.868c.469-.289 1.135-.768 1.471-1.096.244-.238.449-.438.611-.591.241-.242.4-.401.512-.511.05-.218-.116-.361-.496-.327l-.039.004c-.551.051-1.213.32-1.482.569l-.488.45c-3.84 3.768-7.802 7.664-11.858 11.663-.395.387-.623.263-.478-.27zm-.643 4.904a11.08 11.08 0 0 1-.033-.483c.005-.138.018-.273.031-.408.022-.225.351-.729.736-1.125.983-1.013 1.94-1.997 2.864-2.946.386-.396.493-.318.288.194-.123.306-.233.616-.331.93-.164.527-.569 1.288-.954 1.685l-1.863 1.922c-.384.395-.715.499-.738.231zm.619 4.051l-.02-.078c-.136-.535.096-1.291.487-1.682l1.043-1.035.352-.385c.194-.213.03-.074-.367.311l-1.034.998c-.397.384-.771.434-.822.111-.051-.321.233-.897.627-1.286l1.443-1.423c.393-.389.695-.444.694-.125 0 .191.004.383.015.576.028.523.084 1.029.161 1.521.085.546-.135 1.3-.527 1.688l-1.069 1.062c-.393.393-.846.282-.983-.253zm1.793 4.462a16.782 16.782 0 0 1-.736-1.446c-.227-.504-.071-1.245.313-1.642l.99-1.02c.385-.396.823-.286 1.021.23.221.575.479 1.132.779 1.667.269.481.195 1.157-.208 1.534l-.904.844c-.404.378-.981.313-1.255-.167zm12.156 8.256c-.545-.081-.883-.28-.756-.415.125-.135-.172-.445-.651-.723l-.103-.06c-.477-.279-1.061-.323-1.326-.066-.267.258-.903.315-1.405.087-.347-.158-.685-.33-1.019-.515-.482-.268-.543-.827-.154-1.219a.17.17 0 0 0 .019-.019c.39-.392.533-.871.329-1.083-.204-.211-.693-.085-1.102.287-.066.062-.133.121-.2.184-.408.372-1.102.414-1.538.075a27.598 27.598 0 0 1-1.087-.894 6.535 6.535 0 0 1-.382-.361c-.204-.205-.053-.694.334-1.089l.741-.752c.388-.394.674-.759.639-.816-.035-.059-.391.198-.796.574l-.822.762c-.405.375-.95.453-1.199.159-.249-.296-.11-.847.297-1.22l.917-.843c.407-.373 1.018-.327 1.394.077.489.526 1.03 1.032 1.625 1.517 1.411 1.15 3.194 1.768 4.917 2.241 1.688.465 4.266-.217 5.185 1.887 1.088 2.495-1.617 2.553-3.857 2.225z"/><path d="M33.338 9.913c.045-.021.393-.36.778-.757l.457-.47a.769.769 0 0 0 .194-.306c-.168.177-.445.467-.816.852-.382.399-.658.701-.613.681z"/><path d="M31.869 44.079c-9.681-1.028-16.166-10.011-16.491-19.212-.173-4.898 2.073-9.557 5.223-13.154 2.124-2.425 5.1-4.049 8.121-5.033 2.133-.694 4.363-.185 6.428-.737 1.719-.461 1.99-1.874 2.15-3.464.293-2.899-2.334-2.482-4.267-2.428C19.377.432 8.819 12.073 8.446 25.385c.221 7.884 3.617 14.703 9.737 19.655 4.118 3.332 11.858 6.545 17.278 5.093a.778.778 0 0 0 .103-.035c.056-.021.089-.025.072-.01-.016.016-.01.015.012-.004s.49-.155.912-.511c.729-.613.922-1.573.803-2.705-.366-3.454-2.761-2.499-5.494-2.789zM12.647 14.863c.342-.75.723-1.482 1.141-2.196.279-.477.843-1.166 1.239-1.551l4.453-4.335 2.358-2.212c.402-.378 1.121-.901 1.616-1.146a22.663 22.663 0 0 1 1.593-.711c.512-.205.616-.04.22.345C21.08 7.128 17.27 10.88 12.97 15.08c-.397.388-.552.285-.323-.217zm.293.284c2.358-2.295 4.153-4.028 2.952-2.793l-2.991 2.891c-.397.385-.71.675-.698.648.012-.026.341-.36.737-.746zm-2.131 5.616c.099-.545.214-1.085.347-1.617.133-.536.575-1.285.962-1.68a1869.27 1869.27 0 0 1 14.805-14.9c.391-.39.342-.61-.105-.474-.447.137-.382.109.146-.052a27.188 27.188 0 0 1 4.155-.914C33.008.859 35.578.795 35.28 3.75c-.183 1.792-2.636 1.346-3.864 1.477-6.795.722-12.309 4.96-15.364 10.635-.262.486-.769 1.208-1.157 1.601a3987.567 3987.567 0 0 0-3.541 3.577c-.392.391-.645.266-.545-.277zm-.413 4.548a16.326 16.326 0 0 1-.019-.442c.013-.475.04-.944.078-1.41.045-.551.423-1.305.823-1.685.98-.934 1.958-1.872 2.936-2.818.397-.384.553-.279.378.244-.25.742-.457 1.501-.626 2.271-.118.54-.512 1.296-.906 1.684-.64.631-1.283 1.266-1.928 1.9-.392.385-.723.501-.736.256zm.339 3.319c-.068-.425.199-1.091.583-1.487l1.468-1.513c.385-.396.69-.611.677-.482a4.595 4.595 0 0 0-.017.236c-.008.228-.01.45-.009.674.003.371-.295.992-.679 1.39l-1.194 1.231c-.384.397-.762.376-.829-.049zm.494 2.399c-.075-.297.188-.853.582-1.239l1.035-1.021c.393-.389.741-.429.79-.093.049.336-.222.917-.619 1.301l-.926.894c-.397.382-.787.454-.862.158zm.466 1.628l-.003-.013c-.168-.525.03-1.272.421-1.663.485-.482.97-.966 1.458-1.447l.088-.098c.049-.053.168.346.3.882l.024.096c.135.536-.043 1.277-.435 1.668-.275.272-.548.546-.82.814-.393.391-.864.286-1.033-.239zm1.89 4.387c-.258-.465-.5-.939-.726-1.42-.234-.5-.095-1.236.29-1.633l.796-.818c.385-.396.857-.298 1.087.204.244.534.513 1.055.807 1.56.277.479.197 1.156-.207 1.532l-.81.757c-.404.376-.968.301-1.237-.182zm1.582 2.454c-.233-.312-.081-.874.327-1.247.283-.259.566-.52.849-.777.407-.373.924-.428 1.165-.13.24.298.117.836-.288 1.211l-.888.822c-.406.375-.933.432-1.165.121zm19.261 9.764a17.796 17.796 0 0 1-2.799-.159c-.547-.071-.945-.195-.895-.248.051-.052.009-.125-.094-.166-.102-.041-.238-.018-.307.053-.066.067-.562.04-1.1-.087a31.428 31.428 0 0 1-.842-.213c-.533-.142-.82-.417-.646-.596s-.027-.5-.439-.731c-.412-.232-.938-.232-1.185.016-.247.249-.866.29-1.369.062a38.361 38.361 0 0 1-.407-.188c-.498-.239-.636-.726-.321-1.062.315-.336.213-.879-.214-1.229l-.089-.073c-.425-.352-1.079-.342-1.477.041l-.007.007c-.398.385-1.093.447-1.541.124a25.953 25.953 0 0 1-.781-.583c-.437-.337-.466-.939-.076-1.332l.33-.331c.39-.392.545-.893.352-1.124-.193-.231-.675-.121-1.082.251-.163.148-.325.299-.488.446-.407.373-.786.634-.845.583l-.107-.094a20.338 20.338 0 0 1-1.495-1.5c-.37-.41-.337-1.076.051-1.469l.862-.874c.388-.394 1-.376 1.389.017 3.824 3.865 9.255 6.244 14.837 6.441.942.028 3.373 3.95.785 4.018z"/><path d="M35.667 18.028c.408-.373.64-.683.519-.692-.123-.011-.537.308-.924.701-.963.981-1.931 1.957-2.894 2.939-.388.394-.369.412.038.038 1.087-.997 2.174-1.992 3.261-2.986zm2.866 15.51c-.054-.021-.147.013-.208.075-.062.062-.018.084.098.039.113-.046.162-.095.11-.114zM29.537 3.145c.413-.179 1.067-.628 1.461-1.016l.291-.287c.394-.388.498-.687.233-.662-.264.023-.795.366-1.185.757l-.835.839c-.389.391-.377.548.035.369z"/></g></svg>