<svg xmlns="http://www.w3.org/2000/svg" viewBox="0 0 490.667 490.667" width="512" height="512"><path d="M245.333 0C172.928 0 96 22.421 96 64v192c0 42.027 75.115 64 149.333 64s149.333-21.973 149.333-64V64c.001-41.579-76.927-64-149.333-64zm128 256c0 20.181-52.565 42.667-128 42.667s-128-22.485-128-42.667v-29.909c27.883 19.584 78.933 29.909 128 29.909s100.117-10.325 128-29.909V256zm0-64c0 17.813-48.704 42.667-128 42.667s-128-24.853-128-42.667v-29.909c27.883 19.584 78.933 29.909 128 29.909s100.117-10.325 128-29.909V192zm0-64c0 17.813-48.704 42.667-128 42.667s-128-24.853-128-42.667V98.091c27.883 19.584 78.933 29.909 128 29.909s100.117-10.325 128-29.909V128zm-128-21.333c-79.296 0-128-24.853-128-42.667 0-17.813 48.704-42.667 128-42.667s128 24.853 128 42.667c0 17.813-48.704 42.667-128 42.667zm3.328 277.738l-3.157-.533C226.795 380.821 224 375.957 224 373.333c0-4.245 8.512-10.667 21.355-10.667 12.608 0 20.928 5.995 21.355 10.304.555 5.867 5.739 10.389 11.627 9.6 5.867-.555 10.155-5.76 9.6-11.627-1.621-16.896-19.925-29.632-42.603-29.632-23.936 0-42.688 14.059-42.688 32 0 16.704 13.248 27.328 39.403 31.595l1.728-10.517 1.429 11.051c17.728 2.923 21.44 7.36 21.44 10.56 0 4.245-8.512 10.667-21.355 10.667-12.608 0-20.928-6.016-21.355-10.325-.555-5.867-5.611-10.24-11.627-9.6-5.867.555-10.155 5.76-9.6 11.627C204.331 435.264 222.635 448 245.312 448 269.248 448 288 433.941 288 416c0-16.683-13.227-27.307-39.339-31.595zm146.006-11.072c0-17.643-14.357-32-32-32h-21.333c-17.643 0-32 14.357-32 32V416c0 17.643 14.357 32 32 32h21.333c4.928 0 9.536-1.216 13.696-3.2l.085.085c2.091 2.069 4.821 3.115 7.552 3.115s5.461-1.045 7.531-3.115c4.16-4.16 4.16-10.923 0-15.083l-.085-.085c2.005-4.16 3.221-8.789 3.221-13.717v-42.667zm-21.334 38.272l-3.136-3.136c-4.16-4.16-10.923-4.16-15.083 0s-4.16 10.923 0 15.083l3.115 3.115h-16.896c-5.888 0-10.667-4.779-10.667-10.667v-42.667c0-5.888 4.779-10.667 10.667-10.667h21.333c5.888 0 10.667 4.779 10.667 10.667v38.272zm96 15.062h-32V352c0-5.888-4.779-10.667-10.667-10.667s-10.667 4.779-10.667 10.667v85.333c0 5.888 4.779 10.667 10.667 10.667h42.667c5.888 0 10.667-4.779 10.667-10.667s-4.779-10.666-10.667-10.666zm-293.888-41.558a10.68 10.68 0 0 0-14.315 4.779l-11.797 23.616-11.797-23.595c-2.645-5.269-9.045-7.403-14.315-4.779-5.269 2.645-7.424 9.045-4.779 14.315l18.965 37.909-18.944 37.867c-2.624 5.269-.491 11.669 4.779 14.315a10.599 10.599 0 0 0 4.757 1.131 10.7 10.7 0 0 0 9.557-5.909l42.667-85.333c2.625-5.27.492-11.67-4.778-14.316zm-86.741-43.221c-4.331-1.472-9.152.043-11.904 3.712l-23.467 31.275L29.867 345.6a10.615 10.615 0 0 0-11.904-3.712A10.668 10.668 0 0 0 10.667 352v85.333c0 5.888 4.779 10.667 10.667 10.667S32 443.221 32 437.333V384l12.8 17.067c4.032 5.376 13.056 5.376 17.067 0L74.667 384v53.333c0 5.888 4.779 10.667 10.667 10.667S96 443.221 96 437.333V352c0-4.587-2.944-8.661-7.296-10.112z" fill="#d40080"/></svg>