<svg xmlns="http://www.w3.org/2000/svg" width="512" height="512"><g fill="#d40080"><path d="M416 176v-64a15.997 15.997 0 0 0-4.64-11.36l-96-96A16.001 16.001 0 0 0 304 0H48C21.49 0 0 21.491 0 48v416c0 26.51 21.49 48 48 48h112v-32H48c-8.837 0-16-7.163-16-16V48c0-8.837 7.163-16 16-16h240v64c0 17.673 14.327 32 32 32h64v48h32z"/><path d="M208 256h-64c-8.837 0-16 7.163-16 16v144h32v-48h48c17.673 0 32-14.327 32-32v-48c0-17.673-14.327-32-32-32zm0 80h-48v-48h48v48zm272-80h-64c-8.837 0-16 7.163-16 16v144h32v-48h48c17.673 0 32-14.327 32-32v-48c0-17.673-14.327-32-32-32zm0 80h-48v-48h48v48zm-128-16h-64v-64h-32v160h32v-64h64v64h32V256h-32z"/></g></svg>