<?xml version="1.0" encoding="UTF-8"?>
<svg xmlns="http://www.w3.org/2000/svg" xmlns:xlink="http://www.w3.org/1999/xlink" width="100pt" height="100pt" viewBox="0 0 100 100" version="1.1">
<g id="surface1">
<path style=" stroke:none;fill-rule:evenodd;fill:rgb(34.117647%,49.803922%,63.529412%);fill-opacity:1;" d="M 28.667969 5.5 C 39.320312 -0.472656 59.679688 -0.472656 70.332031 5.5 C 70.828125 5.949219 71.578125 6.144531 72.167969 6.5 C 73.335938 7.050781 74.300781 7.8125 75.5 8.332031 C 75.972656 8.914062 76.746094 9.195312 77.332031 9.667969 C 79.308594 10.96875 80.960938 12.59375 82.832031 14 C 84.023438 15.199219 85.039062 16.574219 86.332031 17.667969 C 87.046875 18.898438 88.070312 19.820312 88.832031 21 C 89.523438 21.921875 90.03125 23.023438 90.832031 23.832031 C 91.144531 24.800781 91.753906 25.46875 92.167969 26.332031 C 92.628906 27.148438 92.941406 28.113281 93.5 28.832031 C 95.609375 33.777344 97.335938 39.109375 97.832031 45.667969 C 97.9375 46.171875 97.621094 47.101562 98 47.332031 C 98 48.613281 98 49.890625 98 51.167969 C 97.621094 51.398438 97.9375 52.328125 97.832031 52.832031 C 97.335938 59.390625 95.609375 64.722656 93.5 69.667969 C 92.941406 70.386719 92.628906 71.355469 92.167969 72.167969 C 91.753906 73.03125 91.144531 73.699219 90.832031 74.667969 C 90.03125 75.476562 89.523438 76.578125 88.832031 77.5 C 88.070312 78.679688 87.046875 79.601562 86.332031 80.832031 C 85.039062 81.925781 84.023438 83.300781 82.832031 84.5 C 80.960938 85.90625 79.308594 87.53125 77.332031 88.832031 C 76.746094 89.304688 75.972656 89.585938 75.5 90.167969 C 74.300781 90.6875 73.335938 91.449219 72.167969 92 C 71.578125 92.355469 70.828125 92.550781 70.332031 93 C 59.679688 98.972656 39.320312 98.972656 28.667969 93 C 28.171875 92.550781 27.421875 92.355469 26.832031 92 C 25.664062 91.449219 24.699219 90.6875 23.5 90.167969 C 23.027344 89.585938 22.253906 89.304688 21.667969 88.832031 C 19.691406 87.53125 18.039062 85.90625 16.167969 84.5 C 14.976562 83.300781 13.960938 81.925781 12.667969 80.832031 C 11.953125 79.601562 10.929688 78.679688 10.167969 77.5 C 9.476562 76.578125 8.96875 75.476562 8.167969 74.667969 C 7.855469 73.699219 7.246094 73.03125 6.832031 72.167969 C 6.367188 71.355469 6.058594 70.386719 5.5 69.667969 C 3.390625 64.722656 1.664062 59.390625 1.167969 52.832031 C 1.0625 52.328125 1.378906 51.398438 1 51.167969 C 1 49.890625 1 48.609375 1 47.332031 C 1.378906 47.101562 1.0625 46.171875 1.167969 45.667969 C 1.664062 39.109375 3.390625 33.777344 5.5 28.832031 C 6.058594 28.113281 6.367188 27.148438 6.832031 26.332031 C 7.246094 25.46875 7.855469 24.800781 8.167969 23.832031 C 8.96875 23.023438 9.476562 21.921875 10.167969 21 C 10.929688 19.820312 11.953125 18.898438 12.667969 17.667969 C 13.960938 16.574219 14.976562 15.199219 16.167969 14 C 18.039062 12.59375 19.691406 10.96875 21.667969 9.667969 C 22.253906 9.195312 23.027344 8.914062 23.5 8.332031 C 24.699219 7.8125 25.664062 7.050781 26.832031 6.5 C 27.421875 6.144531 28.171875 5.949219 28.667969 5.5 Z M 46.667969 2.332031 C 37.269531 2.878906 30.316406 5.875 24.167969 9.667969 C 23.515625 10.070312 22.761719 10.375 22.332031 11 C 21.199219 11.476562 20.441406 12.332031 19.5 13 C 18.636719 13.75 17.675781 14.394531 17 15.332031 C 14.804688 17.085938 13.070312 19.292969 11.5 21.667969 C 10.648438 22.425781 10.128906 23.519531 9.5 24.5 C 9.035156 25.3125 8.4375 25.996094 8.167969 27 C 7.523438 27.636719 7.199219 28.589844 6.832031 29.5 C 4.605469 34.328125 2.859375 39.636719 2.5 46.332031 C 2.121094 46.566406 2.4375 47.492188 2.332031 48 C 2.332031 48.832031 2.332031 49.667969 2.332031 50.5 C 2.4375 51.007812 2.121094 51.9375 2.5 52.167969 C 2.859375 58.863281 4.605469 64.171875 6.832031 69 C 7.199219 69.914062 7.523438 70.863281 8.167969 71.5 C 8.4375 72.503906 9.035156 73.1875 9.5 74 C 10.128906 74.980469 10.648438 76.074219 11.5 76.832031 C 13.070312 79.207031 14.804688 81.414062 17 83.167969 C 17.675781 84.105469 18.636719 84.753906 19.5 85.5 C 20.441406 86.171875 21.199219 87.023438 22.332031 87.5 C 22.761719 88.125 23.515625 88.429688 24.167969 88.832031 C 30.316406 92.628906 37.269531 95.621094 46.667969 96.167969 C 48.167969 96.445312 50.832031 96.445312 52.332031 96.167969 C 61.730469 95.621094 68.683594 92.628906 74.832031 88.832031 C 75.484375 88.429688 76.234375 88.125 76.667969 87.5 C 77.800781 87.023438 78.558594 86.171875 79.5 85.5 C 80.363281 84.753906 81.324219 84.105469 82 83.167969 C 84.191406 81.414062 85.929688 79.207031 87.5 76.832031 C 88.351562 76.074219 88.867188 74.980469 89.5 74 C 89.964844 73.1875 90.558594 72.503906 90.832031 71.5 C 91.476562 70.863281 91.800781 69.914062 92.167969 69 C 94.394531 64.171875 96.140625 58.863281 96.5 52.167969 C 96.878906 51.9375 96.5625 51.007812 96.667969 50.5 C 96.667969 49.667969 96.667969 48.832031 96.667969 48 C 96.5625 47.492188 96.878906 46.566406 96.5 46.332031 C 96.140625 39.636719 94.394531 34.328125 92.167969 29.5 C 91.800781 28.589844 91.476562 27.636719 90.832031 27 C 90.558594 25.996094 89.964844 25.3125 89.5 24.5 C 88.867188 23.519531 88.351562 22.425781 87.5 21.667969 C 85.929688 19.292969 84.191406 17.085938 82 15.332031 C 81.324219 14.398438 80.363281 13.75 79.5 13 C 78.558594 12.332031 77.800781 11.476562 76.667969 11 C 76.234375 10.375 75.484375 10.074219 74.832031 9.667969 C 68.683594 5.875 61.730469 2.878906 52.332031 2.332031 C 50.832031 2.054688 48.167969 2.054688 46.667969 2.332031 Z M 46.667969 2.332031 "/>
<path style=" stroke:none;fill-rule:evenodd;fill:rgb(100%,63.529412%,18.823529%);fill-opacity:1;" d="M 39 39.667969 C 36.652344 36.132812 34.183594 33.03125 34.167969 27.332031 C 34.136719 16.246094 39.277344 5.050781 50 3.5 C 50.230469 3.878906 51.160156 3.5625 51.667969 3.667969 C 60.917969 4.359375 67.875 7.347656 74.167969 11 C 74.640625 11.582031 75.414062 11.863281 76 12.332031 C 76.472656 12.585938 76.710938 13.066406 77.332031 13.167969 C 79.5 15.058594 81.671875 16.941406 83.667969 19 C 84.378906 20.230469 85.402344 21.152344 86.167969 22.332031 C 86.855469 23.253906 87.363281 24.359375 88.167969 25.167969 C 88.476562 26.132812 89.085938 26.800781 89.5 27.667969 C 89.964844 28.480469 90.277344 29.445312 90.832031 30.167969 C 96.414062 40.238281 96.414062 58.261719 90.832031 68.332031 C 90.277344 69.054688 89.964844 70.019531 89.5 70.832031 C 89.085938 71.699219 88.476562 72.367188 88.167969 73.332031 C 87.363281 74.140625 86.855469 75.246094 86.167969 76.167969 C 85.402344 77.347656 84.378906 78.269531 83.667969 79.5 C 81.671875 81.558594 79.5 83.441406 77.332031 85.332031 C 76.710938 85.433594 76.472656 85.917969 76 86.167969 C 75.414062 86.636719 74.640625 86.917969 74.167969 87.5 C 68.34375 90.898438 61.902344 93.679688 53.667969 94.667969 C 61.453125 91.230469 65.613281 84.171875 67.167969 74.5 C 67.550781 74.160156 67.226562 73.117188 67.332031 72.5 C 67.542969 65.179688 65.75 59.863281 62.332031 56.167969 C 61.679688 55.375 60.957031 54.652344 60.167969 54 C 54.492188 49.171875 46.980469 46.1875 41 41.667969 C 40.402344 40.929688 39.738281 40.261719 39 39.667969 Z M 67.167969 22.167969 C 63.902344 19.539062 60.953125 16.601562 55.167969 16.5 C 53.507812 14.476562 46.804688 11.835938 46.5 16 C 46.316406 18.484375 49.09375 20.082031 50 22 C 51.546875 25.277344 51.828125 28.847656 53.832031 30.332031 C 51.628906 33.648438 52.386719 44.757812 56.667969 44.332031 C 58.664062 44.136719 57.980469 41.476562 58.832031 39.832031 C 59.742188 42.480469 61.421875 44.355469 63.5 45.832031 C 64.089844 46.523438 65.054688 47.71875 65.832031 47.667969 C 65.121094 47.210938 64.710938 46.457031 64 46 C 61.796875 43.09375 60.132812 39.644531 58.5 36.167969 C 56.964844 37.574219 56.667969 40.222656 56.167969 42.667969 C 54.71875 41.726562 54.28125 39.777344 54 37.667969 C 54 36.777344 54 35.890625 54 35 C 53.773438 33.105469 55.5625 31.726562 55.167969 29.832031 C 55.023438 29.15625 54.011719 28.390625 53.667969 27.832031 C 52.570312 26.0625 52.21875 23.617188 51.167969 21.5 C 50.074219 19.300781 48.03125 17.890625 48 15.667969 C 50.472656 14.886719 52.78125 16.9375 54.332031 18.167969 C 59.128906 18.078125 61.816406 20.027344 64.332031 22 C 68.609375 25.351562 70.40625 28.953125 72.832031 34.167969 C 73.816406 36.277344 74.882812 39.859375 76.5 41 C 78.058594 42.097656 80.070312 42.207031 81.667969 43.167969 C 83.230469 44.105469 84.710938 44.777344 86 46.332031 C 83.128906 46.183594 80.878906 46.65625 79.167969 47.667969 C 79.882812 49.917969 81.796875 51.234375 83.832031 52.332031 C 85.859375 53.425781 87.902344 54.605469 89.5 55.667969 C 87.867188 52.300781 84.085938 51.078125 81.832031 48.332031 C 83.910156 47.964844 85.988281 47.601562 88 47.167969 C 85.8125 43.410156 81.976562 41.300781 77.667969 39.667969 C 74.585938 34.527344 73.03125 27.855469 68.832031 23.832031 C 68.347656 23.207031 67.792969 22.652344 67.167969 22.167969 Z M 55.167969 21 C 55.527344 22.03125 56.445312 22.5 56.667969 23.667969 C 58.339844 23.089844 57.195312 20.382812 55.167969 21 Z M 55.167969 21 "/>
<path style=" stroke:none;fill-rule:evenodd;fill:rgb(100%,80.784314%,57.254902%);fill-opacity:1;" d="M 50 3.5 C 50.507812 3.605469 51.4375 3.285156 51.667969 3.667969 C 51.160156 3.5625 50.230469 3.878906 50 3.5 Z M 50 3.5 "/>
<path style=" stroke:none;fill-rule:evenodd;fill:rgb(34.117647%,49.803922%,63.529412%);fill-opacity:1;" d="M 30 8.167969 C 34.023438 6.46875 38.179688 4.902344 43.167969 4.167969 C 43.304688 4.652344 42.109375 4.964844 41.332031 5.5 C 36.253906 9 32.765625 15.46875 32 23.5 C 31.613281 24.113281 31.941406 25.441406 31.832031 26.332031 C 31.933594 44.289062 47.554688 46.722656 57.667969 54.667969 C 58.261719 55.402344 58.929688 56.070312 59.667969 56.667969 C 61.941406 59.816406 64.621094 63.550781 64.832031 69.167969 C 65.085938 75.914062 63.105469 83.796875 59.667969 87.5 C 59.042969 87.984375 58.484375 88.542969 58 89.167969 C 55.414062 91.902344 52.390625 94.136719 48 94.667969 C 41.761719 95.421875 34.78125 91.984375 30 90.332031 C 29.503906 89.886719 28.757812 89.6875 28.167969 89.332031 C 26.996094 88.78125 26.035156 88.023438 24.832031 87.5 C 24.359375 86.917969 23.585938 86.636719 23 86.167969 C 21.023438 84.863281 19.371094 83.238281 17.5 81.832031 C 16.832031 81 16.207031 80.128906 15.332031 79.5 C 14.621094 78.269531 13.597656 77.347656 12.832031 76.167969 C 12.144531 75.246094 11.636719 74.140625 10.832031 73.332031 C 10.523438 72.367188 9.914062 71.699219 9.5 70.832031 C 9.035156 70.019531 8.722656 69.054688 8.167969 68.332031 C 6.054688 63.386719 4.332031 58.058594 3.832031 51.5 C 3.730469 50.992188 4.046875 50.066406 3.667969 49.832031 C 3.667969 49.445312 3.667969 49.054688 3.667969 48.667969 C 4.046875 48.4375 3.730469 47.507812 3.832031 47 C 4.332031 40.441406 6.054688 35.113281 8.167969 30.167969 C 8.722656 29.445312 9.035156 28.480469 9.5 27.667969 C 9.914062 26.800781 10.523438 26.132812 10.832031 25.167969 C 11.636719 24.359375 12.144531 23.253906 12.832031 22.332031 C 13.597656 21.152344 14.621094 20.230469 15.332031 19 C 16.207031 18.371094 16.832031 17.5 17.5 16.667969 C 19.371094 15.261719 21.023438 13.636719 23 12.332031 C 23.585938 11.863281 24.359375 11.582031 24.832031 11 C 26.035156 10.476562 26.996094 9.71875 28.167969 9.167969 C 28.757812 8.8125 29.503906 8.613281 30 8.167969 Z M 45.667969 63.167969 C 45.894531 65.058594 44.105469 66.441406 44.5 68.332031 C 44.644531 69.019531 45.652344 69.769531 46 70.332031 C 47.097656 72.105469 47.449219 74.546875 48.5 76.667969 C 49.59375 78.867188 51.652344 80.269531 51.667969 82.5 C 49.195312 83.28125 46.886719 81.230469 45.332031 80 C 40.539062 80.097656 37.828125 78.121094 35.332031 76.167969 C 31.0625 72.820312 29.195312 69.1875 26.832031 64 C 25.867188 61.878906 24.765625 58.292969 23.167969 57.167969 C 21.566406 56.039062 19.40625 56.136719 17.832031 55.167969 C 16.21875 54.171875 15.058594 53.210938 13.667969 51.832031 C 16.546875 51.992188 18.753906 51.476562 20.5 50.5 C 19.574219 46.996094 15.746094 46.171875 13 44.5 C 11.914062 43.835938 11.292969 42.703125 10.167969 42.5 C 11.820312 45.847656 15.582031 47.082031 17.832031 49.832031 C 15.789062 50.234375 13.65625 50.546875 11.667969 51 C 13.867188 54.746094 17.699219 56.855469 22 58.5 C 25.089844 63.632812 26.632812 70.3125 30.832031 74.332031 C 31.320312 74.957031 31.875 75.515625 32.5 76 C 35.761719 78.625 38.714844 81.5625 44.5 81.667969 C 46.175781 83.6875 52.847656 86.316406 53.167969 82.167969 C 53.355469 79.707031 50.566406 78.070312 49.667969 76.167969 C 48.121094 72.890625 47.824219 69.320312 45.832031 67.832031 C 48.027344 64.554688 47.265625 53.371094 43 53.832031 C 41.011719 54.046875 41.703125 56.703125 40.832031 58.332031 C 39.941406 55.78125 38.375 53.902344 36.332031 52.5 C 35.679688 51.761719 34.6875 50.480469 33.832031 50.5 C 34.597656 51.011719 35.066406 51.820312 35.832031 52.332031 C 37.707031 55.292969 39.738281 58.097656 40.832031 61.832031 C 42.980469 60.980469 42.828125 57.828125 43.5 55.5 C 44.964844 56.367188 45.3125 58.355469 45.667969 60.332031 C 45.667969 61.277344 45.667969 62.222656 45.667969 63.167969 Z M 44.5 77.167969 C 44.164062 76.113281 43.1875 75.703125 43 74.5 C 41.367188 75.117188 42.449219 77.761719 44.5 77.167969 Z M 44.5 77.167969 "/>
<path style=" stroke:none;fill-rule:evenodd;fill:rgb(67.843137%,75.294118%,81.960784%);fill-opacity:1;" d="M 32 23.5 C 31.890625 24.390625 32.21875 25.71875 31.832031 26.332031 C 31.941406 25.441406 31.613281 24.113281 32 23.5 Z M 32 23.5 "/>
<path style=" stroke:none;fill-rule:evenodd;fill:rgb(100%,80.784314%,57.254902%);fill-opacity:1;" d="M 54 35 C 54 35.890625 54 36.777344 54 37.667969 C 53.722656 37.160156 53.722656 35.503906 54 35 Z M 54 35 "/>
<path style=" stroke:none;fill-rule:evenodd;fill:rgb(67.843137%,75.294118%,81.960784%);fill-opacity:1;" d="M 1 47.332031 C 1.105469 46.828125 0.785156 45.898438 1.167969 45.667969 C 1.0625 46.171875 1.378906 47.101562 1 47.332031 Z M 1 47.332031 "/>
<path style=" stroke:none;fill-rule:evenodd;fill:rgb(67.843137%,75.294118%,81.960784%);fill-opacity:1;" d="M 97.832031 45.667969 C 98.214844 45.898438 97.894531 46.828125 98 47.332031 C 97.621094 47.101562 97.9375 46.171875 97.832031 45.667969 Z M 97.832031 45.667969 "/>
<path style=" stroke:none;fill-rule:evenodd;fill:rgb(67.843137%,75.294118%,81.960784%);fill-opacity:1;" d="M 2.5 46.332031 C 2.5 46.890625 2.5 47.445312 2.5 48 C 2.445312 48 2.390625 48 2.332031 48 C 2.4375 47.492188 2.121094 46.5625 2.5 46.332031 Z M 2.5 46.332031 "/>
<path style=" stroke:none;fill-rule:evenodd;fill:rgb(67.843137%,75.294118%,81.960784%);fill-opacity:1;" d="M 96.5 46.332031 C 96.878906 46.566406 96.5625 47.492188 96.667969 48 C 96.609375 48 96.554688 48 96.5 48 C 96.5 47.445312 96.5 46.890625 96.5 46.332031 Z M 96.5 46.332031 "/>
<path style=" stroke:none;fill-rule:evenodd;fill:rgb(67.843137%,75.294118%,81.960784%);fill-opacity:1;" d="M 3.667969 48.667969 C 3.769531 48.160156 3.453125 47.230469 3.832031 47 C 3.730469 47.507812 4.046875 48.4375 3.667969 48.667969 Z M 3.667969 48.667969 "/>
<path style=" stroke:none;fill-rule:evenodd;fill:rgb(99.607843%,99.607843%,99.607843%);fill-opacity:1;" d="M 2.332031 48 C 2.390625 48 2.445312 48 2.5 48 C 2.5 48.832031 2.5 49.667969 2.5 50.5 C 2.445312 50.5 2.390625 50.5 2.332031 50.5 C 2.332031 49.667969 2.332031 48.832031 2.332031 48 Z M 2.332031 48 "/>
<path style=" stroke:none;fill-rule:evenodd;fill:rgb(99.607843%,99.607843%,99.607843%);fill-opacity:1;" d="M 96.5 48 C 96.554688 48 96.609375 48 96.667969 48 C 96.667969 48.832031 96.667969 49.667969 96.667969 50.5 C 96.609375 50.5 96.554688 50.5 96.5 50.5 C 96.5 49.667969 96.5 48.832031 96.5 48 Z M 96.5 48 "/>
<path style=" stroke:none;fill-rule:evenodd;fill:rgb(67.843137%,75.294118%,81.960784%);fill-opacity:1;" d="M 3.667969 49.832031 C 4.046875 50.066406 3.730469 50.992188 3.832031 51.5 C 3.453125 51.269531 3.769531 50.339844 3.667969 49.832031 Z M 3.667969 49.832031 "/>
<path style=" stroke:none;fill-rule:evenodd;fill:rgb(67.843137%,75.294118%,81.960784%);fill-opacity:1;" d="M 2.332031 50.5 C 2.390625 50.5 2.445312 50.5 2.5 50.5 C 2.5 51.054688 2.5 51.609375 2.5 52.167969 C 2.121094 51.9375 2.4375 51.007812 2.332031 50.5 Z M 2.332031 50.5 "/>
<path style=" stroke:none;fill-rule:evenodd;fill:rgb(67.843137%,75.294118%,81.960784%);fill-opacity:1;" d="M 96.5 50.5 C 96.554688 50.5 96.609375 50.5 96.667969 50.5 C 96.5625 51.007812 96.878906 51.9375 96.5 52.167969 C 96.5 51.609375 96.5 51.054688 96.5 50.5 Z M 96.5 50.5 "/>
<path style=" stroke:none;fill-rule:evenodd;fill:rgb(67.843137%,75.294118%,81.960784%);fill-opacity:1;" d="M 1 51.167969 C 1.378906 51.398438 1.0625 52.328125 1.167969 52.832031 C 0.785156 52.601562 1.105469 51.671875 1 51.167969 Z M 1 51.167969 "/>
<path style=" stroke:none;fill-rule:evenodd;fill:rgb(67.843137%,75.294118%,81.960784%);fill-opacity:1;" d="M 98 51.167969 C 97.894531 51.671875 98.214844 52.601562 97.832031 52.832031 C 97.9375 52.328125 97.621094 51.398438 98 51.167969 Z M 98 51.167969 "/>
<path style=" stroke:none;fill-rule:evenodd;fill:rgb(67.843137%,75.294118%,81.960784%);fill-opacity:1;" d="M 45.667969 60.332031 C 45.945312 60.894531 45.945312 62.605469 45.667969 63.167969 C 45.667969 62.222656 45.667969 61.277344 45.667969 60.332031 Z M 45.667969 60.332031 "/>
<path style=" stroke:none;fill-rule:evenodd;fill:rgb(100%,80.784314%,57.254902%);fill-opacity:1;" d="M 67.167969 74.5 C 67.273438 73.882812 66.949219 72.839844 67.332031 72.5 C 67.226562 73.117188 67.550781 74.160156 67.167969 74.5 Z M 67.167969 74.5 "/>
<path style=" stroke:none;fill-rule:evenodd;fill:rgb(67.843137%,75.294118%,81.960784%);fill-opacity:1;" d="M 26.832031 6.5 C 27.25 5.972656 27.972656 5.75 28.667969 5.5 C 28.171875 5.949219 27.421875 6.144531 26.832031 6.5 Z M 26.832031 6.5 "/>
<path style=" stroke:none;fill-rule:evenodd;fill:rgb(67.843137%,75.294118%,81.960784%);fill-opacity:1;" d="M 21.667969 9.667969 C 22.097656 9.042969 22.851562 8.738281 23.5 8.332031 C 23.027344 8.914062 22.253906 9.195312 21.667969 9.667969 Z M 21.667969 9.667969 "/>
<path style=" stroke:none;fill-rule:evenodd;fill:rgb(67.843137%,75.294118%,81.960784%);fill-opacity:1;" d="M 12.667969 17.667969 C 13.8125 16.421875 14.839844 15.0625 16.167969 14 C 14.976562 15.199219 13.960938 16.574219 12.667969 17.667969 Z M 12.667969 17.667969 "/>
<path style=" stroke:none;fill-rule:evenodd;fill:rgb(67.843137%,75.294118%,81.960784%);fill-opacity:1;" d="M 8.167969 23.832031 C 8.796875 22.851562 9.316406 21.757812 10.167969 21 C 9.476562 21.921875 8.96875 23.023438 8.167969 23.832031 Z M 8.167969 23.832031 "/>
<path style=" stroke:none;fill-rule:evenodd;fill:rgb(67.843137%,75.294118%,81.960784%);fill-opacity:1;" d="M 5.5 28.832031 C 5.867188 27.921875 6.191406 26.96875 6.832031 26.332031 C 6.367188 27.148438 6.058594 28.113281 5.5 28.832031 Z M 5.5 28.832031 "/>
<path style=" stroke:none;fill-rule:evenodd;fill:rgb(67.843137%,75.294118%,81.960784%);fill-opacity:1;" d="M 5.5 69.667969 C 6.058594 70.386719 6.367188 71.351562 6.832031 72.167969 C 6.191406 71.53125 5.867188 70.578125 5.5 69.667969 Z M 5.5 69.667969 "/>
<path style=" stroke:none;fill-rule:evenodd;fill:rgb(67.843137%,75.294118%,81.960784%);fill-opacity:1;" d="M 10.167969 77.5 C 9.316406 76.742188 8.796875 75.648438 8.167969 74.667969 C 8.96875 75.476562 9.476562 76.578125 10.167969 77.5 Z M 10.167969 77.5 "/>
<path style=" stroke:none;fill-rule:evenodd;fill:rgb(67.843137%,75.294118%,81.960784%);fill-opacity:1;" d="M 16.167969 84.5 C 14.839844 83.4375 13.8125 82.078125 12.667969 80.832031 C 13.960938 81.925781 14.976562 83.300781 16.167969 84.5 Z M 16.167969 84.5 "/>
<path style=" stroke:none;fill-rule:evenodd;fill:rgb(67.843137%,75.294118%,81.960784%);fill-opacity:1;" d="M 23.5 90.167969 C 22.851562 89.761719 22.097656 89.457031 21.667969 88.832031 C 22.253906 89.304688 23.027344 89.585938 23.5 90.167969 Z M 23.5 90.167969 "/>
<path style=" stroke:none;fill-rule:evenodd;fill:rgb(67.843137%,75.294118%,81.960784%);fill-opacity:1;" d="M 28.667969 93 C 27.972656 92.75 27.25 92.527344 26.832031 92 C 27.421875 92.355469 28.171875 92.550781 28.667969 93 Z M 28.667969 93 "/>
<path style=" stroke:none;fill-rule:evenodd;fill:rgb(67.843137%,75.294118%,81.960784%);fill-opacity:1;" d="M 70.332031 93 C 70.828125 92.550781 71.578125 92.355469 72.167969 92 C 71.75 92.527344 71.027344 92.75 70.332031 93 Z M 70.332031 93 "/>
<path style=" stroke:none;fill-rule:evenodd;fill:rgb(67.843137%,75.294118%,81.960784%);fill-opacity:1;" d="M 75.5 90.167969 C 75.972656 89.585938 76.746094 89.304688 77.332031 88.832031 C 76.902344 89.457031 76.148438 89.761719 75.5 90.167969 Z M 75.5 90.167969 "/>
<path style=" stroke:none;fill-rule:evenodd;fill:rgb(67.843137%,75.294118%,81.960784%);fill-opacity:1;" d="M 82.832031 84.5 C 84.023438 83.300781 85.039062 81.925781 86.332031 80.832031 C 85.1875 82.078125 84.160156 83.4375 82.832031 84.5 Z M 82.832031 84.5 "/>
<path style=" stroke:none;fill-rule:evenodd;fill:rgb(67.843137%,75.294118%,81.960784%);fill-opacity:1;" d="M 90.832031 74.667969 C 90.203125 75.648438 89.683594 76.742188 88.832031 77.5 C 89.523438 76.578125 90.03125 75.476562 90.832031 74.667969 Z M 90.832031 74.667969 "/>
<path style=" stroke:none;fill-rule:evenodd;fill:rgb(67.843137%,75.294118%,81.960784%);fill-opacity:1;" d="M 93.5 69.667969 C 93.132812 70.578125 92.808594 71.53125 92.167969 72.167969 C 92.632812 71.351562 92.941406 70.386719 93.5 69.667969 Z M 93.5 69.667969 "/>
<path style=" stroke:none;fill-rule:evenodd;fill:rgb(67.843137%,75.294118%,81.960784%);fill-opacity:1;" d="M 92.167969 26.332031 C 92.808594 26.96875 93.132812 27.921875 93.5 28.832031 C 92.941406 28.113281 92.632812 27.148438 92.167969 26.332031 Z M 92.167969 26.332031 "/>
<path style=" stroke:none;fill-rule:evenodd;fill:rgb(67.843137%,75.294118%,81.960784%);fill-opacity:1;" d="M 88.832031 21 C 89.683594 21.757812 90.203125 22.851562 90.832031 23.832031 C 90.03125 23.023438 89.523438 21.921875 88.832031 21 Z M 88.832031 21 "/>
<path style=" stroke:none;fill-rule:evenodd;fill:rgb(67.843137%,75.294118%,81.960784%);fill-opacity:1;" d="M 82.832031 14 C 84.160156 15.0625 85.1875 16.421875 86.332031 17.667969 C 85.039062 16.574219 84.023438 15.199219 82.832031 14 Z M 82.832031 14 "/>
<path style=" stroke:none;fill-rule:evenodd;fill:rgb(67.843137%,75.294118%,81.960784%);fill-opacity:1;" d="M 75.5 8.332031 C 76.148438 8.738281 76.902344 9.042969 77.332031 9.667969 C 76.746094 9.195312 75.972656 8.914062 75.5 8.332031 Z M 75.5 8.332031 "/>
<path style=" stroke:none;fill-rule:evenodd;fill:rgb(67.843137%,75.294118%,81.960784%);fill-opacity:1;" d="M 70.332031 5.5 C 71.027344 5.75 71.75 5.972656 72.167969 6.5 C 71.578125 6.144531 70.828125 5.949219 70.332031 5.5 Z M 70.332031 5.5 "/>
<path style=" stroke:none;fill-rule:evenodd;fill:rgb(67.843137%,75.294118%,81.960784%);fill-opacity:1;" d="M 22.332031 11 C 22.765625 10.375 23.515625 10.070312 24.167969 9.667969 C 23.695312 10.25 22.917969 10.53125 22.332031 11 Z M 22.332031 11 "/>
<path style=" stroke:none;fill-rule:evenodd;fill:rgb(67.843137%,75.294118%,81.960784%);fill-opacity:1;" d="M 17 15.332031 C 17.675781 14.394531 18.636719 13.75 19.5 13 C 18.792969 13.90625 17.808594 14.53125 17 15.332031 Z M 17 15.332031 "/>
<path style=" stroke:none;fill-rule:evenodd;fill:rgb(67.843137%,75.294118%,81.960784%);fill-opacity:1;" d="M 9.5 24.5 C 10.128906 23.519531 10.648438 22.425781 11.5 21.667969 C 10.808594 22.585938 10.300781 23.691406 9.5 24.5 Z M 9.5 24.5 "/>
<path style=" stroke:none;fill-rule:evenodd;fill:rgb(67.843137%,75.294118%,81.960784%);fill-opacity:1;" d="M 6.832031 29.5 C 7.199219 28.585938 7.523438 27.636719 8.167969 27 C 7.703125 27.8125 7.390625 28.78125 6.832031 29.5 Z M 6.832031 29.5 "/>
<path style=" stroke:none;fill-rule:evenodd;fill:rgb(67.843137%,75.294118%,81.960784%);fill-opacity:1;" d="M 6.832031 69 C 7.390625 69.71875 7.703125 70.6875 8.167969 71.5 C 7.523438 70.863281 7.199219 69.914062 6.832031 69 Z M 6.832031 69 "/>
<path style=" stroke:none;fill-rule:evenodd;fill:rgb(67.843137%,75.294118%,81.960784%);fill-opacity:1;" d="M 9.5 74 C 10.300781 74.808594 10.808594 75.914062 11.5 76.832031 C 10.648438 76.074219 10.128906 74.980469 9.5 74 Z M 9.5 74 "/>
<path style=" stroke:none;fill-rule:evenodd;fill:rgb(67.843137%,75.294118%,81.960784%);fill-opacity:1;" d="M 17 83.167969 C 17.808594 83.96875 18.792969 84.59375 19.5 85.5 C 18.636719 84.75 17.675781 84.105469 17 83.167969 Z M 17 83.167969 "/>
<path style=" stroke:none;fill-rule:evenodd;fill:rgb(67.843137%,75.294118%,81.960784%);fill-opacity:1;" d="M 22.332031 87.5 C 22.917969 87.96875 23.695312 88.25 24.167969 88.832031 C 23.515625 88.429688 22.761719 88.125 22.332031 87.5 Z M 22.332031 87.5 "/>
<path style=" stroke:none;fill-rule:evenodd;fill:rgb(67.843137%,75.294118%,81.960784%);fill-opacity:1;" d="M 74.832031 88.832031 C 75.304688 88.25 76.082031 87.96875 76.667969 87.5 C 76.238281 88.125 75.484375 88.429688 74.832031 88.832031 Z M 74.832031 88.832031 "/>
<path style=" stroke:none;fill-rule:evenodd;fill:rgb(67.843137%,75.294118%,81.960784%);fill-opacity:1;" d="M 79.5 85.5 C 80.207031 84.59375 81.191406 83.96875 82 83.167969 C 81.324219 84.105469 80.363281 84.75 79.5 85.5 Z M 79.5 85.5 "/>
<path style=" stroke:none;fill-rule:evenodd;fill:rgb(67.843137%,75.294118%,81.960784%);fill-opacity:1;" d="M 87.5 76.832031 C 88.191406 75.914062 88.699219 74.808594 89.5 74 C 88.871094 74.980469 88.351562 76.074219 87.5 76.832031 Z M 87.5 76.832031 "/>
<path style=" stroke:none;fill-rule:evenodd;fill:rgb(67.843137%,75.294118%,81.960784%);fill-opacity:1;" d="M 90.832031 71.5 C 91.296875 70.6875 91.609375 69.71875 92.167969 69 C 91.800781 69.914062 91.476562 70.863281 90.832031 71.5 Z M 90.832031 71.5 "/>
<path style=" stroke:none;fill-rule:evenodd;fill:rgb(67.843137%,75.294118%,81.960784%);fill-opacity:1;" d="M 92.167969 29.5 C 91.609375 28.78125 91.296875 27.8125 90.832031 27 C 91.476562 27.636719 91.800781 28.585938 92.167969 29.5 Z M 92.167969 29.5 "/>
<path style=" stroke:none;fill-rule:evenodd;fill:rgb(67.843137%,75.294118%,81.960784%);fill-opacity:1;" d="M 89.5 24.5 C 88.699219 23.691406 88.191406 22.585938 87.5 21.667969 C 88.351562 22.425781 88.871094 23.519531 89.5 24.5 Z M 89.5 24.5 "/>
<path style=" stroke:none;fill-rule:evenodd;fill:rgb(67.843137%,75.294118%,81.960784%);fill-opacity:1;" d="M 79.5 13 C 80.363281 13.75 81.324219 14.394531 82 15.332031 C 81.191406 14.53125 80.207031 13.90625 79.5 13 Z M 79.5 13 "/>
<path style=" stroke:none;fill-rule:evenodd;fill:rgb(67.843137%,75.294118%,81.960784%);fill-opacity:1;" d="M 76.667969 11 C 76.082031 10.53125 75.304688 10.25 74.832031 9.667969 C 75.484375 10.070312 76.238281 10.375 76.667969 11 Z M 76.667969 11 "/>
<path style=" stroke:none;fill-rule:evenodd;fill:rgb(100%,80.784314%,57.254902%);fill-opacity:1;" d="M 39 39.667969 C 39.738281 40.261719 40.402344 40.929688 41 41.667969 C 40.261719 41.070312 39.597656 40.402344 39 39.667969 Z M 39 39.667969 "/>
<path style=" stroke:none;fill-rule:evenodd;fill:rgb(100%,80.784314%,57.254902%);fill-opacity:1;" d="M 60.167969 54 C 60.957031 54.652344 61.679688 55.375 62.332031 56.167969 C 61.542969 55.515625 60.820312 54.792969 60.167969 54 Z M 60.167969 54 "/>
<path style=" stroke:none;fill-rule:evenodd;fill:rgb(100%,80.784314%,57.254902%);fill-opacity:1;" d="M 74.167969 87.5 C 74.640625 86.917969 75.414062 86.636719 76 86.167969 C 75.570312 86.792969 74.816406 87.09375 74.167969 87.5 Z M 74.167969 87.5 "/>
<path style=" stroke:none;fill-rule:evenodd;fill:rgb(100%,80.784314%,57.254902%);fill-opacity:1;" d="M 77.332031 85.332031 C 79.5 83.441406 81.671875 81.558594 83.667969 79.5 C 81.8125 81.703125 79.652344 83.597656 77.332031 85.332031 Z M 77.332031 85.332031 "/>
<path style=" stroke:none;fill-rule:evenodd;fill:rgb(100%,80.784314%,57.254902%);fill-opacity:1;" d="M 88.167969 73.332031 C 87.535156 74.3125 87.019531 75.40625 86.167969 76.167969 C 86.855469 75.246094 87.363281 74.140625 88.167969 73.332031 Z M 88.167969 73.332031 "/>
<path style=" stroke:none;fill-rule:evenodd;fill:rgb(100%,80.784314%,57.254902%);fill-opacity:1;" d="M 90.832031 68.332031 C 90.46875 69.246094 90.144531 70.199219 89.5 70.832031 C 89.964844 70.019531 90.277344 69.054688 90.832031 68.332031 Z M 90.832031 68.332031 "/>
<path style=" stroke:none;fill-rule:evenodd;fill:rgb(100%,80.784314%,57.254902%);fill-opacity:1;" d="M 89.5 27.667969 C 90.144531 28.300781 90.46875 29.253906 90.832031 30.167969 C 90.277344 29.445312 89.964844 28.480469 89.5 27.667969 Z M 89.5 27.667969 "/>
<path style=" stroke:none;fill-rule:evenodd;fill:rgb(100%,80.784314%,57.254902%);fill-opacity:1;" d="M 86.167969 22.332031 C 87.019531 23.09375 87.535156 24.1875 88.167969 25.167969 C 87.363281 24.359375 86.855469 23.253906 86.167969 22.332031 Z M 86.167969 22.332031 "/>
<path style=" stroke:none;fill-rule:evenodd;fill:rgb(100%,80.784314%,57.254902%);fill-opacity:1;" d="M 77.332031 13.167969 C 79.652344 14.902344 81.8125 16.796875 83.667969 19 C 81.671875 16.941406 79.5 15.058594 77.332031 13.167969 Z M 77.332031 13.167969 "/>
<path style=" stroke:none;fill-rule:evenodd;fill:rgb(100%,80.784314%,57.254902%);fill-opacity:1;" d="M 74.167969 11 C 74.816406 11.40625 75.570312 11.707031 76 12.332031 C 75.414062 11.863281 74.640625 11.582031 74.167969 11 Z M 74.167969 11 "/>
<path style=" stroke:none;fill-rule:evenodd;fill:rgb(67.843137%,75.294118%,81.960784%);fill-opacity:1;" d="M 28.167969 9.167969 C 28.585938 8.640625 29.304688 8.417969 30 8.167969 C 29.503906 8.613281 28.757812 8.8125 28.167969 9.167969 Z M 28.167969 9.167969 "/>
<path style=" stroke:none;fill-rule:evenodd;fill:rgb(67.843137%,75.294118%,81.960784%);fill-opacity:1;" d="M 23 12.332031 C 23.429688 11.707031 24.183594 11.40625 24.832031 11 C 24.359375 11.582031 23.585938 11.863281 23 12.332031 Z M 23 12.332031 "/>
<path style=" stroke:none;fill-rule:evenodd;fill:rgb(67.843137%,75.294118%,81.960784%);fill-opacity:1;" d="M 15.332031 19 C 16.074219 18.242188 16.671875 17.339844 17.5 16.667969 C 16.832031 17.5 16.207031 18.371094 15.332031 19 Z M 15.332031 19 "/>
<path style=" stroke:none;fill-rule:evenodd;fill:rgb(67.843137%,75.294118%,81.960784%);fill-opacity:1;" d="M 10.832031 25.167969 C 11.464844 24.1875 11.980469 23.09375 12.832031 22.332031 C 12.144531 23.253906 11.636719 24.359375 10.832031 25.167969 Z M 10.832031 25.167969 "/>
<path style=" stroke:none;fill-rule:evenodd;fill:rgb(67.843137%,75.294118%,81.960784%);fill-opacity:1;" d="M 8.167969 30.167969 C 8.53125 29.253906 8.855469 28.300781 9.5 27.667969 C 9.035156 28.480469 8.722656 29.445312 8.167969 30.167969 Z M 8.167969 30.167969 "/>
<path style=" stroke:none;fill-rule:evenodd;fill:rgb(67.843137%,75.294118%,81.960784%);fill-opacity:1;" d="M 8.167969 68.332031 C 8.722656 69.054688 9.035156 70.019531 9.5 70.832031 C 8.855469 70.199219 8.53125 69.246094 8.167969 68.332031 Z M 8.167969 68.332031 "/>
<path style=" stroke:none;fill-rule:evenodd;fill:rgb(67.843137%,75.294118%,81.960784%);fill-opacity:1;" d="M 12.832031 76.167969 C 11.980469 75.40625 11.464844 74.3125 10.832031 73.332031 C 11.636719 74.140625 12.144531 75.246094 12.832031 76.167969 Z M 12.832031 76.167969 "/>
<path style=" stroke:none;fill-rule:evenodd;fill:rgb(67.843137%,75.294118%,81.960784%);fill-opacity:1;" d="M 17.5 81.832031 C 16.671875 81.160156 16.074219 80.257812 15.332031 79.5 C 16.207031 80.128906 16.832031 81 17.5 81.832031 Z M 17.5 81.832031 "/>
<path style=" stroke:none;fill-rule:evenodd;fill:rgb(67.843137%,75.294118%,81.960784%);fill-opacity:1;" d="M 24.832031 87.5 C 24.183594 87.09375 23.429688 86.792969 23 86.167969 C 23.585938 86.636719 24.359375 86.917969 24.832031 87.5 Z M 24.832031 87.5 "/>
<path style=" stroke:none;fill-rule:evenodd;fill:rgb(67.843137%,75.294118%,81.960784%);fill-opacity:1;" d="M 30 90.332031 C 29.304688 90.082031 28.585938 89.859375 28.167969 89.332031 C 28.757812 89.6875 29.503906 89.886719 30 90.332031 Z M 30 90.332031 "/>
<path style=" stroke:none;fill-rule:evenodd;fill:rgb(67.843137%,75.294118%,81.960784%);fill-opacity:1;" d="M 58 89.167969 C 58.484375 88.542969 59.042969 87.984375 59.667969 87.5 C 59.179688 88.125 58.625 88.679688 58 89.167969 Z M 58 89.167969 "/>
<path style=" stroke:none;fill-rule:evenodd;fill:rgb(67.843137%,75.294118%,81.960784%);fill-opacity:1;" d="M 57.667969 54.667969 C 58.402344 55.261719 59.070312 55.929688 59.667969 56.667969 C 58.929688 56.070312 58.261719 55.402344 57.667969 54.667969 Z M 57.667969 54.667969 "/>
<path style=" stroke:none;fill-rule:evenodd;fill:rgb(100%,80.784314%,57.254902%);fill-opacity:1;" d="M 64 46 C 64.710938 46.457031 65.121094 47.210938 65.832031 47.667969 C 65.054688 47.71875 64.089844 46.523438 63.5 45.832031 C 63.738281 45.746094 63.90625 46.484375 64 46 Z M 64 46 "/>
<path style=" stroke:none;fill-rule:evenodd;fill:rgb(99.607843%,99.607843%,99.607843%);fill-opacity:1;" d="M 68.832031 23.832031 C 73.03125 27.855469 74.585938 34.527344 77.667969 39.667969 C 81.976562 41.300781 85.8125 43.410156 88 47.167969 C 85.988281 47.601562 83.910156 47.964844 81.832031 48.332031 C 84.085938 51.078125 87.867188 52.300781 89.5 55.667969 C 87.902344 54.605469 85.859375 53.425781 83.832031 52.332031 C 81.796875 51.234375 79.882812 49.921875 79.167969 47.667969 C 80.878906 46.65625 83.128906 46.183594 86 46.332031 C 84.710938 44.777344 83.230469 44.105469 81.667969 43.167969 C 80.070312 42.207031 78.058594 42.097656 76.5 41 C 74.882812 39.859375 73.816406 36.28125 72.832031 34.167969 C 70.40625 28.953125 68.609375 25.351562 64.332031 22 C 61.816406 20.027344 59.128906 18.078125 54.332031 18.167969 C 52.78125 16.9375 50.472656 14.886719 48 15.667969 C 48.03125 17.890625 50.074219 19.300781 51.167969 21.5 C 52.21875 23.617188 52.570312 26.0625 53.667969 27.832031 C 54.011719 28.390625 55.023438 29.15625 55.167969 29.832031 C 55.5625 31.726562 53.773438 33.105469 54 35 C 53.722656 35.507812 53.722656 37.160156 54 37.667969 C 54.28125 39.777344 54.71875 41.726562 56.167969 42.667969 C 56.667969 40.222656 56.964844 37.574219 58.5 36.167969 C 60.132812 39.644531 61.796875 43.09375 64 46 C 63.90625 46.484375 63.738281 45.746094 63.5 45.832031 C 61.421875 44.355469 59.742188 42.480469 58.832031 39.832031 C 57.980469 41.476562 58.664062 44.136719 56.667969 44.332031 C 52.386719 44.757812 51.628906 33.648438 53.832031 30.332031 C 51.828125 28.847656 51.546875 25.277344 50 22 C 49.09375 20.082031 46.316406 18.484375 46.5 16 C 46.804688 11.835938 53.507812 14.476562 55.167969 16.5 C 60.953125 16.601562 63.902344 19.542969 67.167969 22.167969 C 67.652344 22.792969 68.207031 23.347656 68.832031 23.832031 Z M 68.832031 23.832031 "/>
<path style=" stroke:none;fill-rule:evenodd;fill:rgb(100%,80.784314%,57.254902%);fill-opacity:1;" d="M 67.167969 22.167969 C 67.792969 22.652344 68.347656 23.207031 68.832031 23.832031 C 68.207031 23.347656 67.652344 22.792969 67.167969 22.167969 Z M 67.167969 22.167969 "/>
<path style=" stroke:none;fill-rule:evenodd;fill:rgb(99.607843%,99.607843%,99.607843%);fill-opacity:1;" d="M 56.667969 23.667969 C 56.445312 22.5 55.527344 22.03125 55.167969 21 C 57.195312 20.382812 58.339844 23.089844 56.667969 23.667969 Z M 56.667969 23.667969 "/>
<path style=" stroke:none;fill-rule:evenodd;fill:rgb(67.843137%,75.294118%,81.960784%);fill-opacity:1;" d="M 30.832031 74.332031 C 31.457031 74.820312 32.015625 75.375 32.5 76 C 31.875 75.515625 31.320312 74.957031 30.832031 74.332031 Z M 30.832031 74.332031 "/>
<path style=" stroke:none;fill-rule:evenodd;fill:rgb(67.843137%,75.294118%,81.960784%);fill-opacity:1;" d="M 35.832031 52.332031 C 35.066406 51.820312 34.597656 51.011719 33.832031 50.5 C 34.6875 50.480469 35.679688 51.761719 36.332031 52.5 C 36.09375 52.589844 35.925781 51.851562 35.832031 52.332031 Z M 35.832031 52.332031 "/>
<path style=" stroke:none;fill-rule:evenodd;fill:rgb(99.607843%,99.607843%,99.607843%);fill-opacity:1;" d="M 30.832031 74.332031 C 26.632812 70.3125 25.089844 63.632812 22 58.5 C 17.699219 56.855469 13.867188 54.746094 11.667969 51 C 13.65625 50.546875 15.789062 50.234375 17.832031 49.832031 C 15.582031 47.082031 11.820312 45.847656 10.167969 42.5 C 11.292969 42.703125 11.914062 43.835938 13 44.5 C 15.746094 46.171875 19.574219 46.996094 20.5 50.5 C 18.753906 51.476562 16.546875 51.992188 13.667969 51.832031 C 15.058594 53.210938 16.21875 54.171875 17.832031 55.167969 C 19.40625 56.136719 21.566406 56.039062 23.167969 57.167969 C 24.765625 58.292969 25.867188 61.878906 26.832031 64 C 29.195312 69.1875 31.0625 72.820312 35.332031 76.167969 C 37.828125 78.121094 40.539062 80.097656 45.332031 80 C 46.886719 81.230469 49.195312 83.28125 51.667969 82.5 C 51.652344 80.269531 49.59375 78.867188 48.5 76.667969 C 47.449219 74.546875 47.097656 72.105469 46 70.332031 C 45.652344 69.769531 44.644531 69.019531 44.5 68.332031 C 44.105469 66.441406 45.894531 65.058594 45.667969 63.167969 C 45.945312 62.605469 45.945312 60.894531 45.667969 60.332031 C 45.3125 58.355469 44.964844 56.367188 43.5 55.5 C 42.828125 57.828125 42.980469 60.980469 40.832031 61.832031 C 39.738281 58.097656 37.707031 55.292969 35.832031 52.332031 C 35.925781 51.851562 36.09375 52.589844 36.332031 52.5 C 38.375 53.902344 39.941406 55.78125 40.832031 58.332031 C 41.703125 56.703125 41.011719 54.046875 43 53.832031 C 47.265625 53.371094 48.027344 64.554688 45.832031 67.832031 C 47.824219 69.320312 48.121094 72.890625 49.667969 76.167969 C 50.566406 78.070312 53.355469 79.707031 53.167969 82.167969 C 52.847656 86.316406 46.175781 83.6875 44.5 81.667969 C 38.714844 81.5625 35.761719 78.625 32.5 76 C 32.015625 75.375 31.457031 74.820312 30.832031 74.332031 Z M 30.832031 74.332031 "/>
<path style=" stroke:none;fill-rule:evenodd;fill:rgb(99.607843%,99.607843%,99.607843%);fill-opacity:1;" d="M 43 74.5 C 43.1875 75.703125 44.164062 76.113281 44.5 77.167969 C 42.449219 77.761719 41.367188 75.117188 43 74.5 Z M 43 74.5 "/>
<path style=" stroke:none;fill-rule:evenodd;fill:rgb(67.843137%,75.294118%,81.960784%);fill-opacity:1;" d="M 46.667969 2.332031 C 48.167969 2.054688 50.832031 2.054688 52.332031 2.332031 C 50.445312 2.332031 48.554688 2.332031 46.667969 2.332031 Z M 46.667969 2.332031 "/>
<path style=" stroke:none;fill-rule:evenodd;fill:rgb(67.843137%,75.294118%,81.960784%);fill-opacity:1;" d="M 46.667969 96.167969 C 48.554688 96.167969 50.445312 96.167969 52.332031 96.167969 C 50.832031 96.445312 48.167969 96.445312 46.667969 96.167969 Z M 46.667969 96.167969 "/>
</g>
</svg>
