<svg xmlns="http://www.w3.org/2000/svg" width="100pt" height="13pt" viewBox="0 0 100 13"><defs><clipPath id="a"><path d="M86 0h5v4h-5zm0 0"/></clipPath><clipPath id="b"><path d="M87.598 3.797h1.949c.351 0 .64-.27.64-.594V1.391c0-.329-.289-.598-.64-.598h-1.95c-.35 0-.64.27-.64.598v1.812c0 .324.29.594.64.594m-.374-2.406c0-.196.168-.352.375-.352h1.949a.36.36 0 0 1 .371.352v1.812c0 .188-.164.348-.371.348h-1.95c-.206 0-.374-.16-.374-.348zm0 0"/></clipPath><linearGradient id="c" gradientUnits="userSpaceOnUse" x1=".725" y1=".315" x2=".338" y2=".633" gradientTransform="matrix(6.39453 0 0 5.95313 85.375 -.68)"><stop offset="0" stop-color="#0db14b"/><stop offset=".005" stop-color="#0db14b"/><stop offset=".378" stop-color="#b4d670"/><stop offset=".446" stop-color="#aed16b"/><stop offset=".518" stop-color="#a1c85e"/><stop offset=".592" stop-color="#8dba4b"/><stop offset=".649" stop-color="#79ad3b"/><stop offset=".728" stop-color="#76a93c"/><stop offset=".818" stop-color="#6ba03f"/><stop offset=".912" stop-color="#599344"/><stop offset="1" stop-color="#3f8348"/></linearGradient><clipPath id="d"><path d="M87 0h12v12H87zm0 0"/></clipPath><clipPath id="e"><path d="M96.465.781h-4.012c-.351 0-.637.266-.637.598v1.875c0 .242.168.492.637.492h2.484c.223.012.415.192.415.41v4.2c0 .23-.2.414-.442.414h-4.25c-.242 0-.437-.18-.441-.403V5.961c0-.324-.285-.59-.637-.59h-1.941c-.352 0-.641.266-.641.59v3.844c0 .902.793 1.636 1.762 1.636h7.703c.969 0 1.754-.734 1.754-1.636V2.422c0-.902-.785-1.64-1.754-1.64m1.492 9.023c0 .765-.672 1.39-1.492 1.39h-7.703c-.82 0-1.492-.625-1.492-1.39V5.96c0-.184.164-.348.37-.348h1.942c.207 0 .375.164.375.348v2.41c.004.356.32.645.703.645h4.25c.387 0 .703-.293.703-.66v-4.2c0-.351-.3-.644-.675-.652h-2.485c-.203 0-.371-.055-.371-.25V1.379c0-.195.168-.348.371-.348h4.012c.82 0 1.492.621 1.492 1.39zm0 0"/></clipPath><linearGradient id="f" gradientUnits="userSpaceOnUse" x1=".32" y1=".709" x2=".656" y2=".319" gradientTransform="matrix(22.55469 0 0 20.98438 81.332 -4.379)"><stop offset="0" stop-color="#63923f"/><stop offset=".163" stop-color="#89b33c"/><stop offset=".342" stop-color="#3a8040"/><stop offset=".554" stop-color="#d3df9e"/><stop offset=".574" stop-color="#cdda97"/><stop offset=".608" stop-color="#bbcc82"/><stop offset=".653" stop-color="#9eb861"/><stop offset=".698" stop-color="#7ea441"/><stop offset="1" stop-color="#417f43"/></linearGradient><clipPath id="g"><path d="M87 1h3v3h-3zm0 0"/></clipPath><clipPath id="h"><path d="M87.598 3.55h1.949c.207 0 .371-.16.371-.347V1.391a.36.36 0 0 0-.371-.352h-1.95c-.206 0-.374.156-.374.352v1.812c0 .188.168.348.375.348m-.11-2.16c0-.059.051-.106.11-.106h1.949c.062 0 .11.047.11.106v1.812a.108.108 0 0 1-.11.106h-1.95a.111.111 0 0 1-.109-.106zm0 0"/></clipPath><linearGradient id="i" gradientUnits="userSpaceOnUse" x1=".196" y1=".238" x2="2.359" y2="2.057" gradientTransform="matrix(5.35938 0 0 4.98828 85.89 -.2)"><stop offset="0" stop-color="#0db14b"/><stop offset=".005" stop-color="#0db14b"/><stop offset=".378" stop-color="#b4d670"/><stop offset=".446" stop-color="#aed16b"/><stop offset=".518" stop-color="#a1c85e"/><stop offset=".592" stop-color="#8dba4b"/><stop offset=".649" stop-color="#79ad3b"/><stop offset=".713" stop-color="#75a93b"/><stop offset=".785" stop-color="#699f3e"/><stop offset=".861" stop-color="#559241"/><stop offset=".94" stop-color="#348144"/><stop offset="1" stop-color="#007345"/></linearGradient><clipPath id="j"><path d="M87 1h11v10H87zm0 0"/></clipPath><clipPath id="k"><path d="M96.465 1.277h-4.012c-.062 0-.11.043-.11.102l-.019 1.863.13.016h2.491c.524.015.934.41.934.898v4.2c0 .5-.43.906-.969.906h-4.25c-.523 0-.957-.399-.969-.89V5.96c0-.05-.05-.098-.109-.098h-1.941c-.063 0-.11.047-.11.098v3.844c0 .636.551 1.148 1.23 1.148h7.704c.676 0 1.23-.512 1.23-1.148V2.422c0-.637-.554-1.145-1.23-1.145"/></clipPath><linearGradient id="l" gradientUnits="userSpaceOnUse" x1=".204" y1=".251" x2=".773" y2=".73" gradientTransform="matrix(20.41016 0 0 18.99219 82.406 -3.383)"><stop offset="0" stop-color="#0db14b"/><stop offset=".005" stop-color="#0db14b"/><stop offset=".378" stop-color="#b4d670"/><stop offset=".446" stop-color="#aed16b"/><stop offset=".518" stop-color="#a1c85e"/><stop offset=".592" stop-color="#8dba4b"/><stop offset=".649" stop-color="#79ad3b"/><stop offset=".713" stop-color="#75a93b"/><stop offset=".785" stop-color="#699f3e"/><stop offset=".861" stop-color="#559241"/><stop offset=".94" stop-color="#348144"/><stop offset="1" stop-color="#007345"/></linearGradient><clipPath id="m"><path d="M87 1h3v3h-3zm0 0"/></clipPath><clipPath id="n"><path d="M87.598 3.309h1.949a.11.11 0 0 0 .11-.106V1.391a.106.106 0 0 0-.11-.106h-1.95a.108.108 0 0 0-.109.106v1.812c0 .055.051.106.11.106"/></clipPath><linearGradient id="o" gradientUnits="userSpaceOnUse" x1=".118" y1=".177" x2="2.808" y2="2.439" gradientTransform="matrix(4.3125 0 0 4.01563 86.418 .29)"><stop offset="0" stop-color="#0db14b"/><stop offset=".005" stop-color="#0db14b"/><stop offset=".378" stop-color="#b4d670"/><stop offset=".446" stop-color="#aed16b"/><stop offset=".518" stop-color="#a1c85e"/><stop offset=".592" stop-color="#8dba4b"/><stop offset=".649" stop-color="#79ad3b"/><stop offset=".713" stop-color="#75a93b"/><stop offset=".785" stop-color="#699f3e"/><stop offset=".861" stop-color="#559241"/><stop offset=".94" stop-color="#348144"/><stop offset="1" stop-color="#007345"/></linearGradient></defs><path d="M88.504 4.64h1.953c.348 0 .637-.269.637-.597V2.23c0-.328-.29-.59-.637-.59h-1.953c-.352 0-.637.262-.637.59v1.813c0 .328.285.598.637.598m8.863-3.016H93.36c-.351 0-.636.27-.636.594v1.879c0 .242.164.496.636.496h2.485a.42.42 0 0 1 .414.406v4.203c0 .227-.195.41-.438.41h-4.254c-.234 0-.433-.183-.437-.406V6.805c0-.325-.29-.59-.64-.59h-1.942c-.356 0-.637.265-.637.59v3.843c0 .903.785 1.637 1.762 1.637h7.695c.969 0 1.762-.734 1.762-1.637V3.266c0-.903-.793-1.641-1.762-1.641" fill="#d1d3d4"/><g clip-path="url(#a)"><g clip-path="url(#b)"><path d="M88.258 5.273l-2.883-3.27L88.887-.68l2.883 3.27zm0 0" fill="url(#c)"/></g></g><g clip-path="url(#d)"><g clip-path="url(#e)"><path d="M91.797-4.379l12.09 9.719-10.465 11.265-12.09-9.722zm0 0" fill="url(#f)"/></g></g><g clip-path="url(#g)"><g clip-path="url(#h)"><path d="M91.25 2.078L88.8 4.79l-2.91-2.277L88.34-.2zm0 0" fill="url(#i)"/></g></g><g clip-path="url(#j)"><g clip-path="url(#k)"><path d="M102.816 5.285L93.484 15.61 82.406 6.945l9.332-10.328zm0 0" fill="url(#l)"/></g></g><g clip-path="url(#m)"><g clip-path="url(#n)"><path d="M90.73 2.125l-1.972 2.18-2.34-1.836 1.969-2.18zm0 0" fill="url(#o)"/></g></g><path d="M1.762 3.977v2.382h1.16c.43 0 .762-.101.996-.308.234-.207.352-.5.352-.883 0-.379-.118-.672-.352-.879-.234-.207-.566-.312-.996-.312zM.84 3.273h2.082c.765 0 1.34.16 1.73.485.391.32.586.789.586 1.41 0 .625-.195 1.098-.586 1.418-.39.32-.965.476-1.73.476h-1.16V9.61H.84zm9.695 3.325v2.87H9.7V6.626c0-.453-.097-.79-.285-1.012-.187-.222-.473-.336-.848-.336-.453 0-.812.133-1.074.403-.258.27-.39.636-.39 1.101V9.47h-.844V2.863h.844v2.59c.199-.289.437-.5.707-.64a1.99 1.99 0 0 1 .945-.215c.586 0 1.031.172 1.332.511.3.336.45.832.45 1.489zm2.496 2.156v2.52h-.844v-6.56h.844v.72c.18-.282.399-.493.668-.63a2.13 2.13 0 0 1 .965-.206c.621 0 1.125.23 1.512.687.39.461.586 1.063.586 1.809s-.196 1.351-.586 1.808c-.387.457-.89.688-1.512.688-.371 0-.695-.067-.965-.203a1.752 1.752 0 0 1-.668-.633zm2.856-1.66c0-.574-.125-1.024-.383-1.348-.25-.328-.598-.492-1.043-.492-.445 0-.793.164-1.05.492-.25.324-.38.774-.38 1.348 0 .574.13 1.027.38 1.355.257.324.605.489 1.05.489.445 0 .793-.165 1.043-.489.258-.328.383-.781.383-1.355zm6.98-3.766v1.344a6.33 6.33 0 0 0-1.094-.352 4.482 4.482 0 0 0-1.007-.12c-.418 0-.73.054-.93.16a.534.534 0 0 0-.3.503.47.47 0 0 0 .198.399c.137.093.383.172.739.242l.75.14c.757.141 1.293.356 1.613.645.32.29.48.7.48 1.23 0 .7-.222 1.22-.671 1.563-.442.34-1.125.508-2.04.508-.43 0-.863-.04-1.3-.113A9.047 9.047 0 0 1 18 9.137v-1.38a7.29 7.29 0 0 0 1.262.49c.406.105.797.16 1.175.16.383 0 .676-.06.88-.18.203-.118.308-.29.308-.508 0-.2-.07-.352-.21-.457-.138-.11-.415-.207-.83-.29l-.679-.14c-.68-.137-1.18-.352-1.496-.648-.312-.301-.469-.7-.469-1.204 0-.632.22-1.117.657-1.457.437-.34 1.07-.507 1.89-.507.375 0 .758.027 1.153.082.394.05.804.129 1.226.23zm3.555 5.453v2.492h-1.633V4.715h1.633v.695c.226-.277.476-.48.75-.613.273-.133.586-.2.945-.2a1.96 1.96 0 0 1 1.551.704c.402.46.605 1.062.605 1.793 0 .734-.203 1.332-.605 1.8-.406.465-.922.696-1.55.696-.36 0-.673-.067-.946-.195a2.233 2.233 0 0 1-.75-.614zm1.086-3.078c-.348 0-.617.121-.809.36-.183.238-.277.582-.277 1.03 0 .45.094.798.277 1.036.192.238.461.36.809.36.351 0 .617-.122.8-.36.184-.238.278-.582.278-1.035 0-.453-.094-.797-.277-1.035-.184-.239-.45-.356-.801-.356zm7.852.375a1.947 1.947 0 0 0-.43-.133 1.913 1.913 0 0 0-.422-.047c-.422 0-.746.125-.973.375-.226.25-.336.61-.336 1.075v2.191h-1.636V4.785h1.636v.781c.207-.312.45-.539.719-.68.273-.144.602-.214.98-.214a7.914 7.914 0 0 1 .457.031zm5.921 1.07v.434h-3.816c.039.356.176.625.414.8.238.18.566.27.992.27.344 0 .695-.047 1.055-.14a5.835 5.835 0 0 0 1.113-.434V9.25a7.125 7.125 0 0 1-2.316.41c-.926 0-1.645-.215-2.157-.652-.511-.438-.77-1.051-.77-1.84 0-.777.255-1.387.755-1.832.504-.441 1.199-.664 2.082-.664.8 0 1.441.223 1.922.672.484.453.726 1.054.726 1.804zm-1.68-.503c0-.29-.09-.52-.273-.696-.18-.18-.414-.27-.707-.27-.316 0-.574.087-.77.25-.199.165-.32.403-.37.716zm5.204.753c-.34 0-.598.055-.774.165a.526.526 0 0 0-.254.472c0 .195.07.344.207.457.137.106.332.16.578.16a1.06 1.06 0 0 0 1.09-1.078v-.176zm2.496-.57V9.54h-1.649v-.703a2.15 2.15 0 0 1-.738.633c-.273.129-.605.191-1 .191-.527 0-.96-.14-1.289-.426-.332-.289-.496-.664-.496-1.12 0-.56.207-.97.617-1.227.414-.262 1.063-.39 1.945-.39h.961v-.122a.554.554 0 0 0-.304-.523c-.203-.114-.524-.172-.953-.172-.352 0-.676.035-.977.097-.3.067-.582.164-.84.293V4.914c.348-.082.7-.14 1.055-.18a8.7 8.7 0 0 1 1.058-.062c.922 0 1.586.168 1.993.508.41.336.617.886.617 1.648zm5.082-1.273V3.008h1.64v6.601h-1.64v-.687a2.145 2.145 0 0 1-.746.617 2.15 2.15 0 0 1-.938.195c-.629 0-1.148-.23-1.55-.695-.407-.469-.61-1.066-.61-1.8 0-.735.203-1.333.61-1.798.402-.464.921-.699 1.55-.699.352 0 .664.067.934.2.273.128.523.335.75.613zm-1.078 3.074c.351 0 .617-.117.797-.356.187-.238.28-.582.28-1.035 0-.453-.093-.797-.28-1.035-.18-.238-.446-.355-.797-.355-.348 0-.614.117-.797.355-.184.238-.274.582-.274 1.035 0 .453.09.797.274 1.035.183.239.449.356.797.356zm8.289-3.625V6.16a6.15 6.15 0 0 0-1.012-.305 4.349 4.349 0 0 0-.922-.101c-.308 0-.543.035-.695.11-.149.07-.223.179-.223.331 0 .121.059.215.168.278.117.066.324.113.617.144l.29.04c.835.097 1.398.261 1.687.488.289.226.434.582.434 1.066 0 .504-.204.887-.602 1.14-.402.254-1.004.383-1.8.383a7.54 7.54 0 0 1-1.048-.078 9.261 9.261 0 0 1-1.11-.219V8.281a4.925 4.925 0 0 0 2.044.442c.32 0 .562-.04.723-.121.16-.082.242-.204.242-.368a.33.33 0 0 0-.172-.3c-.11-.067-.328-.122-.66-.157l-.285-.035c-.73-.082-1.239-.242-1.532-.469-.289-.23-.437-.578-.437-1.046 0-.504.187-.875.558-1.118.371-.246.938-.367 1.703-.367.305 0 .622.02.95.063.332.043.695.11 1.082.199zm6.711 1.711v2.894h-1.64V7.402c0-.414-.013-.699-.032-.855a.856.856 0 0 0-.102-.344.625.625 0 0 0-.261-.23.824.824 0 0 0-.372-.086c-.343 0-.609.125-.804.37-.196.243-.293.583-.293 1.016V9.61h-1.633V3.008h1.633v2.547c.246-.278.508-.485.785-.614.277-.132.582-.199.918-.199.59 0 1.035.168 1.34.504.308.34.46.828.46 1.469zm6.625.508v.43h-3.817c.04.359.176.624.414.804.239.176.567.266.993.266.343 0 .695-.047 1.054-.141a5.564 5.564 0 0 0 1.114-.43v1.172a8.028 8.028 0 0 1-1.157.305c-.386.07-.773.105-1.16.105-.926 0-1.644-.218-2.16-.652-.508-.441-.766-1.055-.766-1.844 0-.777.25-1.386.754-1.828.504-.445 1.2-.668 2.082-.668.801 0 1.442.227 1.922.676.484.45.727 1.05.727 1.805zm-1.68-.508c0-.29-.09-.52-.273-.695-.18-.18-.415-.266-.707-.266-.317 0-.575.082-.77.25-.2.164-.32.402-.371.71zm8.012.508v.43h-3.817c.04.359.176.624.414.804.239.176.57.266.996.266a4.14 4.14 0 0 0 1.051-.141 5.564 5.564 0 0 0 1.114-.43v1.172c-.387.133-.77.235-1.157.305-.386.07-.773.105-1.16.105-.926 0-1.644-.218-2.156-.652-.512-.441-.77-1.055-.77-1.844 0-.777.254-1.386.754-1.828.504-.445 1.2-.668 2.082-.668.801 0 1.442.227 1.926.676.48.45.723 1.05.723 1.805zm-1.68-.508c0-.29-.09-.52-.273-.695-.18-.18-.414-.266-.707-.266-.317 0-.57.082-.77.25-.2.164-.32.402-.371.71zm4.695-3.207v1.347h1.684v1.09h-1.684v2.016c0 .219.047.371.141.45.098.073.281.112.562.112h.84V9.61h-1.402c-.645 0-1.102-.12-1.371-.37-.27-.255-.402-.68-.402-1.278V5.945h-.813v-1.09h.813V3.508zm0 0" fill="#fff"/></svg>