<svg xmlns="http://www.w3.org/2000/svg" viewBox="0 0 59.613 59.613"><path d="M14.981 46.41c-2.825-.632-5.213-2.771-6.082-5.45a1.001 1.001 0 0 0-1.903.617c1.1 3.389 3.992 5.988 7.548 6.785a1 1 0 0 0 .437-1.952zm25.859 7.344c-2.825-.632-5.213-2.771-6.082-5.45a1.001 1.001 0 0 0-1.903.617c1.1 3.389 3.992 5.988 7.548 6.785a1 1 0 0 0 .437-1.952zM7.536 37.192a1 1 0 0 0 1.178-.782 9.69 9.69 0 0 1 1.222-3.139 1 1 0 1 0-1.708-1.042 11.658 11.658 0 0 0-1.476 3.785 1.003 1.003 0 0 0 .784 1.178z"/><path d="M49.732 32.278c2.193-7.308-.21-13.962-5.218-21.919a9.614 9.614 0 0 0 2.118.258c.762 0 1.544-.085 2.334-.257 2.706-.59 5.162-2.161 6.737-4.31l.591-.807-.807-.591c-3.829-2.806-9.617-2.047-13.254 1.454-.757-1.684-2.039-3.159-3.768-4.269C36.134.341 33.287-.285 30.654.121l-.988.152.152.988c.403 2.619 1.982 4.933 4.447 6.514a11.612 11.612 0 0 0 6.213 1.837c.231 0 .46-.011.689-.026-.458 8.794-7.036 16.641-13.597 19.155-2.384-3.136-5.872-5.128-9.763-5.128h-2c-7.168 0-13 6.729-13 15 0 7.72 6.28 14 14 14 5.101 0 9.561-2.751 12.008-6.839.087 7.645 6.326 13.839 13.992 13.839 7.72 0 14-6.28 14-14 0-5.807-2.881-10.843-7.075-13.335zm3.656-26.572c-2.637 2.776-6.968 3.689-10.073 2.137 2.637-2.774 6.969-3.689 10.073-2.137zM32.044 2.002c1.842-.049 3.734.487 5.341 1.519 1.631 1.047 2.775 2.474 3.301 4.09-1.82.06-3.733-.487-5.341-1.518-1.631-1.047-2.775-2.474-3.301-4.091zm10.931 9.664c5.12 8.231 6.619 13.954 4.961 19.735a11.372 11.372 0 0 0-4.129-.789h-2c-4.66 0-8.744 2.853-11.039 7.116-.136-2.68-.876-5.172-2.077-7.294 6.652-2.728 13.035-10.082 14.284-18.768zM16.807 50.613c-6.617 0-12-5.383-12-12 0-7.168 4.935-13 11-13h2c3.001 0 5.722 1.43 7.708 3.741-.723.15-1.438.232-2.136.232a1 1 0 0 0 0 2c1.107 0 2.245-.176 3.389-.486 1.279 2.124 2.04 4.714 2.04 7.514-.001 6.616-5.385 11.999-12.001 11.999zm26 7c-6.617 0-12-5.383-12-12 0-7.168 4.935-13 11-13h2c1.22 0 2.391.246 3.488.681a25.296 25.296 0 0 1-1.362 2.833 1 1 0 1 0 1.748.972c.548-.987.99-1.952 1.376-2.907 3.423 2.206 5.75 6.498 5.75 11.421 0 6.617-5.384 12-12 12z"/><path d="M24.807 32.613c-2.206 0-4-1.794-4-4a1 1 0 0 0-2 0c0 3.309 2.691 6 6 6a1 1 0 0 0 0-2zm24 7c-2.206 0-4-1.794-4-4a1 1 0 0 0-2 0c0 3.309 2.691 6 6 6a1 1 0 0 0 0-2z"/></svg>