<svg xmlns="http://www.w3.org/2000/svg" viewBox="0 0 59.614 59.614"><path d="M49.732 32.279c2.193-7.31-.211-13.966-5.222-21.926a9.732 9.732 0 0 0 2.14.261c3.52 0 6.988-1.749 9.051-4.563l.591-.807-.806-.591c-1.531-1.122-3.41-1.715-5.435-1.715-2.897 0-5.746 1.198-7.819 3.186C40.615 2.557 36.64 0 32.257 0a10.5 10.5 0 0 0-1.602.122l-.988.152.152.988c.721 4.683 5.401 8.351 10.655 8.352.232 0 .463-.011.693-.026-.458 8.792-7.033 16.638-13.594 19.154-2.38-3.14-5.873-5.127-9.767-5.127h-2c-7.168 0-13 6.729-13 15 0 7.72 6.28 14 14 14 5.101 0 9.561-2.751 12.008-6.839.087 7.645 6.326 13.839 13.992 13.839 7.72 0 14-6.28 14-14 .001-5.809-2.88-10.845-7.074-13.336zM6.754 36.014a11.68 11.68 0 0 1 1.476-3.785 1.002 1.002 0 0 1 1.708 1.042 9.668 9.668 0 0 0-1.222 3.139 1 1 0 1 1-1.962-.396zm8.985 11.59a1 1 0 0 1-1.194.758c-3.556-.796-6.448-3.395-7.548-6.784a1 1 0 0 1 1.903-.617c.869 2.678 3.257 4.817 6.082 5.449a1 1 0 0 1 .757 1.194zm9.068-12.99c-3.309 0-6-2.691-6-6a1 1 0 0 1 2 0c0 2.206 1.794 4 4 4a1 1 0 0 1 0 2zm16.791 20.335a1 1 0 0 1-1.194.758c-3.556-.796-6.448-3.396-7.548-6.785a1 1 0 0 1 1.903-.617c.869 2.678 3.257 4.817 6.082 5.45a1 1 0 0 1 .757 1.194zm.209-24.335c-4.66 0-8.744 2.853-11.039 7.116a16.512 16.512 0 0 0-2.094-7.287c6.658-2.724 13.051-10.083 14.301-18.776 5.12 8.231 6.619 13.954 4.961 19.735a11.372 11.372 0 0 0-4.129-.789h-2zm7 11c-3.309 0-6-2.691-6-6a1 1 0 0 1 2 0c0 2.206 1.794 4 4 4a1 1 0 0 1 0 2z"/></svg>