<svg xmlns="http://www.w3.org/2000/svg" viewBox="0 0 172.445 172.445" width="512" height="512"><path d="M141.78 129.649c-1.332-4.522-4.595-7.412-8.61-9.521-5.021-2.638-10.478-3.854-16.038-4.692-4.599-.693-9.233-1.016-14.058-1.247.506-.786-.175-2.074 1.27-2.097 1.137-.018 2.034-.272 2.339-1.493.359-1.437-.743-1.982-1.75-2.596 2.71-1.806 4.641-3.957 4.311-7.416-.29-3.044-.244-3.003 2.001-4.822 2.877-2.331 5.696-4.733 8.528-7.119.426-.359 1.073-.686.953-1.339-.221-1.199.565-1.712 1.335-2.276 5.339-3.904 9.864-8.553 13.074-14.386 2.534-4.605 3.782-9.474 2.562-14.712-1.669-7.165-6.553-11.662-12.85-14.767-7.035-3.469-14.514-4.589-22.31-3.626-.618.076-1.584.558-1.879-.197-.359-.92.754-.937 1.297-1.282 1.407-.893 1.653-2.991.198-3.62-1.641-.709-1.395-1.83-1.406-3.043-.007-.767.096-1.549-.022-2.297-.269-1.708.511-1.97 2.028-1.907 3.122.13 6.269.298 9.372-.228 3.516-.597 6.672-1.865 8.192-5.453.983-2.319.757-2.587-1.778-2.588-5.494-.001-10.989-.027-16.483.024-1.123.01-1.554-.351-1.262-1.421.227-.831.958-.435 1.458-.459 2.632-.127 3.605-1.482 2.614-3.848-.229-.546-.242-.882.052-1.38 1.493-2.529 1.911-5.364 2.293-8.214.154-1.146-.146-1.636-1.386-1.627-5.686.043-11.372.054-17.057.001-1.283-.012-1.517.538-1.385 1.623.26 2.152.571 4.285 1.373 6.322.544 1.38 1.755 2.657.564 4.329-.306.429.042 1.107.342 1.62.753 1.287 2.001 1.2 3.218 1.153.689-.027 1.05.144 1.063.937.014.793-.326.963-1.026.95-1.788-.031-3.577-.009-5.366-.01-4.025-.002-8.051.042-12.074-.031-1.424-.026-1.975.337-1.52 1.815.79 2.569 2.536 4.204 4.926 5.236 3.192 1.379 6.58 1.287 9.96 1.338 1.637.025 3.815-.806 4.77.261 1.007 1.124.2 3.293.319 4.999.054.77-.083 1.271-.948 1.541-.926.289-1.423 1.063-1.39 2.071.033.98.484 1.751 1.44 2.041 1.352.41 1.126 1.526 1.207 2.491.099 1.184-.991.988-1.606 1.193-6.268 2.092-12.6 4.001-18.824 6.216-10.585 3.767-20.915 8.107-29.762 15.265-11.48 9.289-16.284 21.073-13.079 35.747 2.542 11.637 8.317 21.414 17.13 29.392.945.856 1.164 1.397.206 2.373-1.253 1.277-2.224 2.795-3.076 4.369-2.342 4.326-3.984 9.006-4.063 13.848-.104 6.429.627 12.872.999 19.309.865 1.345 1.325 2.772 1.208 4.416-.047.66.24 1.485 1.077 1.611.914.137 1.359-.491 1.545-1.319.128-1.6.188-3.215 1.086-4.635l.1-2.222a1.842 1.842 0 0 0 .001 0c.385-1.17.667-2.453.02-3.501-.764-1.237-1.923-2.236.34-3.091.413-.156.268-.81.291-1.246.159-3.061.162-6.138.51-9.177.208-1.822-.748-3.509-.342-5.263.833-3.595 2.479-6.79 4.891-9.607.759-.887 1.276-1.057 2.321-.323 4.127 2.904 8.548 5.343 13.262 7.119 2.377.895 3.895 1.857 2.968 4.651-.075.225.016.506.034.76.391 5.316 3.292 9.116 7.409 12.148.794.585 1.116.866.519 1.998-1.668 3.164.122 5.818 3.715 5.819 9.391.003 18.783.001 28.174.006 3.855.002 5.551-2.609 3.776-6.051-.45-.873-.325-1.109.365-1.582 2.343-1.608 4.367-3.562 5.707-6.09.537-1.014 1.194-1.297 2.262-1.247 2.373.112 4.71-.268 7.013-.797 8.895-2.039 13.916-10.459 11.362-19.127zm-52.748-8.359c-2.927 3.574-6.453 6.516-10.025 9.404-1.439 1.163-2.921 2.281-4.02 3.791-.479.657-.913.84-1.727.511-5.019-2.029-9.876-4.358-14.64-7.576 9.764-5.734 20.248-7.15 30.998-7.469.285.741-.302.992-.586 1.339zm5.17-33.843c-.065.584-.033 1.19-.733 1.626-2.342 1.46-2.437 2.107-.923 4.295-1.074.521-2.221.946-3.221 1.597-1.23.801-1.555.106-1.817-.875-.047-.175.084-.43-.002-.557-2.568-3.812-5.603-7.251-8.757-10.569-.706-.742-1.707.121-2.231.869-.894 1.276-3.025 1.78-2.552 3.886.093.417.645.756 1.028 1.079 2.684 2.266 5.375 4.522 8.073 6.771.39.325.818.838 1.242.852 2.585.085 1.944 1.305 1.321 2.94-.821 2.155-.326 4.271 1.12 6.108.796 1.011 1.789 1.806 2.897 2.524-.678.505-1.598.775-1.761 1.689-.243 1.365.333 2.289 1.772 2.349.956.04 1.625.15 1.588 1.322-.044 1.395-1.138.81-1.71.82-8.073.134-16.015 1.103-23.73 3.579-3.834 1.231-7.491 2.87-10.803 5.177-.929.647-1.484.746-2.4-.08-9.895-8.925-15.895-19.867-16.791-33.248-.511-7.636 2.406-14.22 7.622-19.773 5.744-6.115 12.9-10.112 20.435-13.528 9.921-4.498 20.312-7.658 30.725-10.929 0 1.793.095 3.455-.036 5.098-.078.98-.365 1.926-1.132 2.756-2.47 2.673-2.557 6.011-.264 8.819.511.626.513.883.024 1.517-2.212 2.872-2.24 4.939-.136 7.986 1.052 1.523 1.565 3.161 1.627 5.001.125 3.648-.07 7.279-.475 10.899zm7.832 6.001c1.601-2.262 1.505-2.921-.849-4.368-.634-.39-.65-.906-.707-1.434-.423-3.937-.657-7.885-.444-11.846.092-1.701.749-3.177 1.689-4.592 1.86-2.797 1.798-4.91-.321-7.5-.634-.775-.409-1.063.1-1.686 1.983-2.428 2.295-5.624.33-7.917-1.679-1.958-1.846-4.086-1.878-6.385-.054-3.929-.069-4.072 3.894-4.46 8.613-.843 16.667.72 23.461 6.438 5.361 4.512 6.547 10.561 3.412 16.865-1.305 2.623-2.864 4.954-5.415 6.854-2.637 1.964-4.429 5.058-6.613 7.639-.71.839-1.217 1.979-2.666 1.809-.467-.055-.733.457-1.017.796a9772.95 9772.95 0 0 0-7.256 8.654c-.082.098-.139.224-.237.3-.898.702-.017 2.69-1.562 2.651-1.027-.026-2.029-.96-3.047-1.477-.227-.115-.473-.186-.874-.341zm34.328 42.418c-.804 4.184-3.915 6.898-8.705 7.569-1.321.185-2.764.793-3.952.289-1.421-.603-.625-2.345-1.01-3.549-1.197-3.738-3.479-6.617-6.491-8.988-3.36-2.645-6.604-5.415-9.516-8.554-.676-.728-1.276-1.528-2.162-2.598 8.845.643 17.26 1.197 25.119 4.745.578.261 1.121.602 1.665.93 4.289 2.587 5.888 5.807 5.052 10.156z" fill="#c80085"/></svg>