<svg width="512" height="512" xmlns="http://www.w3.org/2000/svg"><path fill="none" d="M-1-1h582v402H-1z"/><path fill="#ed2025" d="M512.002 432c0 44.182-35.816 80-80 80H80c-44.183 0-80-35.818-80-80V80C0 35.817 35.817 0 80 0h352.002c44.184 0 80 35.817 80 80v352z"/><path fill="#bc1013" d="M512.761 431.24V300.347L398.707 186.292l-10.843 16.303.356.356-3.254 1.14-98.85-98.85-2.25 3.457.367.367-3.554 3.903-8.254 26.605v28.208l-48.466-48.466-2.25 3.456.254.253-7.678 10.453-7.19 18.764-5.16 51.588-54.549-54.55-.843-.872-.014.017-.017-.017-.179.273-17.24 22.69-10 51.817 62.925 114.43-22.144 22.143 151.482 151.48h121.405c44.184 0 80-35.817 80-80z"/><path fill="#FFF" d="M223.188 120.076c-12.768 22.4-14.355 50-6.982 74.597 7.031 23.707 21.826 44.617 40.504 59.925.391.329.805.647 1.208.977a136.955 136.955 0 0 0 5.358 4.078c.855.586 1.709 1.184 2.576 1.758.402.281.793.574 1.196.842 1.306.855 2.637 1.709 3.979 2.516.257.17.525.316.781.463 1.087.66 2.186 1.295 3.284 1.93.5.256 1.001.523 1.501.793.854.451 1.722.928 2.601 1.379 1.685.867 3.418 1.697 5.163 2.49.379.172.77.33 1.136.5 1.404.611 2.808 1.209 4.236 1.771.573.23 1.184.463 1.77.684 1.294.488 2.612.951 3.931 1.402.562.195 1.123.391 1.685.574a150.47 150.47 0 0 0 5.615 1.686c42.664 11.486 82.629-3.236 103.271-34.096 0 0-22.9 79.262-122.07 62.207-1.929-.328-3.76-1.086-5.604-1.672-.586-.195-1.159-.391-1.745-.586a141.157 141.157 0 0 1-3.882-1.391c-.586-.232-1.196-.465-1.808-.697a134.628 134.628 0 0 1-4.211-1.77c-.379-.17-.757-.316-1.135-.488a131.449 131.449 0 0 1-5.14-2.49 78.284 78.284 0 0 1-2.845-1.502c-.414-.23-.83-.426-1.244-.67a125.627 125.627 0 0 1-3.528-2.051c-.183-.111-.378-.221-.562-.342a92.57 92.57 0 0 1-3.992-2.539c-.391-.244-.769-.525-1.159-.795-.817-.549-1.647-1.098-2.454-1.672a146.523 146.523 0 0 1-5.541-4.199l-1.172-.951c-1.734-1.441-3.467-2.906-5.127-4.42a139.269 139.269 0 0 1-4.639-4.443c-.367-.391-.758-.77-1.123-1.172a109.727 109.727 0 0 1-4.322-4.639c-3.809-3.441-7.006-8.533-9.887-12.817a129.2 129.2 0 0 1-8.496-14.723c-14.979-30.347-16.016-68.762 3.186-97.449l15.687-22.998z"/><path fill="#FFF" d="M145.784 149.166c-23.389 46.936-12.879 104.065 16.394 145.508 1.05 1.502 2.124 2.99 3.235 4.48.342.451.684.891 1.037 1.33a126.882 126.882 0 0 0 2.808 3.602c.342.428.672.83 1.025 1.258 1.27 1.563 2.563 3.1 3.894 4.613 1.453 1.637 2.722 3.053 4.041 4.432.403.428.806.842 1.221 1.281a151.785 151.785 0 0 0 3.137 3.186c.403.416.818.818 1.233 1.234a200.762 200.762 0 0 0 4.37 4.113 218.692 218.692 0 0 0 4.602 4.027c.488.416.989.818 1.477 1.234 1.111.928 2.222 1.818 3.345 2.709.537.428 1.074.855 1.636 1.281a153.5 153.5 0 0 0 3.687 2.771c.427.293.83.623 1.269.928 1.282.916 2.588 1.807 3.906 2.686.488.342.977.695 1.478 1.025a172.222 172.222 0 0 0 5.481 3.492c.488.293.951.549 1.439.83 1.393.83 2.783 1.66 4.199 2.453.781.451 1.575.842 2.356 1.281 1.159.611 2.331 1.246 3.528 1.855.439.221.879.439 1.306.646 1.501.758 3.015 1.479 4.554 2.197.354.16.707.33 1.074.502a161.78 161.78 0 0 0 5.395 2.318c.465.195.928.379 1.393.574 1.66.672 3.32 1.307 5.004 1.916 2.637.965 4.541 1.611 6.434 2.209.488.16.977.307 1.477.465 1.941.598 3.883 1.232 5.872 1.709 52.698 12.439 108.338 1.27 139.674-41.113 0 0-37.317 104.443-165.772 80.127-2.014-.379-3.967-1.111-5.92-1.734-.465-.133-.928-.293-1.393-.426a161.41 161.41 0 0 1-5.725-1.953c-2.381-.855-4.09-1.527-5.799-2.197l-1.318-.551a142.625 142.625 0 0 1-5.443-2.355c-.342-.146-.66-.293-1.002-.451a202.106 202.106 0 0 1-4.663-2.246c-.403-.207-.806-.402-1.208-.611a117.372 117.372 0 0 1-3.625-1.928c-.757-.402-1.538-.793-2.283-1.221a168.116 168.116 0 0 1-4.114-2.393c-.513-.305-1.025-.598-1.514-.891a159.165 159.165 0 0 1-5.493-3.492c-.513-.342-1.013-.707-1.514-1.049a118.957 118.957 0 0 1-3.516-2.406c-.806-.572-1.221-.902-1.672-1.232a241.08 241.08 0 0 1-3.613-2.686c-.574-.463-1.147-.902-1.721-1.367a160.77 160.77 0 0 1-3.21-2.611c-.537-.439-1.074-.879-1.6-1.318a243.507 243.507 0 0 1-3.857-3.383c-.244-.219-.488-.426-.744-.646a155.194 155.194 0 0 1-4.31-4.076c-.427-.404-.854-.83-1.27-1.246-1.05-1.049-2.075-2.1-3.101-3.174-.415-.414-.83-.854-1.245-1.293a186.965 186.965 0 0 1-3.882-4.248 171.302 171.302 0 0 1-4.053-4.785 61.157 61.157 0 0 1-1.037-1.295c-.94-1.16-1.844-2.318-2.747-3.49-.366-.502-.744-.99-1.123-1.49a135.643 135.643 0 0 1-2.954-4.09c-.183-.256-.378-.5-.562-.768a213.062 213.062 0 0 1-3.345-5.006 89.96 89.96 0 0 1-.952-1.537 161.316 161.316 0 0 1-2.246-3.639c-.378-.635-.744-1.27-1.11-1.904a238.934 238.934 0 0 1-1.941-3.441c-.354-.66-.708-1.295-1.05-1.953-.195-.367-.415-.732-.586-1.1-.342-.623-.635-1.27-.952-1.904-.5-.988-1.001-1.977-1.489-2.99-20.288-42.102-23.596-93.654 2.954-133.29l20.739-27.293zm139.538-43.165c-15.662 29.382-.757 65.441 23.267 84.362a79.46 79.46 0 0 0 13.501 8.557 79.374 79.374 0 0 0 7.715 3.32c2.051.745 4.37 1.55 6.494 2.087 26.831 6.763 48.694 2.087 61.706-17.358-3.955 5.908-18.811 46.07-73.571 35.083-1.208-.244-2.368-.684-3.54-1.063-.366-.109-.721-.244-1.074-.354-.83-.293-1.648-.575-2.466-.891-19.824-7.545-36.792-23.45-45.081-43.738-7.861-19.092-6.751-40.576 4.578-57.886l8.471-12.119z"/></svg>