<svg width="512" height="512" xmlns="http://www.w3.org/2000/svg"><path fill="none" d="M-1-1h582v402H-1z"/><circle r="256" fill="#ed2025" cy="256.759" cx="256.759"/><path fill="#bc1013" d="M512 256c0-3.3-.1-6.5-.2-9.8L366 98.6c0-1.4-1.3-2.6-2.9-2.6h-34.5c-1.6 0-2.9 1.2-2.9 2.6v5.8l9.1 6.2h-9.1v15.7l-8.4-8.3H152.5c-12.5 0-22.6 10.1-22.6 22.6v155.2l9.1 5.6h-13.8V375l9.1 5.6h-4.5v12.8c0 7.4 3.6 14 9.1 18.1.9 1.2 62.2 62.6 99.6 99.9 5.8.4 11.6.6 17.4.6C397.4 512 512 397.4 512 256z"/><path fill="#FFF" d="M257.1 338.2l42-36.8H125.2V375h173.9l-42-36.8zm-86.5 15.1c-2.2 1.7-5.1 2.5-8.8 2.5-3.5 0-6.5-.9-9.1-2.8-2.6-1.8-3.8-4.5-3.8-7.8v-.1h5.5c0 2.1.7 3.6 2.1 4.6 1.4 1 3.1 1.6 5.2 1.6 2 0 3.6-.4 4.7-1.3s1.7-2 1.7-3.5c0-1.4-.5-2.6-1.5-3.5-1-.9-2.8-1.7-5.4-2.4-3.7-1-6.5-2.4-8.5-4-2-1.7-3-3.8-3-6.5 0-2.8 1.1-5 3.3-6.8 2.2-1.8 5-2.7 8.5-2.7 3.7 0 6.7 1 8.9 3s3.3 4.4 3.2 7.3v.1h-5.5c0-1.8-.6-3.2-1.8-4.3-1.2-1.1-2.8-1.6-4.8-1.6-1.9 0-3.4.5-4.5 1.4-1 .9-1.6 2.1-1.6 3.5 0 1.3.6 2.4 1.7 3.3 1.1.9 3 1.7 5.7 2.4 3.6 1 6.3 2.4 8.2 4.1 1.9 1.7 2.8 3.9 2.8 6.6.1 2.9-1 5.2-3.2 6.9zm25 2h-5.4L178 321.1h6.1l8.2 24.9.6 2.5h.1l.6-2.4 8.2-25h6.1l-12.3 34.2zm42.6-4.6c-.9 1.3-2.4 2.5-4.5 3.6-2.1 1-4.7 1.6-8 1.6-4 0-7.4-1.3-10-3.9-2.6-2.6-3.9-6-3.9-10.1v-7.1c0-4.1 1.3-7.5 3.8-10.1 2.5-2.6 5.8-3.9 9.7-3.9 4 0 7.1 1 9.3 3 2.2 2 3.3 4.6 3.2 7.8l-.1.1h-5.4c0-1.9-.6-3.5-1.8-4.7-1.2-1.2-2.9-1.8-5.2-1.8-2.4 0-4.3.9-5.7 2.7-1.4 1.8-2.2 4-2.2 6.7v7.2c0 2.8.8 5 2.3 6.8 1.5 1.8 3.5 2.7 5.9 2.7 1.8 0 3.3-.2 4.3-.6 1.1-.4 1.9-.9 2.4-1.5v-7.1h-7.2v-4.3H238v12.9h.2zm145.7-183.6H366v-34.6h-40.4v34.6h-17.8c-2.5 0-3.9 2.7-2.2 4.4l38 44.1c1.2 1.1 3.2 1.1 4.3 0l38-44.1c1.8-1.7.5-4.4-2-4.4zm-58.2-56.5h40.4v15.7h-40.4z"/><path fill="#FFF" d="M341.4 224v166c0 9.6-7.8 17.5-17.5 17.5h-168c-9.6 0-17.5-7.8-17.5-17.5v-9.4h-8.6v12.8c0 12.5 10.1 22.6 22.6 22.6h174.9c12.5 0 22.6-10.1 22.6-22.6V224.1c-1.3.5-2.7.8-4.1.8-1.5-.1-3-.4-4.4-.9zm-203-79.9c0-9.6 7.8-17.5 17.5-17.5h161.4V118H152.5c-12.5 0-22.6 10.1-22.6 22.6v155.2h8.6V144.1h-.1z"/><path fill="#FFF" d="M299 176.6H164V189h145.7l-10.3-11.9c-.1-.1-.3-.3-.4-.5zm-135 20.2h151.8v12.4H164zm0 20.2h151.8v12.4H164zm0 20.2h151.8v12.4H164zm0 20.1h118.9v12.4H164zM366 98.6c0-1.4-1.3-2.6-2.9-2.6h-34.5c-1.6 0-2.9 1.2-2.9 2.6v5.8H366v-5.8z"/></svg>