<?xml version="1.0"?>
<svg xmlns="http://www.w3.org/2000/svg" height="512px" viewBox="0 0 512 512" width="512px" class=""><g><path d="m321.391 139.328c-5.782-4.344-13-4.367-18.313-.351l-13.492 10.123a15.881 15.881 0 0 1 -19.18-.016l-13.492-10.117a14.861 14.861 0 0 0 -20.8 20.8 79.432 79.432 0 0 0 22.706 20.483l21.18 12.711 20.711-12.43a82.211 82.211 0 0 0 23.523-21.195 14.278 14.278 0 0 0 -2.843-20.008z" data-original="#000000" class="active-path" data-old_color="#000000" fill="#266A2E"/><path d="m194.812 352.031a24.1 24.1 0 0 1 -21.96-14.3l-80.861-182.374-57.791 60.87a7.983 7.983 0 0 0 .266 11.335l162.479 154.238a8.027 8.027 0 0 0 11.336-.266l54.428-57.405-58.186 25.827a23.8 23.8 0 0 1 -9.711 2.075zm-131.898-119.539-11.6-11.015 11.016-11.61 11.6 11.016z" data-original="#000000" class="active-path" data-old_color="#000000" fill="#266A2E"/><path d="m184 272v-192.99l-83.234 36.865a8.033 8.033 0 0 0 -4.258 4.477 7.9 7.9 0 0 0 .156 6.07l5.117 11.43 85.688 193.382a8.067 8.067 0 0 0 4.461 4.25 7.888 7.888 0 0 0 6.093-.148l88.618-39.336h-78.641a24.027 24.027 0 0 1 -24-24zm-62.953-130.086-6.485-14.625 14.626-6.484 6.484 14.625z" data-original="#000000" class="active-path" data-old_color="#000000" fill="#266A2E"/><path d="m352 40h-144a8.005 8.005 0 0 0 -8 8v224a8.005 8.005 0 0 0 8 8h144a8.005 8.005 0 0 0 8-8v-224a8.005 8.005 0 0 0 -8-8zm-136 16h16v16h-16zm68.117 153.148a8 8 0 0 1 -8.234 0l-25.3-15.179a95.268 95.268 0 0 1 -27.274-24.594 30.857 30.857 0 0 1 43.2-43.2l13.491 10.114.016.008 13.461-10.125a31.179 31.179 0 0 1 49.328 20.312 30.094 30.094 0 0 1 -5.774 22.461 98.363 98.363 0 0 1 -28.086 25.305zm59.883 54.852h-16v-16h16z" data-original="#000000" class="active-path" data-old_color="#000000" fill="#266A2E"/><path d="m400 320.723a48.043 48.043 0 0 1 39.277 39.277h-16.413a31.945 31.945 0 0 0 -22.864-22.864zm7.222 42.966a63.374 63.374 0 0 0 -17.767 8.752 64.488 64.488 0 0 0 -10.055-14.259 15.824 15.824 0 0 1 27.821 5.507zm-23.222-42.971v16.388a31.865 31.865 0 0 0 -16.869 10.843 62.94 62.94 0 0 0 -14.737-6.981 47.85 47.85 0 0 1 31.606-20.25zm-84.444 115.649a48.026 48.026 0 0 1 -10.5-54.533l13.6 9.22a31.962 31.962 0 0 0 6.1 31.758zm-1.517-67.767a47.6 47.6 0 0 1 41.141-14.437 48.269 48.269 0 0 1 13.4 4.009l-9.19 13.548a32 32 0 0 0 -31.761 6.1zm47.891 42.133a16 16 0 1 1 -4.266-22.218 16.018 16.018 0 0 1 4.266 22.219zm-33.13 34.629 9.175-13.535a31.693 31.693 0 0 0 31.906-6.089l8.861 5.961c.154 1.379.28 2.758.524 4.137.136.776.356 1.522.519 2.289a47.708 47.708 0 0 1 -50.985 7.237zm61.067-57.346a63.734 63.734 0 0 0 -10.433 24.854l-.692-.465a31.965 31.965 0 0 0 -6.112-31.705l9.2-13.562a48.288 48.288 0 0 1 11.3 16.678c-1.13 1.355-2.238 2.736-3.263 4.2zm18.88 70.874a47.592 47.592 0 0 1 -9.78-54.741l13.455 9.421a31.963 31.963 0 0 0 5.654 31.9zm-.543-67.805a47.555 47.555 0 0 1 25.757-13.632 48.234 48.234 0 0 1 8.437-.742 47.416 47.416 0 0 1 20.471 4.682l-9.424 13.46a31.97 31.97 0 0 0 -31.843 5.613zm47.196 42.821a16 16 0 1 1 -3.929-22.289 15.875 15.875 0 0 1 3.929 22.289zm-4.773 38.086a47.5 47.5 0 0 1 -28.8-3.889l9.347-13.448a31.548 31.548 0 0 0 11.053 2.079 32.655 32.655 0 0 0 5.625-.492 31.7 31.7 0 0 0 15.139-7.258l13.391 9.376a47.558 47.558 0 0 1 -25.757 13.632zm35-26.695-13.456-9.422a31.964 31.964 0 0 0 -5.613-31.845l9.38-13.4a47.622 47.622 0 0 1 9.682 54.67z" data-original="#000000" class="active-path" data-old_color="#000000" fill="#266A2E"/></g> </svg>
