<svg xmlns="http://www.w3.org/2000/svg" viewBox="0 0 286.597 286.597" width="512" height="512"><g fill="#FFF"><path d="M272.529 258.905v-18.462h-4.795l-4.412-110.294 3.582-14.322h5.626V88.135h9.231V62.072L143.298 0 4.836 62.072v26.063h9.231v27.692h5.626l3.582 14.322-4.412 110.294h-4.795v18.462H.221v27.692h286.154v-27.692h-13.846zM14.067 78.904V68.045l129.231-57.928L272.53 68.049v10.855H14.067zm9.23 170.77h240v9.231h-240v-9.231zm9.052-115.385h4.795v106.154h-9.042l4.247-106.154zm-3.138-18.461h11.252l-2.308 9.231h-6.637l-2.307-9.231zm17.164 124.616V130.242l3.605-14.414h6.636l3.582 14.322-4.412 110.294h-9.411zm22.897-106.155h4.795v106.154h-9.041l4.246-106.154zm-3.138-18.461h11.252l-2.308 9.231H68.44l-2.306-9.231zm17.163 14.414l3.605-14.414h6.637l3.582 14.322-4.411 110.294h-9.411V130.242h-.002zm22.898 4.047h4.795v106.154h-9.041l4.246-106.154zm-3.138-18.461h11.252L112 125.059h-6.637l-2.306-9.231zm17.164 14.414l3.605-14.414h2.022l3.605 14.414v110.202h-9.231V130.242h-.001zm17.452-5.183l-2.308-9.231h15.868l-2.308 9.231h-11.252zm10.241 9.23v106.154h-9.231V134.289h9.231zm9.231-4.047l3.605-14.414h2.022l3.605 14.414v110.202h-9.231l-.001-110.202zm24.087-5.183h-6.637l-2.307-9.231h11.252l-2.308 9.231zm3.415 115.384h-9.041V134.289h4.795l4.246 106.154zm4.828-110.294l3.582-14.322h6.637l3.605 14.414v110.202h-9.411l-4.413-110.294zm28.68-5.09h-6.637l-2.307-9.231h11.252l-2.308 9.231zm3.415 115.384h-9.041V134.289h4.795l4.246 106.154zm4.828-110.293l3.582-14.322h6.637l3.604 14.414v110.202h-9.411l-4.412-110.294zm28.68-5.091h-6.637l-2.307-9.231h11.252l-2.308 9.231zm3.414 115.384h-9.041V134.289h4.795l4.246 106.154zM23.298 106.597V88.135h240v18.462h-240zM9.452 277.366v-9.231h267.692v9.231H9.452z"/><path d="M38.474 69.674h209.654l-104.83-46.588L38.474 69.674zm43.494-9.231l61.329-27.258 61.329 27.258H81.968zm1.329 32.308h9.231v9.231h-9.231zm18.463 0h9.231v9.231h-9.231zm18.461 0h9.231v9.231h-9.231zm18.461 0h9.231v9.231h-9.231zm18.463 0h9.231v9.231h-9.231zm18.461 0h9.231v9.231h-9.231zm18.462 0h9.231v9.231h-9.231z"/><path d="M120.221 46.597h9.231v9.231h-9.231zm18.461 0h9.231v9.231h-9.231zm18.463 0h9.231v9.231h-9.231z"/></g></svg>